<svg width="154" height="169" viewBox="0 0 154 169" fill="none" xmlns="http://www.w3.org/2000/svg">
<path d="M143.906 138.782C137.96 122.802 101.592 115.17 95.223 110.539C87.047 104.593 89.649 84.897 89.649 84.897L76.27 85.249L62.892 84.897C62.892 84.897 65.492 104.597 57.317 110.539C50.949 115.17 14.58 122.8 8.634 138.782C5.01731 148.552 2.28142 158.625 0.459 168.882H152.082C150.259 158.625 147.523 148.552 143.906 138.782V138.782Z" fill="#FFAC9D"/>
<path d="M60.413 106.869C66.676 106.229 72.971 104.959 78.425 101.909C82.3232 99.7128 85.9698 97.0973 89.3 94.109C89.1826 91.0349 89.2993 87.9564 89.649 84.9L76.27 85.252L62.892 84.9C62.892 84.9 64.743 98.915 60.413 106.869Z" fill="#CC887F"/>
<path d="M144.961 138.561C140.33 126.115 117.395 118.7 104.261 113.818C98.548 120.412 88.403 124.801 76.832 124.801C65.261 124.801 55.116 120.412 49.402 113.818C36.264 118.7 13.329 126.118 8.702 138.561C5.05897 148.403 2.303 158.551 0.466995 168.884H153.2C151.363 158.551 148.606 148.403 144.961 138.561V138.561Z" fill="#6F96BD"/>
<path d="M76.779 129.9C91.457 129.9 104.052 124.055 109.452 115.722C107.609 115.046 105.859 114.413 104.257 113.817C98.544 120.411 88.399 124.8 76.828 124.8C65.257 124.8 55.112 120.411 49.398 113.817C47.773 114.417 45.998 115.064 44.126 115.75C49.536 124.069 62.118 129.9 76.779 129.9Z" fill="#85B7E0"/>
<path d="M53.806 54.191C51.645 47.491 46.529 49.04 46.049 49.202C45.549 49.261 40.259 50.046 41.172 57.029C42.091 64.054 46.172 67.862 49.99 66.743C53.923 66.12 55.979 60.935 53.806 54.191Z" fill="#DD9F97"/>
<path d="M97.064 54.191C99.224 47.491 104.341 49.04 104.82 49.202C105.32 49.261 110.611 50.046 109.697 57.029C108.778 64.054 104.697 67.862 100.88 66.743C96.947 66.12 94.89 60.935 97.064 54.191Z" fill="#DD9F97"/>
<path d="M102.525 43.646C99.848 14.259 77.506 15.9 75.4 16.126C73.293 15.905 50.952 14.259 48.275 43.646C45.581 73.209 58.748 92.516 75.4 91.454C92.051 92.516 105.219 73.209 102.525 43.646Z" fill="#FFAC9D"/>
<path d="M78.592 53.68L80.256 65.321L76.882 68.521" stroke="#DD9F97" stroke-width="1.115" stroke-miterlimit="10"/>
<path d="M62.464 72.842L88.977 72.565C88.977 72.565 78.374 83 62.464 72.842Z" fill="white"/>
<path d="M69.263 78.167C74.942 80.857 81.353 80.646 86.4 76.219" stroke="#DD9F97" stroke-width="1.115" stroke-miterlimit="10"/>
<path d="M61.5 54.123C61.5 56.336 62.321 58.131 63.335 58.131C64.349 58.131 65.169 56.336 65.169 54.123C65.169 51.91 64.348 50.115 63.335 50.115C62.322 50.115 61.5 51.909 61.5 54.123Z" fill="#352C38"/>
<path d="M86.714 54.123C86.714 56.336 87.535 58.131 88.549 58.131C89.563 58.131 90.383 56.336 90.383 54.123C90.383 51.91 89.562 50.115 88.549 50.115C87.536 50.115 86.714 51.909 86.714 54.123Z" fill="#352C38"/>
<path d="M57 47.565C57 47.565 63.392 39.752 69.784 47.032" stroke="#352C38" stroke-width="2.131" stroke-miterlimit="10"/>
<path d="M82.387 47.565C82.387 47.565 88.779 39.752 95.172 47.032" stroke="#352C38" stroke-width="2.131" stroke-miterlimit="10"/>
<path d="M48.36 58.135C48.36 58.135 41.36 29.135 45.36 20.801C49.36 12.467 54.027 15.135 54.027 15.135C54.027 15.135 60.36 -2.19898 73.693 1.13502C87.026 4.46902 94.693 10.468 101.693 4.46802C101.693 4.46802 101.693 9.80102 97.693 12.135C97.693 12.135 106.027 12.135 109.36 4.13502C109.36 4.13502 114.339 21.235 103.339 27.235C103.339 27.235 104.164 48.602 103.361 56.467L100.361 56.134C100.361 56.134 98.694 44.8 97.694 30.467C97.694 30.467 80.361 39.8 59.361 23.467C59.361 23.467 62.361 34.467 50.361 41.467L51.361 56.8L48.36 58.135Z" fill="#BEBEBE"/>
<path d="M91.054 32.568C86.2831 32.2536 81.5829 31.2495 77.1 29.587C68.085 26.124 60.338 15.856 59.726 5.90704C57.299 8.62455 55.3695 11.7483 54.026 15.135C54.026 15.135 49.36 12.468 45.36 20.8C41.36 29.132 48.36 58.134 48.36 58.134L51.36 56.8L50.36 41.467C62.36 34.467 59.36 23.467 59.36 23.467C72.456 33.654 84.124 33.857 91.054 32.568Z" fill="#826967"/>
</svg>
