<svg width="154" height="161" viewBox="0 0 154 161" fill="none" xmlns="http://www.w3.org/2000/svg">
<path d="M144.354 130.782C138.408 114.802 102.04 107.17 95.671 102.539C87.495 96.593 90.097 76.897 90.097 76.897L76.718 77.249L63.34 76.9C63.34 76.9 65.94 96.6 57.766 102.542C51.397 107.173 15.029 114.805 9.08298 130.785C5.46627 140.555 2.73005 150.628 0.906982 160.885H152.53C150.707 150.627 147.971 140.553 144.354 130.782V130.782Z" fill="#FDDEC0"/>
<path d="M60.861 98.869C67.124 98.229 73.42 96.959 78.873 93.909C82.7712 91.7128 86.4178 89.0973 89.748 86.109C89.6312 83.0349 89.7479 79.9564 90.097 76.9L76.718 77.252L63.34 76.9C63.34 76.9 65.191 90.915 60.861 98.869Z" fill="#E2C6AF"/>
<path d="M145.409 130.561C139.617 114.995 105.174 107.293 97.109 102.583C96.563 102.9 95.994 103.19 95.428 103.483L77.697 123.466L53.18 104.541C41.051 109.385 14.2 116.978 9.14699 130.559C5.50338 140.401 2.74706 150.549 0.91098 160.882H153.645C151.809 150.55 149.052 140.402 145.409 130.561V130.561Z" fill="#FC6A5A"/>
<path d="M2.02698 149.301H153.027" stroke="#F99787" stroke-width="3" stroke-miterlimit="10"/>
<path d="M2.02698 153.968H153.027" stroke="#F99787" stroke-miterlimit="10"/>
<path d="M72.027 112.468L77.694 123.468L81.694 111.135L84.694 117.135L77.36 124.8L69.027 117.467L72.027 112.468Z" fill="#BC7068"/>
<path d="M51.693 104.8L66.693 126.467L72.026 112.467L56.36 96.8L51.693 104.8Z" fill="#F99787"/>
<path d="M101.027 103.135L87.027 125.135L81.694 111.135L97.361 95.468L101.027 103.135Z" fill="#F99787"/>
<path d="M54.254 46.191C52.093 39.491 46.977 41.04 46.498 41.202C45.998 41.261 40.707 42.046 41.62 49.029C42.539 56.054 46.62 59.862 50.438 58.743C54.371 58.12 56.427 52.935 54.254 46.191Z" fill="#E2C6AF"/>
<path d="M96.179 45.525C98.34 38.825 103.456 40.373 103.936 40.535C104.436 40.594 109.726 41.379 108.813 48.363C107.894 55.388 103.813 59.195 99.995 58.077C96.062 57.453 94.006 52.268 96.179 45.525Z" fill="#E2C6AF"/>
<path d="M102.973 35.646C100.3 6.25901 77.955 7.90001 75.848 8.12601C73.741 7.90501 51.399 6.25901 48.722 35.646C46.028 65.209 59.196 84.516 75.848 83.454C92.5 84.516 105.667 65.209 102.973 35.646Z" fill="#FDDEC0"/>
<path d="M79.04 45.68L80.704 57.321L77.33 60.521" stroke="#E2C6AF" stroke-width="2" stroke-miterlimit="10"/>
<path d="M62.912 64.842L89.425 64.565C89.425 64.565 78.823 75 62.912 64.842Z" fill="white"/>
<path d="M69.711 70.167C75.39 72.857 81.801 72.646 86.848 68.219" stroke="#E2C6AF" stroke-miterlimit="10"/>
<path d="M63.783 50.131C64.7964 50.131 65.618 48.3365 65.618 46.123C65.618 43.9094 64.7964 42.115 63.783 42.115C62.7696 42.115 61.948 43.9094 61.948 46.123C61.948 48.3365 62.7696 50.131 63.783 50.131Z" fill="#352C38"/>
<path d="M87.162 46.123C87.162 48.336 87.983 50.131 88.997 50.131C90.011 50.131 90.832 48.336 90.832 46.123C90.832 43.91 90.01 42.115 88.997 42.115C87.984 42.115 87.162 43.909 87.162 46.123Z" fill="#352C38"/>
<path d="M57.444 39.565C57.444 39.565 63.836 31.752 70.228 39.032" stroke="#352C38" stroke-width="2.131" stroke-miterlimit="10"/>
<path d="M82.835 39.565C82.835 39.565 89.228 31.752 95.62 39.032" stroke="#352C38" stroke-width="2.131" stroke-miterlimit="10"/>
<path d="M57.96 24.209C57.96 24.209 66.027 34.801 78.693 36.468L75.693 32.135C79.8409 34.8191 84.4904 36.6334 89.36 37.468C90.238 33.2102 89.3996 28.7779 87.027 25.135C87.027 25.135 92.693 37.468 99.36 42.135C99.36 42.135 102.027 33.468 98.693 28.468C98.693 28.468 100.818 30.823 107.151 38.49C107.151 38.49 114.242 16.978 96.909 5.31102C79.576 -6.35598 61.075 4.17102 55.075 10.505C55.075 10.505 44.401 6.89803 41.948 21.179C40.7282 28.2432 41.5798 35.5094 44.4 42.1C44.4 42.1 48.15 39.627 48.15 47.293L49.026 55.139H51.359L51.692 39.472C51.692 39.472 57.627 37.209 57.96 24.209Z" fill="#352C38"/>
<path d="M100.1 54.7C100.939 54.671 101.779 54.645 102.618 54.617C104.913 46.389 103.36 31.468 103.36 31.468C103.36 31.468 95.571 15.986 98.693 28.468C101.273 38.78 100.383 51.493 100.1 54.7Z" fill="#352C38"/>
</svg>
