<svg width="154" height="176" viewBox="0 0 154 176" fill="none" xmlns="http://www.w3.org/2000/svg">
<path d="M144.251 145.782C138.305 129.802 101.936 122.17 95.5681 117.539C87.3921 111.593 89.993 91.897 89.993 91.897L76.6151 92.249L63.2361 91.897C63.2361 91.897 65.836 111.597 57.662 117.539C51.293 122.17 14.9251 129.802 8.97906 145.782C5.36238 155.552 2.62613 165.625 0.80304 175.882H152.426C150.604 165.625 147.868 155.552 144.251 145.782V145.782Z" fill="#F19C7C"/>
<path d="M60.7581 113.869C67.0201 113.229 73.316 111.959 78.769 108.909C82.6677 106.713 86.3147 104.097 89.6451 101.109C89.5277 98.0349 89.644 94.9564 89.993 91.9L76.6151 92.252L63.2361 91.9C63.2361 91.9 65.0881 105.915 60.7581 113.869Z" fill="#D88971"/>
<path d="M145.3 145.561C139.508 129.995 105.066 122.293 97.0001 117.583C90.1349 121.497 82.3583 123.529 74.4561 123.474C67.5432 123.508 60.7135 121.965 54.4871 118.962C43.1771 123.777 14.2971 131.427 9.03809 145.562C5.39449 155.404 2.63816 165.552 0.802063 175.885H153.541C151.703 165.552 148.945 155.403 145.3 145.561V145.561Z" fill="#5D8584"/>
<path d="M54.488 118.962C54.488 118.962 59.3601 115.801 60.4711 110.913L92.6931 109.357C92.6931 109.357 93.8041 115.801 98.2491 118.246C98.2491 118.246 74.728 131.679 54.488 118.962Z" fill="#7BADAA"/>
<path d="M54.1501 61.191C51.9901 54.491 46.8731 56.04 46.3941 56.202C45.8941 56.261 40.6031 57.046 41.5171 64.029C42.4361 71.054 46.5121 74.862 50.3341 73.743C54.2681 73.12 56.3241 67.935 54.1501 61.191Z" fill="#D88971"/>
<path d="M98.4091 61.191C100.57 54.491 105.686 56.04 106.165 56.202C106.665 56.261 111.956 57.046 111.043 64.029C110.123 71.054 106.043 74.862 102.225 73.743C98.292 73.12 96.2351 67.935 98.4091 61.191Z" fill="#D88971"/>
<path d="M102.87 50.646C100.192 21.259 77.8511 22.905 75.7441 23.126C73.6371 22.905 51.296 21.259 48.618 50.646C45.925 80.209 59.0921 99.516 75.7441 98.454C92.4001 99.516 105.564 80.209 102.87 50.646Z" fill="#F19C7C"/>
<path d="M78.9371 60.68L80.6011 72.321L77.2271 75.521" stroke="#B26E59" stroke-width="1.115" stroke-miterlimit="10"/>
<path d="M62.808 79.842L89.321 79.565C89.321 79.565 78.719 90 62.808 79.842Z" fill="white"/>
<path d="M69.6071 85.167C75.2871 87.857 81.6981 87.646 86.7441 83.219" stroke="#B26E59" stroke-width="1.115" stroke-miterlimit="10"/>
<path d="M61.8441 61.123C61.8441 63.336 62.6661 65.131 63.6791 65.131C64.6921 65.131 65.514 63.336 65.514 61.123C65.514 58.91 64.6931 57.115 63.6791 57.115C62.6651 57.115 61.8441 58.909 61.8441 61.123Z" fill="#352C38"/>
<path d="M87.058 61.123C87.058 63.336 87.8801 65.131 88.8931 65.131C89.9061 65.131 90.7281 63.336 90.7281 61.123C90.7281 58.91 89.9071 57.115 88.8931 57.115C87.8791 57.115 87.058 58.909 87.058 61.123Z" fill="#352C38"/>
<path d="M57.3401 54.565C57.3401 54.565 63.7321 46.752 70.1251 54.032" stroke="#352C38" stroke-width="2.131" stroke-miterlimit="10"/>
<path d="M82.7321 54.565C82.7321 54.565 89.1241 46.752 95.5161 54.032" stroke="#352C38" stroke-width="2.131" stroke-miterlimit="10"/>
<path d="M103.027 66.8C110.693 47.8 107.36 25.134 107.36 25.134C108.902 19.4222 108.67 13.3764 106.693 7.79998C106.693 13.467 101.693 20.467 101.693 20.467C106.027 13.8 102.36 0.46698 102.36 0.46698C99.693 5.46698 88.027 14.134 88.027 14.134L93.693 5.79998C80.36 5.13398 72.027 11.8 72.027 11.8L78.36 4.79998C60.36 6.46698 53.027 18.8 53.027 18.8C34.693 26.467 48.693 68.134 48.693 68.134H50.693V52.8C50.693 52.8 57.36 49.467 57.027 32.467C69.0404 35.6604 81.6796 35.6604 93.693 32.467C93.693 32.467 91.36 49.8 101.027 51.467L100.693 67.134L103.027 66.8Z" fill="#FDDEC0"/>
<path opacity="0.1" d="M73.062 34.792C69.4091 33.2461 65.9181 31.3425 62.64 29.109C58.5746 26.2939 55.5063 22.2625 53.876 17.594C53.309 18.339 53.027 18.801 53.027 18.801C34.693 26.468 48.693 68.135 48.693 68.135H50.693V52.8C50.693 52.8 57.36 49.467 57.027 32.467C62.2531 33.9126 67.6406 34.6938 73.062 34.792V34.792Z" fill="#352C38"/>
</svg>
