<svg width="145" height="153" viewBox="0 0 145 153" fill="none" xmlns="http://www.w3.org/2000/svg">
<path d="M120.338 114.085C115.444 101.785 112.463 88.8077 111.497 75.605L108.477 34.337C107.804 25.1372 103.674 16.5328 96.9177 10.2527C90.1612 3.97258 81.2784 0.481902 72.054 0.481995C62.7481 0.482004 53.7932 4.03455 47.0182 10.4141C40.2432 16.7936 36.1591 25.5189 35.6 34.808L33.347 72.242C32.4772 86.6898 29.1948 100.89 23.636 114.254L22.667 116.585H37.667C42.617 102.648 45.1469 87.967 45.147 73.177V40.649C50.405 40.202 59.385 37.249 62.564 33.041C63.4953 35.0612 64.9365 36.8041 66.7458 38.0983C68.5551 39.3925 70.6702 40.1933 72.883 40.422C72.1327 39.647 71.5581 38.7195 71.1982 37.7027C70.8382 36.6859 70.7014 35.6034 70.797 34.529C73.9323 38.0398 78.1834 40.3608 82.832 41.1C87.445 41.981 95.147 41.952 99.84 41.765V77.917C99.8415 89.6028 101.422 101.235 104.54 112.497L105.671 116.585H121.337L120.338 114.085Z" fill="#3C3247"/>
<path d="M104.163 36.815H39.667V111.105H104.163V36.815Z" fill="#3C3247"/>
<path d="M83.962 84.649C80.988 88.737 77.099 91.004 73.062 91.004H71.921C67.886 91.004 63.997 88.737 61.021 84.649L60.23 83.562V94.354L57.277 95.526L58.493 97.269C60.0655 99.5234 62.1592 101.365 64.5961 102.636C67.033 103.907 69.7409 104.571 72.4895 104.571C75.2381 104.571 77.946 103.907 80.3829 102.636C82.8198 101.365 84.9135 99.5234 86.486 97.269L87.703 95.526L84.749 94.354V83.562L83.962 84.649Z" fill="#F0BF9C"/>
<path d="M71.923 91H73.064C77.099 91 80.988 88.733 83.964 84.645L84.755 83.558V69.248H60.234V83.558L61.025 84.645C64 88.737 67.888 91 71.923 91Z" fill="#3C3247"/>
<path d="M140 132.745C138.622 127.103 135.913 121.873 132.099 117.493C128.285 113.113 123.478 109.711 118.079 107.57L87.708 95.526L86.491 97.269C84.9185 99.5234 82.8248 101.365 80.3879 102.636C77.951 103.907 75.2431 104.571 72.4945 104.571C69.7459 104.571 67.038 103.907 64.6011 102.636C62.1642 101.365 60.0704 99.5234 58.498 97.269L57.282 95.526L26.909 107.57C21.5103 109.711 16.7029 113.113 12.8892 117.493C9.07551 121.873 6.36654 127.103 4.98901 132.745L0.251007 152.145H144.737L140 132.745Z" fill="#F0BF9C"/>
<path d="M111.294 133.143C109.487 127.123 109.793 120.665 112.161 114.843L115.431 106.803C115.504 106.633 115.542 106.451 115.543 106.266C115.544 106.081 115.508 105.898 115.438 105.728C115.367 105.557 115.263 105.402 115.132 105.272C115.001 105.142 114.845 105.039 114.674 104.97C114.502 104.901 114.319 104.867 114.135 104.87C113.95 104.872 113.768 104.912 113.598 104.986C113.429 105.06 113.276 105.167 113.149 105.301C113.022 105.434 112.923 105.592 112.857 105.765L109.325 114.594C107.264 119.745 103.749 124.185 99.209 127.374L72 146.482L44.79 127.369C40.2502 124.18 36.7358 119.74 34.675 114.589L31.143 105.76C31.0775 105.587 30.9781 105.429 30.8508 105.296C30.7235 105.162 30.5708 105.055 30.4016 104.981C30.2324 104.907 30.0501 104.867 29.8655 104.865C29.6808 104.862 29.4975 104.896 29.3262 104.965C29.155 105.034 28.9992 105.137 28.868 105.267C28.7369 105.397 28.633 105.552 28.5625 105.722C28.492 105.893 28.4563 106.076 28.4574 106.261C28.4585 106.446 28.4964 106.628 28.569 106.798L31.839 114.838C34.2069 120.661 34.5128 127.118 32.706 133.138L27 152.149H117L111.294 133.143Z" fill="#CC6164"/>
<path d="M82.832 41.1C78.1834 40.3609 73.9323 38.0398 70.797 34.529C70.7014 35.6035 70.8382 36.6859 71.1982 37.7027C71.5581 38.7196 72.1327 39.647 72.883 40.422C70.6702 40.1934 68.5551 39.3925 66.7458 38.0984C64.9365 36.8042 63.4953 35.0612 62.564 33.041C59.385 37.253 50.405 40.202 45.147 40.649V52.087C45.147 57.1048 46.1904 62.0678 48.2109 66.6608C50.2315 71.2538 53.185 75.3765 56.884 78.767L58.023 79.811C61.7761 83.2515 66.6826 85.16 71.774 85.16H73.214C78.3053 85.1596 83.2117 83.2511 86.965 79.811L88.104 78.767C91.8024 75.3761 94.7555 71.2533 96.7759 66.6604C98.7962 62.0675 99.8397 57.1047 99.84 52.087V41.765C95.147 41.952 87.445 41.981 82.832 41.1Z" fill="#F0BF9C"/>
<path d="M62.755 45.6301C62.7552 46.121 62.6098 46.6011 62.3371 47.0094C62.0645 47.4177 61.6769 47.736 61.2233 47.924C60.7697 48.1119 60.2706 48.1612 59.789 48.0654C59.3075 47.9697 58.8652 47.7333 58.518 47.3861C58.1708 47.0389 57.9344 46.5966 57.8387 46.115C57.7429 45.6335 57.7922 45.1344 57.9801 44.6808C58.1681 44.2272 58.4864 43.8396 58.8947 43.5669C59.303 43.2943 59.783 43.1489 60.274 43.149C60.932 43.149 61.563 43.4105 62.0283 43.8757C62.4936 44.341 62.755 44.9721 62.755 45.6301V45.6301Z" fill="#3C3247"/>
<path d="M82.233 45.6301C82.233 46.1208 82.3785 46.6004 82.6511 47.0084C82.9237 47.4164 83.3112 47.7344 83.7646 47.9222C84.2179 48.11 84.7168 48.1591 85.198 48.0634C85.6793 47.9677 86.1213 47.7314 86.4683 47.3844C86.8153 47.0374 87.0516 46.5953 87.1473 46.1141C87.2431 45.6328 87.1939 45.134 87.0061 44.6806C86.8184 44.2273 86.5004 43.8398 86.0924 43.5672C85.6844 43.2946 85.2047 43.149 84.714 43.149C84.056 43.149 83.4249 43.4105 82.9597 43.8757C82.4944 44.341 82.233 44.9721 82.233 45.6301V45.6301Z" fill="#3C3247"/>
<path d="M76.88 58.3791C73.9516 58.0646 70.9922 58.2056 68.107 58.7971C68.6119 59.5355 69.2748 60.1525 70.0475 60.6032C70.8203 61.0539 71.6836 61.3272 72.575 61.4031C74.264 61.4081 75.9 59.7571 76.88 58.3791Z" fill="#EBA588"/>
<path d="M65.993 49C62.1704 47.9758 58.1245 48.1603 54.411 49.528C58.2336 50.5522 62.2795 50.3678 65.993 49Z" fill="#EBA588"/>
<path d="M78.994 49C82.8166 47.9758 86.8625 48.1603 90.576 49.528C86.7534 50.5522 82.7075 50.3678 78.994 49Z" fill="#EBA588"/>
<path d="M82.625 63.535C76.1166 65.8762 69.0781 66.3252 62.325 64.83C63.41 66.503 64.373 68.494 65.846 69.837C67.2897 71.2361 69.1506 72.1258 71.146 72.371C73.6052 72.4619 76.0033 71.5926 77.833 69.947C79.707 68.392 82.233 65.816 82.625 63.535Z" fill="white"/>
<path d="M75.878 73.92L68.671 74.273C69.1051 74.8154 69.6553 75.2534 70.2811 75.5549C70.9069 75.8564 71.5923 76.0136 72.287 76.015C73.0013 75.9458 73.6922 75.7226 74.312 75.361C74.9319 74.9993 75.4661 74.5078 75.878 73.92Z" fill="#EBA588"/>
<path d="M102.842 30.35C102.584 26.6599 101.563 23.0636 99.842 19.789C97.8799 15.9833 95.1162 12.6481 91.7412 10.0131C88.3662 7.3782 84.4601 5.50619 80.292 4.52604C76.6977 3.65229 72.9612 3.53446 69.319 4.18003C72.8386 4.63121 76.2946 5.4855 79.619 6.72605C87.0308 9.46786 93.407 14.4459 97.865 20.971C99.8788 23.8958 101.549 27.0429 102.842 30.35V30.35Z" fill="#584D66"/>
<path d="M60.979 9.11304C57.0129 10.8029 53.5898 13.5541 51.0862 17.0638C48.5827 20.5735 47.0957 24.7058 46.789 29.006C49.5063 21.1478 54.4334 14.2405 60.979 9.11304Z" fill="#584D66"/>
<path d="M90.28 32.338C88.8964 27.249 86.4177 22.5236 83.0174 18.4924C79.617 14.4613 75.377 11.2216 70.594 9C78.4462 15.5925 85.1053 23.487 90.28 32.338V32.338Z" fill="#584D66"/>
<path d="M68.9 34.591C66.7389 26.2561 66.0589 17.6063 66.891 9.03601C65.3293 13.1819 64.6998 17.6208 65.047 22.0374C65.3942 26.4541 66.7097 30.7401 68.9 34.591Z" fill="#584D66"/>
</svg>
