<svg width="154" height="178" viewBox="0 0 154 178" fill="none" xmlns="http://www.w3.org/2000/svg">
<path d="M143.8 147.782C137.854 131.802 101.486 124.17 95.118 119.539C86.942 113.593 89.543 93.897 89.543 93.897L76.165 94.249L62.786 93.897C62.786 93.897 65.386 113.597 57.212 119.539C50.843 124.17 14.475 131.802 8.52896 147.782C4.91225 157.552 2.17603 167.625 0.352966 177.882H151.978C150.154 167.625 147.417 157.552 143.8 147.782V147.782Z" fill="#965450"/>
<path d="M60.3099 115.869C66.5719 115.229 72.868 113.959 78.321 110.909C82.2193 108.712 85.8662 106.097 89.1969 103.109C89.0796 100.035 89.1959 96.9564 89.545 93.9L76.1669 94.252L62.7879 93.9C62.7879 93.9 64.6389 107.915 60.3099 115.869Z" fill="#76413B"/>
<path d="M144.857 147.561C139.065 131.995 104.623 124.293 96.557 119.583C89.6918 123.497 81.9152 125.529 74.013 125.474C67.1001 125.508 60.2704 123.965 54.044 120.962C42.734 125.777 13.854 133.427 8.59497 147.562C4.95136 157.404 2.19506 167.552 0.358978 177.885H153.093C151.257 167.552 148.501 157.403 144.857 147.561V147.561Z" fill="#FFA65B"/>
<path d="M53.6999 63.191C51.5389 56.491 46.4229 58.04 45.9439 58.202C45.4439 58.261 40.1529 59.046 41.0669 66.029C41.9859 73.054 46.0619 76.862 49.8839 75.743C53.8189 75.12 55.8759 69.935 53.6999 63.191Z" fill="#76413B"/>
<path d="M97.9609 63.191C100.122 56.491 105.238 58.04 105.717 58.202C106.217 58.261 111.508 59.046 110.594 66.029C109.675 73.054 105.599 76.862 101.777 75.743C97.8439 75.12 95.7869 69.935 97.9609 63.191Z" fill="#76413B"/>
<path d="M102.422 52.646C99.7439 23.259 77.3999 24.9 75.2999 25.126C73.1929 24.905 50.852 23.259 48.174 52.646C45.48 82.209 58.6479 101.516 75.2999 100.454C91.9479 101.516 105.115 82.209 102.422 52.646Z" fill="#965450"/>
<path d="M76.7789 77.517L80.153 74.317L78.489 62.676" stroke="#76413B" stroke-width="1.115" stroke-miterlimit="10"/>
<path d="M61.4 63.123C61.4 65.336 62.222 67.131 63.235 67.131C64.248 67.131 65.07 65.336 65.07 63.123C65.07 60.91 64.248 59.115 63.235 59.115C62.222 59.115 61.4 60.909 61.4 63.123Z" fill="#DBDBDB"/>
<path d="M86.61 63.123C86.61 65.336 87.432 67.131 88.445 67.131C89.458 67.131 90.28 65.336 90.28 63.123C90.28 60.91 89.458 59.115 88.445 59.115C87.432 59.115 86.61 60.909 86.61 63.123Z" fill="#DBDBDB"/>
<path d="M56.892 56.565C56.892 56.565 63.284 48.752 69.677 56.032" stroke="#DBDBDB" stroke-width="2.131" stroke-miterlimit="10"/>
<path d="M82.2839 56.565C82.2839 56.565 88.6759 48.752 95.0679 56.032" stroke="#DBDBDB" stroke-width="2.131" stroke-miterlimit="10"/>
<path d="M64.11 81.8L88.873 81.564C88.873 81.564 78.11 91.551 64.11 81.8Z" fill="white"/>
<path d="M46.6099 35.8C46.6099 35.8 45.1099 72.55 49.3599 89.8C52.5599 102.784 61.8599 106.3 61.8599 106.3C61.8599 106.3 83.8599 114.8 96.1099 101.05C99.6379 97.091 105.11 76.3 102.61 39.05L93.6099 35.3C93.6099 35.3 95.1099 53.55 99.6099 55.8C99.6099 55.8 98.2869 88.416 92.6099 92.3C87.8599 95.55 95.8599 77.3 86.6099 77.55C77.3599 77.8 77.1099 78.05 77.1099 78.05C77.1099 78.05 60.6099 75.3 60.8599 81.8C61.1099 88.3 62.8599 92.55 60.6099 92.55C58.3599 92.55 50.1099 87.3 51.6099 53.05C51.6099 53.05 56.3599 51.3 56.3599 39.3C56.3599 23.52 46.6099 35.8 46.6099 35.8Z" fill="#DBDBDB"/>
<path d="M55.3599 33.8C55.3599 33.8 62.5509 43.55 71.1099 43.55C75.8599 43.55 71.1099 35.3 71.1099 35.3C71.1099 35.3 77.8599 45.8 84.8599 45.55C91.8599 45.3 85.8599 35.3 85.8599 35.3C85.8599 35.3 91.1099 46.05 97.6099 45.55C104.11 45.05 98.6099 34.55 98.6099 34.55C98.6099 34.55 101.61 45.8 107.86 44.3C114.11 42.8 106.36 33.05 106.36 33.05C106.36 33.05 111.61 38.05 113.86 37.8C116.11 37.55 116.11 30.8 108.36 27.55C108.36 27.55 116.11 27.3 116.36 23.55C116.643 19.302 111.61 17.8 100.11 19.05C100.11 19.05 109.61 15.05 107.61 11.55C105.61 8.05001 97.1099 13.05 97.1099 13.05C97.1099 13.05 105.61 8.3 100.61 4.55C96.5099 1.473 75.1099 1.55001 62.1099 17.05C62.1099 17.05 89.1099 2.8 85.8599 0.800004C83.5649 -0.611996 51.2659 6.60501 46.3599 20.3C40.3599 37.05 44.8599 46.55 46.7999 57.956L55.3599 33.8Z" fill="#DBDBDB"/>
</svg>
