<svg width="146" height="157" viewBox="0 0 146 157" fill="none" xmlns="http://www.w3.org/2000/svg">
<path d="M102.765 55.9001L73 47.6801L43.235 55.9001C39.0547 80.8024 37.8566 106.114 39.666 131.3H106.334C108.143 106.114 106.945 80.8024 102.765 55.9001Z" fill="#BF4C5B"/>
<path d="M120.088 69.774L114.588 47.799C113.837 44.7982 113.457 41.7164 113.457 38.623V38.623C113.457 28.596 109.474 18.9796 102.384 11.8894C95.2934 4.79925 85.677 0.81604 75.65 0.81604H70.344C60.3169 0.81604 50.7004 4.79921 43.6101 11.8894C36.5197 18.9795 32.5363 28.5959 32.536 38.623C32.5363 41.7164 32.1568 44.7981 31.406 47.799L25.906 69.774C20.8723 89.8944 18.3269 110.557 18.327 131.297H39.66C37.8506 106.111 39.0487 80.7994 43.229 55.897L73 47.68L102.765 55.896C106.945 80.7984 108.143 106.11 106.334 131.296H127.667C127.667 110.556 125.121 89.8942 120.088 69.774V69.774Z" fill="#E4737B"/>
<path d="M31.762 119.649C32.653 113.243 33.302 104.949 33.944 96.662C34.567 88.37 35.184 80.077 35.274 73.61C30.5988 88.486 29.3973 104.236 31.762 119.649Z" fill="#F993A0"/>
<path d="M26.552 103.647C26.952 100.399 27.239 96.21 27.586 92.024C27.933 87.838 28.31 83.6561 28.446 80.3881C25.8727 87.8592 25.2213 95.858 26.552 103.647V103.647Z" fill="#F993A0"/>
<path d="M116.2 120.585C117.184 106.37 115.134 83.652 111.62 69.843C110.637 84.058 112.688 106.776 116.2 120.585Z" fill="#F993A0"/>
<path d="M120.868 105.9C121.711 98.6067 120.785 91.2177 118.168 84.358C118.393 87.392 118.899 91.268 119.38 95.146C119.861 99.024 120.338 102.9 120.868 105.9Z" fill="#F993A0"/>
<path d="M72.429 95.0001H73.57C77.606 95.0001 81.494 92.733 84.47 88.6451L85.26 87.5581V73.248H60.741V87.5581L61.531 88.6451C64.506 92.7371 68.394 95.0001 72.429 95.0001Z" fill="#3C3247"/>
<path d="M42.589 105.552L27.415 111.57C22.0165 113.711 17.2092 117.114 13.3956 121.494C9.58194 125.874 6.87284 131.103 5.49501 136.745L0.757019 156.145H48.427L44.692 123.77L42.589 105.552Z" fill="#56438C"/>
<path d="M140.505 136.745C139.127 131.103 136.418 125.874 132.604 121.494C128.791 117.114 123.984 113.711 118.585 111.57L103.41 105.552L101.31 123.774L97.575 156.149H145.245L140.505 136.745Z" fill="#56438C"/>
<path d="M44.692 123.774L48.427 156.149H97.573L101.308 123.774H44.692Z" fill="#E8916A"/>
<path d="M101.308 123.774L103.408 105.552L88.208 99.5261L85.254 98.3551V87.5621L84.464 88.649C81.489 92.737 77.601 95.0041 73.564 95.0041H72.423C68.388 95.0041 64.5 92.737 61.523 88.649L60.733 87.5621V98.3551L57.779 99.5261L42.579 105.552L44.679 123.774H101.308Z" fill="#F0BF9C"/>
<path d="M42.589 105.552L36.968 126.333C36.7818 127.021 36.745 127.741 36.8598 128.445C36.9747 129.148 37.2387 129.819 37.634 130.412L40.375 134.524L35.475 143.692C35.1652 144.273 34.9729 144.909 34.9092 145.564C34.8456 146.219 34.9118 146.881 35.104 147.51L37.747 156.149H48.424L42.589 105.552Z" fill="#6C6FC3"/>
<path d="M103.41 105.552L109.032 126.333C109.218 127.021 109.255 127.741 109.14 128.445C109.025 129.148 108.761 129.819 108.366 130.412L105.625 134.524L110.525 143.692C110.835 144.273 111.027 144.909 111.091 145.564C111.154 146.219 111.088 146.881 110.895 147.51L108.253 156.149H97.573L103.41 105.552Z" fill="#6C6FC3"/>
<g opacity="0.3">
<path opacity="0.3" d="M92.06 128.014C78.3047 130.219 64.2383 129.488 50.786 125.867C53.641 127.607 56.7056 128.976 59.906 129.942C67.2487 132.186 75.0302 132.591 82.566 131.121C85.8495 130.492 89.0397 129.448 92.06 128.014V128.014Z" fill="#3C3247"/>
</g>
<g opacity="0.3">
<path opacity="0.3" d="M87.844 132.674C79.9062 134.718 71.664 135.308 63.516 134.416C67.4459 135.951 71.6683 136.591 75.8765 136.29C80.0847 135.988 84.1729 134.753 87.844 132.674Z" fill="#3C3247"/>
</g>
<g opacity="0.3">
<path opacity="0.3" d="M26.683 154.157C26.7897 143.253 24.4543 132.463 19.848 122.579C20.504 127.056 21.705 132.752 22.93 138.441C24.155 144.13 25.429 149.809 26.683 154.157Z" fill="#3C3247"/>
</g>
<g opacity="0.3">
<path opacity="0.3" d="M119.316 154.157C120.57 149.809 121.832 144.127 123.07 138.441C124.308 132.755 125.496 127.056 126.152 122.579C121.546 132.463 119.21 143.253 119.316 154.157V154.157Z" fill="#3C3247"/>
</g>
<path d="M41.515 67.582C46.4723 67.582 50.491 63.5633 50.491 58.606C50.491 53.6487 46.4723 49.63 41.515 49.63C36.5577 49.63 32.539 53.6487 32.539 58.606C32.539 63.5633 36.5577 67.582 41.515 67.582Z" fill="#EBA588"/>
<path d="M41.515 63.678C44.3168 63.678 46.588 61.4067 46.588 58.605C46.588 55.8032 44.3168 53.532 41.515 53.532C38.7133 53.532 36.442 55.8032 36.442 58.605C36.442 61.4067 38.7133 63.678 41.515 63.678Z" fill="#E78882"/>
<path d="M104.485 67.582C109.442 67.582 113.461 63.5633 113.461 58.606C113.461 53.6487 109.442 49.63 104.485 49.63C99.5277 49.63 95.509 53.6487 95.509 58.606C95.509 63.5633 99.5277 67.582 104.485 67.582Z" fill="#EBA588"/>
<path d="M104.484 63.678C107.286 63.678 109.557 61.4067 109.557 58.605C109.557 55.8032 107.286 53.532 104.484 53.532C101.682 53.532 99.411 55.8032 99.411 58.605C99.411 61.4067 101.682 63.678 104.484 63.678Z" fill="#E78882"/>
<path d="M63.306 28.3C58.8771 35.7896 52.8494 42.2091 45.653 47.1001V56.0881C45.653 61.1059 46.6964 66.0688 48.7169 70.6618C50.7375 75.2548 53.691 79.3775 57.39 82.7681L58.529 83.8121C62.2823 87.2523 67.1886 89.1609 72.28 89.1611H73.72C78.8114 89.1609 83.7178 87.2523 87.471 83.8121L88.61 82.7681C92.3086 79.3772 95.2619 75.2545 97.2824 70.6616C99.3029 66.0686 100.347 61.1058 100.347 56.0881V47.6801C85.995 47.5581 71.253 40.135 63.306 28.3Z" fill="#F0BF9C"/>
<path d="M63.261 49.6301C63.261 50.1208 63.1155 50.6004 62.8429 51.0084C62.5703 51.4164 62.1828 51.7344 61.7294 51.9222C61.2761 52.11 60.7773 52.1591 60.296 52.0634C59.8147 51.9677 59.3727 51.7314 59.0257 51.3844C58.6787 51.0374 58.4424 50.5953 58.3467 50.1141C58.251 49.6328 58.3001 49.134 58.4879 48.6806C58.6757 48.2273 58.9936 47.8398 59.4016 47.5672C59.8096 47.2946 60.2893 47.149 60.78 47.149C61.438 47.149 62.0691 47.4105 62.5344 47.8757C62.9996 48.341 63.261 48.9721 63.261 49.6301V49.6301Z" fill="#3C3247"/>
<path d="M82.739 49.6301C82.739 50.1208 82.8845 50.6004 83.1572 51.0084C83.4298 51.4164 83.8172 51.7344 84.2706 51.9222C84.7239 52.11 85.2228 52.1591 85.704 52.0634C86.1853 51.9677 86.6274 51.7314 86.9743 51.3844C87.3213 51.0374 87.5576 50.5953 87.6533 50.1141C87.7491 49.6328 87.6999 49.134 87.5122 48.6806C87.3244 48.2273 87.0064 47.8398 86.5984 47.5672C86.1904 47.2946 85.7107 47.149 85.22 47.149C84.562 47.149 83.931 47.4105 83.4657 47.8757C83.0004 48.341 82.739 48.9721 82.739 49.6301V49.6301Z" fill="#3C3247"/>
<path d="M60.337 39.9411C58.9683 40.0181 57.636 40.4112 56.4448 41.0896C55.2535 41.768 54.2356 42.7132 53.471 43.8511L67.6 43.051C66.7118 42.0069 65.5939 41.1827 64.3337 40.6432C63.0736 40.1036 61.7056 39.8633 60.337 39.9411V39.9411Z" fill="#E4737B"/>
<path d="M77.126 61.9611C74.406 61.4352 71.6177 61.3629 68.874 61.7471C69.4229 62.5402 70.067 63.2629 70.792 63.8991C71.5904 64.5173 72.5835 64.8298 73.592 64.7801C75.056 64.6421 76.1 63.0121 77.126 61.9611Z" fill="#EBA588"/>
<path d="M82.87 67.889C79.9153 69.2596 76.7021 69.9839 73.4451 70.0135C70.1881 70.0432 66.9622 69.3775 63.983 68.061C64.7272 70.2609 65.9679 72.2599 67.609 73.903C69.2441 75.4463 71.4179 76.289 73.666 76.251C75.8276 76.0703 77.8543 75.1259 79.383 73.587C80.939 72.106 81.881 69.8 82.87 67.889Z" fill="white"/>
<path d="M76.625 79.8761C75.6285 79.0254 74.3763 78.5323 73.0674 78.475C71.7585 78.4178 70.468 78.7997 69.401 79.5601C71.66 79.7001 74.366 79.7381 76.625 79.8761Z" fill="#EBA588"/>
<path d="M63.306 28.3001C71.253 40.1361 85.995 47.5591 100.347 47.6811V40.1001C100.346 32.8479 97.4643 25.8931 92.3359 20.7654C87.2074 15.6377 80.2522 12.7571 73 12.7571C65.7478 12.7571 58.7926 15.6377 53.6642 20.7654C48.5357 25.8931 45.6541 32.8479 45.653 40.1001V47.1001C52.8494 42.2091 58.8771 35.7897 63.306 28.3001V28.3001Z" fill="#E4737B"/>
<path d="M39.932 38.1891C42.374 37.6687 44.7305 36.8069 46.932 35.6291C52.0091 32.9375 56.2507 28.9049 59.195 23.9701C60.4815 21.8311 61.4607 19.5218 62.104 17.11C56.7185 25.9817 49.0659 33.2577 39.934 38.1891H39.932Z" fill="#F993A0"/>
<path d="M39.333 26.2301C43.9122 26.0286 48.3684 24.6852 52.296 22.3222C56.2236 19.9591 59.4979 16.6514 61.821 12.7001C55.4936 18.9152 47.7888 23.5494 39.333 26.2261V26.2301Z" fill="#F993A0"/>
<path d="M102.878 37.9451C99.2678 37.6171 95.6982 36.9375 92.22 35.916C84.4668 33.6518 77.4653 29.3441 71.949 23.4441C69.4692 20.7995 67.2533 17.9191 65.333 14.8441C66.2822 18.483 67.9149 21.9082 70.144 24.9371C75.2953 32.0319 83.0449 36.8 91.7 38.2001C95.4085 38.8238 99.2018 38.7373 102.878 37.9451Z" fill="#F993A0"/>
<path d="M96.747 23.3831C94.1307 23.4559 91.5129 23.3024 88.923 22.9241C83.1476 22.0853 77.662 19.8575 72.937 16.4321C70.8168 14.8969 68.8331 13.1815 67.008 11.3051C68.23 13.7213 69.8742 15.8996 71.863 17.7371C76.4636 22.0336 82.4884 24.4804 88.782 24.6081C91.4888 24.678 94.1863 24.2632 96.747 23.3831V23.3831Z" fill="#F993A0"/>
<path d="M44.659 77.3421C44.659 83.8691 43.732 84.9821 42.589 84.9821C41.446 84.9821 40.52 83.8691 40.52 77.3421C40.52 70.8151 41.447 65.524 42.589 65.524C43.731 65.524 44.659 70.8151 44.659 77.3421Z" fill="#F4D071"/>
<path d="M101.341 77.3421C101.341 83.8691 102.268 84.9821 103.41 84.9821C104.552 84.9821 105.48 83.8691 105.48 77.3421C105.48 70.8151 104.553 65.524 103.41 65.524C102.267 65.524 101.341 70.8151 101.341 77.3421Z" fill="#F4D071"/>
</svg>
