<svg width="154" height="167" viewBox="0 0 154 167" fill="none" xmlns="http://www.w3.org/2000/svg">
<path d="M72.51 10.667C72.51 10.667 85.353 4.928 95.471 10.285C105.589 15.642 112.205 37.066 121.545 45.485C130.885 53.904 138.145 63.905 132.693 73.47C127.241 83.035 121.935 82.213 127.383 95.603C132.831 108.993 110.023 112.19 114.693 122.137C114.693 122.137 102.865 100.194 106.368 81.065C109.871 61.936 100.141 16.408 84.574 17.938L70.564 17.173L72.51 10.667Z" fill="#965450"/>
<path d="M76.791 5.31097C76.791 5.31097 83.152 -4.72703 96.691 4.30297C103.341 8.73797 106.177 19.535 118.429 25.588C131.88 32.233 134.199 38.463 128.601 48.16C125.138 54.16 135.813 52.985 130.537 67.897C126.414 79.55 90.798 16.023 90.798 16.023L76.01 14.11L76.791 5.31097Z" fill="#965450"/>
<path d="M118.185 49.8C118.185 49.8 128.695 58.282 125.401 68.306C122.107 78.33 112.695 82.031 119.283 96.065C125.871 110.099 113.165 113.645 113.165 113.645C113.165 113.645 82.4189 111.487 86.1839 78.945C89.9489 46.403 105.875 45.423 105.875 45.423L118.185 49.8Z" fill="#824846"/>
<path d="M118.185 49.8C118.185 49.8 128.695 58.282 125.401 68.306C122.107 78.33 112.695 82.031 119.283 96.065C125.871 110.099 113.165 113.645 113.165 113.645C113.165 113.645 82.4189 111.487 86.1839 78.945C89.9489 46.403 105.875 45.423 105.875 45.423L118.185 49.8Z" fill="#824846"/>
<path d="M39.808 25.71C39.808 25.71 28.082 37.067 28.859 48.04C29.636 59.013 26.213 67.275 20.546 72.188C14.879 77.101 15.123 87.61 20.57 93.74C18.7974 88.844 18.9533 83.4572 21.006 78.672C21.006 78.672 16.006 107.096 44.82 110.572C44.82 110.572 43.788 110.143 40.693 101.841C40.693 101.841 42.256 109.751 59.893 111.007C77.53 112.263 86.373 88.579 78.051 63.107C69.729 37.635 53.2 30.775 53.2 30.775L39.808 25.71Z" fill="#824846"/>
<path d="M144.345 136.272C138.399 120.292 102.03 112.66 95.662 108.028C87.486 102.082 90.088 82.386 90.088 82.386L76.709 82.738L63.331 82.386C63.331 82.386 65.931 102.086 57.756 108.028C51.388 112.66 15.019 120.292 9.073 136.272C5.45634 146.042 2.72046 156.115 0.89801 166.372H152.521C150.698 156.115 147.962 146.042 144.345 136.272V136.272Z" fill="#FDDEC0"/>
<path d="M60.852 104.358C67.115 103.718 73.41 102.449 78.863 99.399C82.7617 97.203 86.4087 94.5875 89.739 91.599C89.6216 88.5246 89.7383 85.4457 90.088 82.389L76.709 82.741L63.331 82.389C63.331 82.389 65.182 96.4 60.852 104.358Z" fill="#E2C6AF"/>
<path d="M145.4 136.05C139.608 120.485 105.165 112.782 97.1 108.072C90.2347 111.985 82.4581 114.017 74.556 113.963C67.6432 113.998 60.8136 112.455 54.587 109.452C43.276 114.266 14.397 121.916 9.13699 136.052C5.4941 145.894 2.73816 156.042 0.902008 166.375H153.636C151.799 156.042 149.043 145.893 145.4 136.05V136.05Z" fill="#6F96BD"/>
<path d="M54.245 51.681C52.084 44.981 46.967 46.53 46.488 46.691C45.988 46.75 40.697 47.535 41.611 54.519C42.53 61.544 46.606 65.351 50.429 64.233C54.362 63.609 56.418 58.424 54.245 51.681Z" fill="#E2C6AF"/>
<path d="M98.5 51.681C100.661 44.981 105.778 46.53 106.257 46.691C106.757 46.75 112.048 47.535 111.134 54.519C110.215 61.544 106.139 65.351 102.316 64.233C98.386 63.609 96.33 58.424 98.5 51.681Z" fill="#E2C6AF"/>
<path d="M102.964 41.136C100.287 11.748 77.945 13.394 75.838 13.616C73.731 13.394 51.39 11.748 48.713 41.136C46.019 70.698 59.186 90.005 75.838 88.943C92.49 90.005 105.658 70.7 102.964 41.136Z" fill="#FDDEC0"/>
<path d="M79.031 51.169L80.695 62.81L77.321 66.01" stroke="#E2C6AF" stroke-width="2" stroke-miterlimit="10"/>
<path d="M62.9 70.332L89.413 70.054C89.413 70.054 78.813 80.488 62.9 70.332Z" fill="white"/>
<path d="M69.7 75.657C75.379 78.346 81.79 78.136 86.837 73.708" stroke="#E2C6AF" stroke-miterlimit="10"/>
<path d="M61.939 51.612C61.939 53.826 62.76 55.62 63.774 55.62C64.788 55.62 65.608 53.826 65.608 51.612C65.608 49.398 64.787 47.604 63.774 47.604C62.761 47.604 61.939 49.4 61.939 51.612Z" fill="#352C38"/>
<path d="M87.153 51.612C87.153 53.826 87.9739 55.62 88.9879 55.62C90.0019 55.62 90.8219 53.826 90.8219 51.612C90.8219 49.398 89.9999 47.6 88.9879 47.6C87.9759 47.6 87.153 49.4 87.153 51.612Z" fill="#352C38"/>
<path d="M57.435 45.054C57.435 45.054 63.827 37.242 70.219 44.522" stroke="#352C38" stroke-width="2.131" stroke-miterlimit="10"/>
<path d="M82.826 45.054C82.826 45.054 89.218 37.242 95.611 44.522" stroke="#352C38" stroke-width="2.131" stroke-miterlimit="10"/>
<path d="M76.859 21.969C76.859 21.969 66.237 16.8549 61.123 29.0499C56.009 41.2449 57.104 58.507 43.38 64.669C27.839 71.646 33.58 88.061 33.58 88.061C33.58 88.061 23.352 79.799 26.499 71.931C29.646 64.063 44.599 53.441 47.743 38.492C50.887 23.543 67.024 9.37995 76.859 21.969Z" fill="#DFCDCC"/>
<path d="M77.193 20.968C77.193 20.968 66.049 17.6 61.618 29.518C57.187 41.436 59.234 57.818 45.873 64.488C30.745 72.037 37.388 87.346 37.388 87.346" stroke="#DFCDCC" stroke-width="2.535" stroke-miterlimit="10"/>
<path d="M77.632 5.19999L76.859 21.966C76.859 21.966 56.402 12.131 48.927 51.866C48.927 51.866 17.36 83.299 24.86 67.799C32.36 52.299 16.668 45.178 29.65 34.163C42.632 23.148 43.813 23.147 51.288 13.706C58.763 4.26497 67.8 -3.84501 77.632 5.19999Z" fill="#DFCDCC"/>
<path d="M76.859 21.9689C76.859 21.9689 87.819 15.8929 91.359 27.3009C94.899 38.7089 101.997 45.2009 103.859 55.9679C106.192 69.4679 86.536 89.1809 89.683 100.983C92.83 112.785 105.065 109.07 105.065 109.07C105.065 109.07 93.818 106.47 95.392 98.604C96.966 90.738 124.646 71.3039 123.859 61.4679C123.072 51.6319 121.626 56.1109 117.692 38.8009C113.758 21.4909 95.011 6.36095 76.521 12.6559C66.036 3.21795 76.859 21.9689 76.859 21.9689Z" fill="#DFCDCC"/>
<path d="M76.657 21.64C76.657 21.64 86 18.019 89.291 23.616C92.582 29.213 91.055 33.541 98.457 43.146C105.859 52.751 100.074 64.682 97.196 70.402C96.3546 72.0449 95.9083 73.8616 95.8927 75.7073C95.877 77.5531 96.2925 79.3771 97.106 81.034" stroke="#DFCDCC" stroke-width="1.176" stroke-miterlimit="10"/>
<path d="M98.36 37.635C98.36 37.635 104.027 51.8009 101.86 61.9679C101.86 61.9679 105.86 52.4679 104.693 43.8009C103.526 35.1339 98.36 37.635 98.36 37.635Z" fill="#824846"/>
</svg>
