<svg width="165" height="201" viewBox="0 0 165 201" fill="none" xmlns="http://www.w3.org/2000/svg">
<path d="M148.811 170.272C142.865 154.292 106.497 146.66 100.128 142.028C91.952 136.082 94.554 116.386 94.554 116.386L81.175 116.738L67.797 116.386C67.797 116.386 70.397 136.086 62.222 142.028C55.854 146.66 19.485 154.292 13.539 170.272C9.92235 180.042 7.18646 190.115 5.36401 200.372H156.987C155.164 190.115 152.428 180.042 148.811 170.272Z" fill="#965450"/>
<path d="M65.318 138.358C71.581 137.718 77.876 136.449 83.329 133.399C87.2277 131.203 90.8746 128.587 94.205 125.599C94.0876 122.525 94.2043 119.446 94.554 116.389L81.175 116.741L67.797 116.389C67.797 116.389 69.648 130.4 65.318 138.358Z" fill="#76413B"/>
<path d="M149.866 170.05C147.689 164.2 141.466 159.46 134.113 155.573C120.984 164.533 102.38 170.135 81.733 170.135C61.086 170.135 42.484 164.535 29.355 155.575C22.005 159.462 15.777 164.199 13.6 170.05C9.95654 179.892 7.20023 190.04 5.36401 200.373H158.1C156.264 190.04 153.508 179.892 149.866 170.05V170.05Z" fill="#5D8584"/>
<path d="M7.35999 164.469H154.693" stroke="white" stroke-width="0.885" stroke-miterlimit="10"/>
<path d="M7.35999 195.135H158.693" stroke="white" stroke-width="0.885" stroke-miterlimit="10"/>
<path d="M0.692993 180.267H164.026" stroke="white" stroke-width="0.885" stroke-miterlimit="10"/>
<path d="M58.711 85.681C56.55 78.981 51.434 80.53 50.954 80.691C50.454 80.75 45.164 81.535 46.077 88.519C46.996 95.544 51.072 99.351 54.895 98.233C58.828 97.609 60.884 92.424 58.711 85.681Z" fill="#76413B"/>
<path d="M102.969 85.681C105.13 78.981 110.247 80.53 110.726 80.691C111.226 80.75 116.517 81.535 115.603 88.519C114.684 95.544 110.608 99.351 106.785 98.233C102.852 97.609 100.8 92.424 102.969 85.681Z" fill="#76413B"/>
<path d="M107.43 75.136C104.753 45.748 82.411 47.394 80.304 47.616C78.197 47.394 55.856 45.748 53.179 75.136C50.485 104.698 63.653 124.005 80.304 122.943C96.956 124.005 110.124 104.7 107.43 75.136Z" fill="#965450"/>
<path d="M83.5 85.169L85.164 96.81L81.79 100.01" stroke="#76413B" stroke-width="1.115" stroke-miterlimit="10"/>
<path d="M67.369 104.332L93.882 104.054C93.882 104.054 83.279 114.488 67.369 104.332Z" fill="white"/>
<path d="M74.168 109.657C79.847 112.346 86.258 112.136 91.305 107.708" stroke="#76413B" stroke-width="1.115" stroke-miterlimit="10"/>
<path d="M66.4 85.612C66.4 87.826 67.221 89.62 68.235 89.62C69.249 89.62 70.07 87.826 70.07 85.612C70.07 83.398 69.248 81.604 68.235 81.604C67.222 81.604 66.4 83.4 66.4 85.612Z" fill="#352C38"/>
<path d="M91.619 85.612C91.619 87.826 92.44 89.62 93.454 89.62C94.468 89.62 95.288 87.826 95.288 85.612C95.288 83.398 94.467 81.604 93.454 81.604C92.441 81.604 91.619 83.4 91.619 85.612Z" fill="#352C38"/>
<path d="M61.9 79.054C61.9 79.054 68.292 71.242 74.684 78.522" stroke="#352C38" stroke-width="2.131" stroke-miterlimit="10"/>
<path d="M87.292 79.054C87.292 79.054 93.684 71.242 100.077 78.522" stroke="#352C38" stroke-width="2.131" stroke-miterlimit="10"/>
<path d="M67.365 42.267C67.365 42.267 51.04 36.667 53.838 29.206C56.636 21.745 69.231 32.006 69.231 32.006C69.231 32.006 48.241 13.815 58.503 8.68397C68.765 3.55297 80.426 28.741 80.426 28.741C80.426 28.741 59.902 3.55296 78.56 0.287958C97.218 -2.97704 83.691 33.872 83.691 33.872C83.691 33.872 90.221 7.75096 100.95 11.482C115.171 16.429 89.289 37.137 89.289 37.137C89.289 37.137 105.148 23.61 108.413 26.409C111.678 29.208 103.882 36.266 95.352 42.268C82.758 51.13 82.758 50.663 67.365 42.267Z" fill="#A9A9A9"/>
<path d="M80.36 53.301C87.5397 53.301 93.36 49.4954 93.36 44.801C93.36 40.1065 87.5397 36.301 80.36 36.301C73.1803 36.301 67.36 40.1065 67.36 44.801C67.36 49.4954 73.1803 53.301 80.36 53.301Z" fill="#FFA65B"/>
<path d="M79.739 56.7C79.739 56.7 79.86 68.8 55.36 75.8C55.36 75.8 56.86 94.3 53.36 93.3C49.86 92.3 34.083 40.016 80.123 41.63L79.739 56.7Z" fill="#A9A9A9"/>
<path d="M79.739 56.7C79.739 56.7 80.139 68.8 104.639 75.8C104.639 75.8 103.139 94.3 106.639 93.3C110.139 92.3 125.466 40.862 80.118 41.63L79.739 56.7Z" fill="#A9A9A9"/>
<path d="M87.273 67.643C79.688 58.612 78.611 52.458 81.756 42.456C81.4453 42.4074 81.1389 42.3339 80.84 42.236C77.452 50.592 74.74 64.589 89.086 73.258C89.086 73.258 96.511 78.642 87.273 67.643Z" fill="#A9A9A9"/>
<path d="M80.86 66.8C77.229 57.858 77.941 52.794 82.909 45.8C82.6796 45.684 82.4596 45.5503 82.251 45.4C77.508 51.052 71.871 61.268 80.857 71.632C80.857 71.63 85.282 77.693 80.86 66.8Z" fill="#A9A9A9"/>
</svg>
