<svg width="154" height="164" viewBox="0 0 154 164" fill="none" xmlns="http://www.w3.org/2000/svg">
<path d="M143.879 133.272C137.933 117.292 101.564 109.66 95.196 105.028C87.02 99.082 89.6221 79.386 89.6221 79.386L76.243 79.738L62.8651 79.386C62.8651 79.386 65.465 99.086 57.29 105.028C50.922 109.66 14.5531 117.292 8.60706 133.272C4.9904 143.042 2.25452 153.115 0.432068 163.372H152.055C150.232 153.115 147.496 143.042 143.879 133.272V133.272Z" fill="#FFAC9D"/>
<path d="M60.386 101.358C66.649 100.718 72.944 99.449 78.397 96.399C82.2957 94.203 85.9427 91.5875 89.2731 88.599C89.1557 85.5246 89.2724 82.4457 89.6221 79.389L76.243 79.741L62.8651 79.389C62.8651 79.389 64.716 93.4 60.386 101.358Z" fill="#CC887F"/>
<path d="M145.2 133.05C143.023 127.2 136.8 122.46 129.447 118.573C116.318 127.533 97.7151 133.135 77.0671 133.135C56.4191 133.135 37.8181 127.535 24.6901 118.575C17.3391 122.462 11.1111 127.199 8.93408 133.05C5.2906 142.892 2.53427 153.04 0.698059 163.373H153.435C151.599 153.04 148.843 142.892 145.2 133.05V133.05Z" fill="#EC8228"/>
<path d="M98.037 48.681C100.198 41.981 105.314 43.53 105.794 43.691C106.294 43.75 111.584 44.535 110.671 51.519C109.752 58.544 105.676 62.351 101.853 61.233C97.9201 60.609 95.864 55.424 98.037 48.681Z" fill="#CC887F"/>
<path d="M102.5 38.136C99.823 8.74797 77.4811 10.394 75.3741 10.616C73.2671 10.394 50.926 8.74797 48.248 38.136C45.555 67.698 58.7221 87.005 75.3741 85.943C92.0241 87.005 105.192 67.7 102.5 38.136Z" fill="#FFAC9D"/>
<path d="M78.5651 48.169L80.2291 59.81L76.855 63.01" stroke="#CC887F" stroke-width="1.115" stroke-miterlimit="10"/>
<path d="M62.4371 67.332L88.9501 67.054C88.9501 67.054 78.3471 77.488 62.4371 67.332Z" fill="white"/>
<path d="M69.235 72.657C74.915 75.346 81.3261 75.136 86.3721 70.708" stroke="#CC887F" stroke-width="1.115" stroke-miterlimit="10"/>
<path d="M61.4731 48.612C61.4731 50.826 62.294 52.62 63.308 52.62C64.322 52.62 65.1421 50.826 65.1421 48.612C65.1421 46.398 64.321 44.604 63.308 44.604C62.295 44.604 61.4731 46.4 61.4731 48.612Z" fill="#352C38"/>
<path d="M86.6871 48.612C86.6871 50.826 87.508 52.62 88.522 52.62C89.536 52.62 90.3561 50.826 90.3561 48.612C90.3561 46.398 89.535 44.604 88.522 44.604C87.509 44.604 86.6871 46.4 86.6871 48.612Z" fill="#352C38"/>
<path d="M56.9691 42.054C56.9691 42.054 63.3611 34.242 69.7531 41.522" stroke="#352C38" stroke-width="2.131" stroke-miterlimit="10"/>
<path d="M82.36 42.054C82.36 42.054 88.7521 34.242 95.1451 41.522" stroke="#352C38" stroke-width="2.131" stroke-miterlimit="10"/>
<path d="M57.3441 15.456C57.3441 15.456 58.0071 34.032 80.2321 37.349L72.6031 28.393C72.6031 28.393 83.218 37.681 95.16 36.354C93.5735 31.851 90.8271 27.8462 87.1981 24.744C87.1981 24.744 110.751 35.027 95.8231 79.478C95.8231 79.478 113.073 57.916 108.76 31.71C103.633 0.552967 76.8761 -2.60302 65.3051 3.18198C55.3531 8.15798 57.3441 15.456 57.3441 15.456Z" fill="#765E69"/>
<path d="M60.9931 8.48995C60.9931 8.48995 43.2261 3.21496 37.4411 29.057C32.4651 51.282 42.4161 71.848 59.6661 85.449C59.6661 85.449 49.7141 75.829 49.0511 51.282C48.3881 26.735 63.6461 14.792 69.2861 12.47C74.9261 10.148 60.9931 8.48995 60.9931 8.48995Z" fill="#765E69"/>
<path opacity="0.4" d="M108.76 31.71C108.315 28.9529 107.64 26.238 106.74 23.594C105.23 29.7152 102.665 35.5268 99.1611 40.768C101.602 49.145 101.854 61.52 95.8231 79.478C95.8231 79.478 113.073 57.916 108.76 31.71Z" fill="#352C38"/>
<path opacity="0.4" d="M49.0511 51.282C48.8849 46.3178 49.4578 41.3565 50.7511 36.5609C50.1771 36.2096 49.6124 35.8499 49.0571 35.4819C45.0771 32.8349 41.327 29.9889 38.569 26.0299C38.485 25.9099 38.4101 25.7849 38.3281 25.6639C38.0101 26.7309 37.7131 27.8569 37.4451 29.0559C32.4691 51.2819 42.4201 71.8479 59.6701 85.4489C59.6661 85.4489 49.7141 75.829 49.0511 51.282Z" fill="#352C38"/>
<path d="M42.8291 45.2219C41.6591 46.3339 40.7161 48.2369 41.1451 51.5219C41.8311 56.7609 44.2721 60.2069 47.0551 61.1579C45.3689 55.9234 43.9583 50.6041 42.8291 45.2219V45.2219Z" fill="#CC887F"/>
</svg>
