<svg width="154" height="167" viewBox="0 0 154 167" fill="none" xmlns="http://www.w3.org/2000/svg">
<path d="M68.693 98.4679C68.693 98.4679 61.027 100.468 55.36 96.4679L56.36 99.135C56.36 99.135 44.36 93.801 43.36 72.135C42.36 50.469 50.36 50.801 50.36 50.801C50.36 50.801 72.36 80.7999 68.693 98.4679Z" fill="#EDCFB7"/>
<path d="M119.36 64.7999C119.36 64.7999 123.86 83.7999 106.86 91.7999V85.2999C106.86 85.2999 102.86 97.2999 85.86 99.2999C68.86 101.3 77.36 75.7999 77.36 75.7999L85.86 53.7999L119.36 62.7999" fill="#EDCFB7"/>
<path d="M144.277 136.272C138.331 120.292 101.963 112.66 95.594 108.028C87.418 102.082 90.02 82.386 90.02 82.386L76.641 82.738L63.263 82.386C63.263 82.386 65.863 102.086 57.688 108.028C51.32 112.66 14.952 120.292 9.005 136.272C5.38833 146.042 2.65244 156.115 0.830002 166.372H152.453C150.63 156.115 147.894 146.042 144.277 136.272V136.272Z" fill="#F19C7C"/>
<path d="M60.784 104.358C67.047 103.718 73.343 102.449 78.795 99.399C82.6937 97.203 86.3407 94.5875 89.671 91.599C89.5542 88.5246 89.6709 85.4458 90.02 82.389L76.641 82.741L63.263 82.389C63.263 82.389 65.114 96.4 60.784 104.358Z" fill="#D88971"/>
<path d="M145.332 136.05C139.932 121.533 109.618 113.857 99.01 109.068L99.184 108.968C94.543 106.416 93.384 99.686 93.384 99.686L59.737 101.311C58.576 106.416 53.489 109.711 53.489 109.711C53.541 109.744 53.594 109.771 53.646 109.803C41.8 114.646 14.2 122.262 9.066 136.05C5.42252 145.892 2.66622 156.04 0.830002 166.373H153.568C151.732 156.04 148.975 145.892 145.332 136.05V136.05Z" fill="#765E69"/>
<path d="M66.693 14.135C66.693 14.135 49.86 -1.20006 38.36 19.2999C26.86 39.7999 41.86 72.2999 30.36 86.2999C30.36 86.2999 42.36 99.2999 46.36 79.2999C50.36 59.2999 51.86 26.7999 51.86 26.7999L66.693 14.135Z" fill="#FDDEC0"/>
<path d="M63.794 16.2999C63.794 16.2999 50.953 -0.655077 38.447 19.2479C25.941 39.1509 39.305 72.3559 27.123 85.7669" stroke="#FDDEC0" stroke-width="2" stroke-miterlimit="10"/>
<path d="M52.36 50.4C50.199 43.7 45.083 45.249 44.604 45.41C44.104 45.469 38.813 46.255 39.727 53.238C40.646 60.263 44.727 64.07 48.544 62.952C52.477 62.326 54.534 57.141 52.36 50.4Z" fill="#D88971"/>
<path d="M98.435 51.681C100.596 44.981 105.713 46.53 106.192 46.691C106.692 46.75 111.983 47.535 111.069 54.519C110.15 61.544 106.074 65.351 102.251 64.233C98.318 63.609 96.262 58.424 98.435 51.681Z" fill="#D88971"/>
<path d="M102.9 41.136C100.223 11.748 77.882 13.394 75.775 13.616C73.667 13.394 51.326 11.748 48.649 41.136C45.955 70.698 59.123 90.005 75.775 88.943C92.423 90.005 105.59 70.7 102.9 41.136Z" fill="#F19C7C"/>
<path d="M78.963 51.169L80.627 62.81L77.253 66.01" stroke="#B26E59" stroke-width="1.115" stroke-miterlimit="10"/>
<path d="M62.835 70.332L89.348 70.054C89.348 70.054 78.746 80.488 62.835 70.332Z" fill="white"/>
<path d="M69.634 75.657C75.313 78.346 81.724 78.136 86.771 73.708" stroke="#B26E59" stroke-width="1.115" stroke-miterlimit="10"/>
<path d="M61.871 51.612C61.871 53.826 62.692 55.62 63.706 55.62C64.72 55.62 65.541 53.826 65.541 51.612C65.541 49.398 64.719 47.604 63.706 47.604C62.693 47.604 61.871 49.4 61.871 51.612Z" fill="#352C38"/>
<path d="M87.085 51.612C87.085 53.826 87.906 55.62 88.92 55.62C89.934 55.62 90.755 53.826 90.755 51.612C90.755 49.398 89.933 47.604 88.92 47.604C87.907 47.604 87.085 49.4 87.085 51.612Z" fill="#352C38"/>
<path d="M57.367 45.054C57.367 45.054 63.759 37.242 70.151 44.522" stroke="#352C38" stroke-width="2.131" stroke-miterlimit="10"/>
<path d="M82.758 45.054C82.758 45.054 89.15 37.242 95.543 44.522" stroke="#352C38" stroke-width="2.131" stroke-miterlimit="10"/>
<path d="M62.36 21.7999C62.36 21.7999 73.86 9.79994 80.86 19.2999C87.86 28.7999 99.86 64.2999 119.86 66.7999C119.86 66.7999 123.693 25.467 105.693 9.46697C86.841 -7.29003 61.86 2.79994 62.36 21.7999Z" fill="#FDDEC0"/>
<path d="M111.36 67.8C92.953 65.252 85.13 29.061 78.687 19.376C72.244 9.69098 62.36 20.8 62.36 20.8" stroke="#FDDEC0" stroke-width="2.906" stroke-miterlimit="10"/>
<path d="M62.36 21.8C62.36 21.8 65.415 17.951 63.794 16.294C60.229 12.648 47.579 10.207 45.86 24.3C43.36 44.8 53.86 77.8 36.36 95.3C36.36 95.3 41.86 101.8 47.86 92.8C47.86 92.8 45.86 98.8 42.36 99.3C42.36 99.3 50.86 100.8 52.86 88.8C54.86 76.8 48.86 22.8 62.36 21.8Z" fill="#FDDEC0"/>
</svg>
