<svg width="145" height="161" viewBox="0 0 145 161" fill="none" xmlns="http://www.w3.org/2000/svg">
<path d="M83.975 92.749C81 96.837 77.112 99.104 73.075 99.104H71.936C67.901 99.104 64.012 96.837 61.036 92.749L60.245 91.662V102.454L57.291 103.626L58.508 105.369C60.0804 107.623 62.1742 109.465 64.6111 110.736C67.048 112.007 69.7559 112.671 72.5045 112.671C75.2531 112.671 77.961 112.007 80.3979 110.736C82.8348 109.465 84.9285 107.623 86.501 105.369L87.717 103.626L84.764 102.454V91.662L83.975 92.749Z" fill="#F0BF9C"/>
<path d="M71.936 99.1H73.077C77.112 99.1 81 96.833 83.977 92.745L84.768 91.658V77.348H60.247V91.658L61.038 92.745C64.012 96.837 67.9 99.1 71.936 99.1Z" fill="#3C3247"/>
<path d="M140.011 140.845C138.633 135.203 135.924 129.973 132.111 125.593C128.297 121.213 123.49 117.81 118.091 115.669L87.719 103.626L86.503 105.369C84.9305 107.623 82.8368 109.465 80.3999 110.736C77.963 112.007 75.2551 112.671 72.5065 112.671C69.7579 112.671 67.05 112.007 64.6131 110.736C62.1762 109.465 60.0825 107.623 58.51 105.369L57.293 103.626L26.922 115.669C21.5231 117.81 16.7155 121.213 12.9015 125.593C9.08753 129.973 6.37811 135.203 4.99999 140.845L0.261993 160.245H144.749L140.011 140.845Z" fill="#B696FF"/>
<path d="M4.99999 140.845L4.36099 143.465H140.651L140.011 140.845C139.525 138.87 138.874 136.939 138.066 135.073H6.94699C6.13786 136.939 5.48658 138.87 4.99999 140.845V140.845Z" fill="#7160C1"/>
<path d="M0.263 160.249H144.749L142.7 151.857H2.313L0.263 160.249Z" fill="#7160C1"/>
<path d="M87.719 103.626L86.503 105.369C85.2469 107.166 83.6562 108.704 81.818 109.898H103.536L87.719 103.626Z" fill="#7160C1"/>
<path d="M58.51 105.369L57.293 103.626L41.477 109.9H63.194C61.3559 108.705 59.7655 107.166 58.51 105.369Z" fill="#7160C1"/>
<path d="M12.01 126.681H133C130.309 123.337 127.046 120.496 123.364 118.289H21.646C17.9637 120.495 14.7013 123.337 12.01 126.681V126.681Z" fill="#7160C1"/>
<g opacity="0.3">
<g opacity="0.3">
<path opacity="0.3" d="M88.976 109.5C86.6091 111.52 83.933 113.147 81.05 114.318C77.8912 115.634 74.4929 116.276 71.0719 116.205C67.6508 116.134 64.2822 115.35 61.181 113.904C58.3498 112.613 55.7441 110.876 53.463 108.76C55.0966 111.603 57.4232 113.986 60.226 115.688C63.4665 117.712 67.1938 118.822 71.0136 118.902C74.8334 118.982 78.6038 118.028 81.926 116.141C84.7995 114.559 87.225 112.274 88.976 109.5Z" fill="#3C3247"/>
</g>
<g opacity="0.3">
<path opacity="0.3" d="M28.671 158.78C29.7837 152.811 29.8915 146.698 28.99 140.693C28.1804 134.675 26.3704 128.835 23.635 123.414C24.491 128.366 25.735 134.669 26.625 141.03C27.544 147.387 28.11 153.786 28.671 158.78Z" fill="#3C3247"/>
</g>
<g opacity="0.3">
<path opacity="0.3" d="M116.342 158.78C114.194 146.756 115.959 134.36 121.377 123.414C120.522 128.366 119.277 134.669 118.387 141.03C117.468 147.387 116.9 153.786 116.342 158.78Z" fill="#3C3247"/>
</g>
<g opacity="0.3">
<path opacity="0.3" d="M106.046 143.612C100.413 145.275 94.5508 146.025 88.681 145.835C82.0683 145.607 75.5267 144.393 69.272 142.235C63.0081 140.025 56.9962 137.157 51.337 133.679C45.853 130.37 40.951 126.834 36.73 123.709C40.8953 127.964 45.4483 131.822 50.33 135.232C55.9208 139.162 62.0257 142.304 68.473 144.57C74.9684 146.817 81.8165 147.872 88.687 147.683C94.6913 147.531 100.6 146.145 106.046 143.612V143.612Z" fill="#3C3247"/>
</g>
<g opacity="0.3">
<path opacity="0.3" d="M101.92 131.311C97.1602 133.854 92.1283 135.851 86.92 137.263C81.6837 138.571 76.3162 139.283 70.92 139.385C73.4272 140.095 76.0193 140.46 78.625 140.471C84.6177 140.519 90.5166 138.982 95.725 136.018C97.9933 134.736 100.077 133.153 101.92 131.311V131.311Z" fill="#3C3247"/>
</g>
</g>
<path d="M49.7558 64.7743C50.896 59.9509 47.9101 55.1164 43.0866 53.9762C38.2631 52.836 33.4287 55.8219 32.2885 60.6454C31.1483 65.4688 34.1342 70.3033 38.9576 71.4435C43.7811 72.5837 48.6156 69.5978 49.7558 64.7743Z" fill="#EBA588"/>
<path d="M46.1 62.706C46.0998 63.7093 45.8021 64.69 45.2446 65.524C44.6871 66.3581 43.8948 67.0082 42.9679 67.392C42.041 67.7759 41.021 67.8763 40.0371 67.6805C39.0531 67.4847 38.1493 67.0016 37.4399 66.2922C36.7304 65.5828 36.2473 64.6789 36.0515 63.6949C35.8558 62.711 35.9561 61.6911 36.34 60.7641C36.7238 59.8372 37.3739 59.0449 38.208 58.4874C39.0421 57.9299 40.0228 57.6322 41.026 57.632C42.3717 57.632 43.6623 58.1666 44.6139 59.1181C45.5654 60.0697 46.1 61.3603 46.1 62.706Z" fill="#E78882"/>
<path d="M110.339 69.053C113.844 65.5476 113.844 59.8643 110.339 56.359C106.834 52.8537 101.15 52.8537 97.645 56.359C94.1396 59.8643 94.1396 65.5476 97.645 69.053C101.15 72.5583 106.834 72.5583 110.339 69.053Z" fill="#EBA588"/>
<path d="M98.918 62.706C98.918 63.7096 99.2156 64.6906 99.7732 65.5251C100.331 66.3595 101.123 67.0099 102.05 67.3939C102.978 67.7779 103.998 67.8783 104.982 67.6824C105.967 67.4866 106.871 67.0032 107.58 66.2935C108.29 65.5838 108.773 64.6796 108.969 63.6953C109.164 62.711 109.064 61.6907 108.679 60.7636C108.295 59.8364 107.645 59.0441 106.81 58.4866C105.976 57.9292 104.995 57.6318 103.991 57.632C103.325 57.632 102.665 57.7633 102.049 58.0183C101.434 58.2733 100.875 58.647 100.403 59.1182C99.9324 59.5894 99.5588 60.1488 99.3039 60.7644C99.049 61.38 98.9179 62.0397 98.918 62.706V62.706Z" fill="#E78882"/>
<path d="M72.506 16.857C65.254 16.8573 58.299 19.738 53.1708 24.8657C48.0426 29.9933 45.1611 36.948 45.16 44.2V60.183C45.1603 65.2016 46.2041 70.1653 48.2252 74.759C50.2462 79.3527 53.2003 83.476 56.9 86.867L58.039 87.911C61.7922 91.3512 66.6986 93.2598 71.79 93.26H73.23C78.3214 93.2599 83.2278 91.3513 86.981 87.911L88.12 86.867C91.819 83.4764 94.7725 79.3537 96.793 74.7607C98.8135 70.1678 99.857 65.2048 99.857 60.187V44.2C99.8565 40.6087 99.1486 37.0527 97.7738 33.7351C96.399 30.4174 94.3842 27.4029 91.8444 24.8639C89.3046 22.3249 86.2896 20.311 82.9715 18.9371C79.6535 17.5633 76.0973 16.8565 72.506 16.857Z" fill="#F0BF9C"/>
<path d="M88.546 28C91.31 25.729 94.146 32.112 95.806 36.576C96.333 37.9984 96.685 39.4796 96.854 40.987L99.554 64.787L102.571 47.14C103.273 39.3437 102.379 31.486 99.942 24.047C99.3733 21.9333 98.3302 19.9771 96.892 18.327C94.892 16.583 90.277 15.999 90.277 15.999C91.777 15.061 93.265 14.299 94.765 13.362C92.6909 11.5877 90.2807 10.2494 87.6782 9.42698C85.0756 8.60453 82.334 8.31477 79.617 8.575C81.3815 6.52614 83.6595 4.98371 86.217 4.10601C79.8098 2.42474 73.0132 3.08206 67.047 5.96001C67.753 4.24701 68.599 2.61901 69.304 0.906006C65.6787 2.0562 62.3919 4.08003 59.7327 6.79932C57.0736 9.5186 55.1238 12.8499 54.055 16.5C52.9931 16.2377 51.8799 16.2692 50.8345 16.5912C49.7892 16.9132 48.8512 17.5136 48.121 18.328C46.6829 19.9783 45.6395 21.9344 45.07 24.048C42.6338 31.4871 41.7393 39.3447 42.441 47.141L45.458 64.788L48.139 41.168C48.3403 39.3996 48.7894 37.6683 49.473 36.025C50.4888 33.4903 51.7816 31.0756 53.328 28.825C53.6154 28.4336 53.9774 28.1029 54.3931 27.8519C54.8088 27.601 55.2701 27.4347 55.7503 27.3627C56.2305 27.2906 56.7202 27.3143 57.1913 27.4322C57.6623 27.5502 58.1054 27.7602 58.495 28.05C62.638 31.094 67.469 34.02 72.289 33.955C78.2231 33.8527 83.9499 31.755 88.546 28V28Z" fill="#EBA25D"/>
<path d="M60.286 56.211C61.6562 56.211 62.767 55.1002 62.767 53.73C62.767 52.3598 61.6562 51.249 60.286 51.249C58.9158 51.249 57.805 52.3598 57.805 53.73C57.805 55.1002 58.9158 56.211 60.286 56.211Z" fill="#3C3247"/>
<path d="M84.726 56.211C86.0962 56.211 87.207 55.1002 87.207 53.73C87.207 52.3598 86.0962 51.249 84.726 51.249C83.3558 51.249 82.245 52.3598 82.245 53.73C82.245 55.1002 83.3558 56.211 84.726 56.211Z" fill="#3C3247"/>
<path d="M77.03 66.159L68.565 66.213C68.9952 67.0076 69.5102 67.7533 70.101 68.437C70.7267 69.0823 71.5788 69.459 72.4772 69.4874C73.3756 69.5157 74.2498 69.1936 74.915 68.589C75.6968 67.8492 76.4051 67.0354 77.03 66.159Z" fill="#EBA588"/>
<path d="M82.149 72.153C75.8409 73.7341 69.2717 73.977 62.864 72.866C63.2135 74.3127 63.8767 75.6649 64.8068 76.8269C65.7368 77.9889 66.911 78.9322 68.246 79.59C69.5707 80.1993 71.0152 80.5034 72.4731 80.4797C73.931 80.456 75.3649 80.1051 76.669 79.453C78.0379 78.6818 79.2318 77.6347 80.1751 76.3781C81.1184 75.1216 81.7906 73.6828 82.149 72.153V72.153Z" fill="white"/>
<path d="M59.166 42.893C57.7579 43.036 56.4063 43.522 55.2296 44.3084C54.0528 45.0948 53.0868 46.1577 52.416 47.404C57.1493 46.6814 61.912 46.1837 66.704 45.911C65.7898 44.8303 64.6247 43.9901 63.3106 43.4639C61.9965 42.9378 60.5734 42.7418 59.166 42.893V42.893Z" fill="#8C404C"/>
<path d="M85.846 42.893C87.2544 43.0351 88.6065 43.5202 89.784 44.3059C90.9614 45.0916 91.9283 46.154 92.6 47.4C87.8667 46.6774 83.104 46.1797 78.312 45.907C79.2261 44.8275 80.3908 43.9884 81.7042 43.463C83.0175 42.9376 84.4396 42.7419 85.846 42.893V42.893Z" fill="#8C404C"/>
<path d="M76.324 84.325C75.3665 83.3475 74.068 82.7782 72.7003 82.7363C71.3325 82.6943 70.0016 83.183 68.986 84.1C71.3 84.187 74.007 84.238 76.324 84.325Z" fill="#EBA588"/>
<path d="M65.225 57.046C61.8956 56.2881 58.4066 56.702 55.347 58.218C58.6849 58.7383 62.1015 58.3329 65.225 57.046V57.046Z" fill="#EBA588"/>
<path d="M79.787 57.046C83.1167 56.288 86.606 56.7019 89.666 58.218C86.3278 58.7382 82.9108 58.3328 79.787 57.046V57.046Z" fill="#EBA588"/>
<path d="M68.029 25.056C67.0708 22.3789 67.0296 19.4591 67.912 16.756C68.7911 14.0189 70.4068 11.5767 72.582 9.69702C74.5917 7.97203 76.8917 6.61766 79.375 5.69702C76.5711 5.8482 73.8604 6.75601 71.531 8.32402C68.7698 10.1695 66.7184 12.8994 65.714 16.065C65.2051 17.6799 65.0042 19.376 65.122 21.065C65.159 21.5692 65.2295 22.0703 65.333 22.565C64.92 21.8191 64.5478 21.0513 64.218 20.265C63.27 18.1315 62.73 15.8393 62.626 13.507C62.5621 11.4128 63.1851 9.3551 64.4 7.64803C63.5033 8.34125 62.7603 9.21311 62.2181 10.2084C61.6759 11.2037 61.3462 12.3007 61.25 13.43C61.0305 16.0127 61.4681 18.609 62.522 20.977C63.5088 23.3357 64.9572 25.4732 66.782 27.264C67.635 28.1065 68.5734 28.8578 69.582 29.506C70.5163 30.2444 71.5816 30.7998 72.722 31.143C70.5665 29.6475 68.9271 27.5211 68.029 25.056V25.056Z" fill="#F5D896"/>
<path d="M75.878 14.158C74.2431 15.2606 72.9358 16.7837 72.0937 18.5667C71.2516 20.3498 70.9059 22.327 71.093 24.29C71.2317 25.9765 71.7944 27.6004 72.729 29.011C72.2795 27.4691 72.0796 25.8651 72.137 24.26C72.1851 22.4946 72.5995 20.7583 73.3538 19.1614C74.1082 17.5645 75.186 16.1416 76.519 14.983C77.7225 13.9194 79.0884 13.0552 80.565 12.423C78.8814 12.5969 77.269 13.1938 75.878 14.158V14.158Z" fill="#F5D896"/>
</svg>
