<svg width="145" height="156" viewBox="0 0 145 156" fill="none" xmlns="http://www.w3.org/2000/svg">
<path d="M116.53 62.843C114.637 57.283 111.605 52.096 110.411 46.343C109.403 41.488 109.755 36.467 109.435 31.519C109.115 26.571 107.981 21.392 104.599 17.767C101.217 14.142 93.571 12.081 89.755 15.247L65.667 16.914L66.277 22.472C75.033 23.472 83.277 25.917 88.506 32.378C97.88 43.967 104.869 57.925 106.006 72.787C106.946 85.048 103.461 97.899 95.714 107.293H106.126C111.751 101.539 115.695 94.3548 117.529 86.5194C119.363 78.684 119.017 70.4961 116.53 62.843V62.843Z" fill="#A64F5A"/>
<path d="M104.891 39.285C104.989 37.3506 104.828 35.4119 104.413 33.52C103.944 31.3197 103.062 29.2284 101.813 27.357C100.528 25.4683 98.7914 23.9307 96.761 22.884C95.007 21.9624 93.0198 21.5797 91.049 21.784C92.8772 22.1473 94.6124 22.8788 96.149 23.934C97.8471 25.1008 99.3145 26.5719 100.477 28.273C102.864 31.754 104 36.011 104.891 39.285Z" fill="#BD6C67"/>
<path d="M103.487 103.139C107.16 98.5245 109.696 93.1101 110.888 87.3339C112.08 81.5577 111.897 75.5819 110.351 69.89C110.305 75.5906 109.731 81.2746 108.635 86.869C107.425 92.4397 105.702 97.8863 103.487 103.139V103.139Z" fill="#BD6C67"/>
<path d="M111 95.916L110.669 96.34L110.806 96.413C112.819 93.3883 114.123 89.9481 114.621 86.349C115.165 82.8023 114.899 79.1785 113.844 75.749C113.9 79.2237 113.682 82.6975 113.193 86.138C112.636 89.6049 111.791 93.0194 110.667 96.346L110.804 96.419C110.876 96.232 110.938 96.073 111 95.916Z" fill="#BD6C67"/>
<path d="M106.008 72.788C104.869 57.926 97.88 43.968 88.508 32.379C83.281 25.918 75.035 23.479 66.279 22.473L75.586 107.294H95.718C103.463 97.9 106.948 85.049 106.008 72.788Z" fill="#8C404C"/>
<path d="M49.765 31.67L40.786 44.6C37.818 48.6456 35.1667 52.9143 32.856 57.368C26.676 70.068 20.467 87.883 40.166 105.418H71.333V30.082L49.765 31.67Z" fill="#8C404C"/>
<path d="M83.963 87.749C80.988 91.837 77.1 94.104 73.063 94.104H71.922C67.887 94.104 63.998 91.837 61.022 87.749L60.232 86.662V97.454L57.278 98.626L58.495 100.369C60.0675 102.623 62.1612 104.465 64.5981 105.736C67.035 107.007 69.7429 107.671 72.4915 107.671C75.2401 107.671 77.948 107.007 80.3849 105.736C82.8218 104.465 84.9155 102.623 86.488 100.369L87.704 98.626L84.751 97.454V86.662L83.963 87.749Z" fill="#EBA58E"/>
<path d="M71.924 94.1H73.065C77.1 94.1 80.988 91.833 83.965 87.745L84.756 86.658V72.348H60.235V86.658L61.025 87.745C64 91.837 67.889 94.1 71.924 94.1Z" fill="#3C3247"/>
<path d="M44.4355 66.0078C49.021 64.119 51.2072 58.8706 49.3185 54.2851C47.4297 49.6996 42.1813 47.5134 37.5958 49.4022C33.0103 51.2909 30.8241 56.5393 32.7129 61.1248C34.6016 65.7103 39.85 67.8965 44.4355 66.0078Z" fill="#E78882"/>
<path d="M46.083 57.706C46.083 58.7096 45.7854 59.6906 45.2279 60.525C44.6703 61.3594 43.8779 62.0097 42.9507 62.3938C42.0236 62.7778 41.0034 62.8783 40.0191 62.6825C39.0348 62.4867 38.1308 62.0035 37.4211 61.2939C36.7115 60.5843 36.2283 59.6802 36.0325 58.6959C35.8367 57.7116 35.9372 56.6914 36.3212 55.7643C36.7053 54.8371 37.3556 54.0447 38.19 53.4871C39.0244 52.9296 40.0055 52.632 41.009 52.632C42.3547 52.632 43.6453 53.1666 44.5969 54.1181C45.5484 55.0697 46.083 56.3603 46.083 57.706V57.706Z" fill="#DE7274"/>
<path d="M110.327 64.053C113.832 60.5476 113.832 54.8643 110.327 51.359C106.822 47.8537 101.138 47.8537 97.633 51.359C94.1277 54.8643 94.1277 60.5476 97.633 64.053C101.138 67.5583 106.822 67.5583 110.327 64.053Z" fill="#E78882"/>
<path d="M98.906 57.706C98.9062 58.7093 99.2039 59.69 99.7614 60.5242C100.319 61.3583 101.111 62.0083 102.038 62.3921C102.965 62.7759 103.985 62.8763 104.969 62.6804C105.953 62.4846 106.857 62.0013 107.566 61.2918C108.276 60.5823 108.759 59.6784 108.955 58.6943C109.15 57.7103 109.05 56.6903 108.666 55.7634C108.282 54.8365 107.632 54.0443 106.797 53.4869C105.963 52.9295 104.982 52.632 103.979 52.632C103.313 52.632 102.653 52.7633 102.037 53.0183C101.422 53.2733 100.863 53.647 100.391 54.1182C99.9204 54.5894 99.5468 55.1488 99.2919 55.7644C99.037 56.38 98.9059 57.0397 98.906 57.706Z" fill="#DE7274"/>
<path d="M72.494 23.5C57.394 23.5 45.148 24.1 45.148 39.205V55.188C45.1483 60.2057 46.1918 65.1684 48.2121 69.7614C50.2325 74.3543 53.1856 78.4771 56.884 81.868L58.023 82.912C61.7762 86.3523 66.6826 88.2608 71.774 88.261H73.214C78.3054 88.2608 83.2118 86.3523 86.965 82.912L88.104 81.868C91.803 78.4774 94.7565 74.3547 96.777 69.7617C98.7975 65.1688 99.841 60.2058 99.841 55.188V39.2C99.841 24.1 87.6 23.5 72.494 23.5Z" fill="#EBA58E"/>
<path d="M60.274 51.211C61.6442 51.211 62.755 50.1002 62.755 48.73C62.755 47.3598 61.6442 46.249 60.274 46.249C58.9038 46.249 57.793 47.3598 57.793 48.73C57.793 50.1002 58.9038 51.211 60.274 51.211Z" fill="#3C3247"/>
<path d="M84.714 51.211C86.0842 51.211 87.195 50.1002 87.195 48.73C87.195 47.3598 86.0842 46.249 84.714 46.249C83.3438 46.249 82.233 47.3598 82.233 48.73C82.233 50.1002 83.3438 51.211 84.714 51.211Z" fill="#3C3247"/>
<path d="M76.719 61.573C73.7093 60.9758 70.6066 61.0286 67.619 61.728C67.9927 62.5944 68.5979 63.3412 69.368 63.8865C70.1382 64.4317 71.0436 64.7543 71.985 64.819C72.9865 64.7303 73.9483 64.3851 74.7775 63.8165C75.6067 63.2479 76.2754 62.4752 76.719 61.573V61.573Z" fill="#E78882"/>
<path d="M84.725 38.218C83.4091 38.2294 82.1137 38.5453 80.9404 39.1411C79.7671 39.7369 78.7476 40.5963 77.962 41.652L91.545 41.537C90.7417 40.4947 89.7079 39.6527 88.5247 39.0768C87.3414 38.501 86.0409 38.2071 84.725 38.218Z" fill="#A64F5A"/>
<path d="M60.245 38.218C58.9293 38.2295 57.6341 38.5456 56.4609 39.1413C55.2878 39.7371 54.2685 40.5964 53.483 41.652L67.066 41.537C66.2625 40.4947 65.2285 39.6527 64.0451 39.0768C62.8617 38.501 61.561 38.2071 60.245 38.218V38.218Z" fill="#A64F5A"/>
<path d="M79.6 68.5C74.6547 70.7117 69.0861 71.1014 63.881 69.6C65.819 71.927 68.881 73.713 71.9 73.449C73.4743 73.2606 74.9853 72.7172 76.3191 71.86C77.6529 71.0027 78.7747 69.8538 79.6 68.5V68.5Z" fill="white"/>
<path d="M140 135.845C138.622 130.203 135.913 124.973 132.099 120.593C128.286 116.213 123.479 112.81 118.08 110.669L87.708 98.626L86.492 100.369C84.9195 102.623 82.8258 104.465 80.3889 105.736C77.952 107.007 75.2441 107.671 72.4955 107.671C69.7469 107.671 67.039 107.007 64.6021 105.736C62.1652 104.465 60.0715 102.623 58.499 100.369L57.282 98.626L26.91 110.669C21.5115 112.81 16.7044 116.213 12.8907 120.593C9.07714 124.973 6.36799 130.203 4.98999 135.845L0.252014 155.245H144.737L140 135.845Z" fill="#F0BF6C"/>
<path d="M47.416 102.538L72.17 141.5V155.25H26.8L28.744 134.66C29.0158 131.781 28.8227 128.877 28.172 126.06L24.827 111.575L47.416 102.538Z" fill="#5195A8"/>
<path d="M97.054 102.332L72.17 141.5V155.25H117.538L115.594 134.66C115.323 131.781 115.516 128.877 116.166 126.06L119.511 111.276L97.054 102.332Z" fill="#5195A8"/>
<g opacity="0.3">
<g opacity="0.3">
<path opacity="0.3" d="M87.654 103.306C85.7656 105.504 83.4693 107.315 80.892 108.64C78.0917 110.131 74.9647 110.903 71.7921 110.887C68.6196 110.871 65.5007 110.066 62.716 108.546C60.153 107.196 57.8758 105.362 56.01 103.146C57.2067 105.983 59.1909 108.417 61.728 110.161C64.6624 112.257 68.1742 113.392 71.7801 113.41C75.386 113.427 78.9089 112.327 81.864 110.261C84.4188 108.543 86.4281 106.13 87.654 103.306Z" fill="#3C3247"/>
</g>
<g opacity="0.3">
<path opacity="0.3" d="M87.7 128.2C84.456 128.076 80.786 127.874 76.93 127.4C68.9219 126.458 61.0775 124.44 53.609 121.4C50.009 119.952 46.692 118.358 43.79 116.9C46.421 119.478 49.3857 121.692 52.605 123.482C59.9941 127.623 68.3347 129.768 76.805 129.705C80.4876 129.693 84.152 129.187 87.7 128.2V128.2Z" fill="#3C3247"/>
</g>
<g opacity="0.3">
<path opacity="0.3" d="M111.517 122.171C107.474 124.866 102.917 128.129 97.917 131.336C92.7921 134.728 87.3366 137.592 81.634 139.884C75.9473 142.093 69.9027 143.237 63.802 143.258C58.3787 143.276 53.0232 142.053 48.145 139.683C52.7605 142.837 58.1527 144.666 63.735 144.969C70.1131 145.343 76.4968 144.335 82.45 142.016C88.3154 139.669 93.8426 136.553 98.886 132.748C103.289 129.459 107.506 125.928 111.517 122.171V122.171Z" fill="#3C3247"/>
</g>
<g opacity="0.3">
<g opacity="0.3">
<path opacity="0.3" d="M27.653 142.12C28.273 138.309 27.9953 134.405 26.842 130.72C25.8262 127.006 24.0101 123.558 21.521 120.62C21.725 124.378 22.3927 128.096 23.509 131.69C24.5076 135.307 25.8971 138.804 27.653 142.12V142.12Z" fill="#3C3247"/>
</g>
<g opacity="0.3">
<path opacity="0.3" d="M27.653 142.12C24.5687 137.461 20.6801 133.388 16.169 130.092C17.0886 132.814 18.5933 135.301 20.5774 137.379C22.5614 139.457 24.9766 141.075 27.653 142.12V142.12Z" fill="#3C3247"/>
</g>
</g>
<g opacity="0.3">
<g opacity="0.3">
<path opacity="0.3" d="M117.335 142.12C119.092 138.803 120.482 135.304 121.479 131.685C122.596 128.091 123.264 124.373 123.467 120.615C120.979 123.554 119.163 127.001 118.147 130.715C116.993 134.402 116.715 138.307 117.335 142.12V142.12Z" fill="#3C3247"/>
</g>
<g opacity="0.3">
<path opacity="0.3" d="M117.335 142.12C120.011 141.075 122.427 139.457 124.411 137.379C126.395 135.301 127.9 132.814 128.82 130.092C124.309 133.389 120.42 137.461 117.335 142.12V142.12Z" fill="#3C3247"/>
</g>
</g>
</g>
<path d="M89.755 15.419C88.943 9.967 84.955 5.31 80.039 2.931C75.123 0.552 69.407 0.255003 64.039 1.231C50.231 3.743 38.379 15.031 35.068 28.825C32.907 37.825 34.101 47.595 30.606 56.157C27.994 62.557 22.945 67.757 20.741 74.315C19.6845 77.5313 19.3459 80.9402 19.7492 84.3015C20.1524 87.6628 21.2877 90.8948 23.075 93.77C26.675 99.46 33.519 104.716 40.162 105.414C32.584 97.796 30.233 85.785 32.115 75.146C33.997 64.507 35.143 50.63 45.144 46.785C54.667 43.125 68.621 32.125 72.49 23.768L89.755 15.419Z" fill="#A64F5A"/>
<path d="M36.836 35.784C40.9021 36.2629 45.0229 35.6871 48.802 34.112C50.9621 33.2411 52.9959 32.0848 54.849 30.674C56.7424 29.2084 58.4511 27.5187 59.938 25.642C61.413 23.842 62.754 22.067 64.229 20.593C65.5685 19.1459 67.2514 18.0601 69.122 17.436C70.946 16.9169 72.8758 16.8972 74.71 17.379C76.4834 17.8272 78.1173 18.7102 79.464 19.948C78.4835 18.2363 77.0092 16.8603 75.234 16C73.1758 14.9759 70.8508 14.615 68.579 14.967C66.1383 15.4285 63.8809 16.5796 62.074 18.284C60.3597 19.8945 58.7761 21.6387 57.338 23.5C55.993 25.2034 54.4966 26.7815 52.867 28.215C51.2731 29.5899 49.5455 30.8016 47.71 31.832C44.3273 33.7384 40.6533 35.0737 36.836 35.784V35.784Z" fill="#BD6C67"/>
<path d="M56.641 14.083C58.4935 13.0281 60.4382 12.1441 62.451 11.442C64.659 10.6707 66.9855 10.294 69.324 10.329C71.6356 10.4096 73.8982 11.0174 75.939 12.106C77.7996 13.0917 79.399 14.506 80.605 16.232C79.9128 14.0829 78.5302 12.2226 76.672 10.94C74.5338 9.42641 71.9974 8.57539 69.379 8.49302C66.7962 8.44439 64.2397 9.01895 61.926 10.168C59.9394 11.1383 58.148 12.4654 56.641 14.083V14.083Z" fill="#BD6C67"/>
<path d="M33.484 100.93C31.9852 98.6598 30.7179 96.2451 29.701 93.722C27.4391 88.0898 26.6074 81.985 27.28 75.953C27.5859 73.2495 28.1622 70.5835 29 67.995C27.37 70.3004 26.1991 72.898 25.551 75.646C24.0229 82.0241 24.9383 88.7432 28.117 94.48C29.4754 96.9546 31.2975 99.1445 33.484 100.93V100.93Z" fill="#BD6C67"/>
</svg>
