<svg width="430" height="657" viewBox="0 0 430 657" fill="none" xmlns="http://www.w3.org/2000/svg">
<path d="M395.306 400.373C398.98 384.692 403.39 369.502 408.534 354.311C411.229 346.471 417.598 335.2 419.558 324.91C433.521 282.768 433.276 238.176 420.048 195.79C387.221 99.2554 288.743 39.963 188.059 56.8687C89.3352 73.2844 15.8436 164.183 18.0483 263.902C19.2732 325.4 48.9148 383.957 97.1743 421.934C104.279 429.529 116.037 435.41 122.896 440.555C135.88 450.6 148.129 461.136 160.132 472.161C173.851 485.147 187.079 498.867 198.348 514.303C207.167 526.308 213.046 540.274 221.62 552.034C221.375 554.24 221.13 556.445 221.13 558.405C214.761 570.41 217.456 584.866 227.01 593.441C224.07 605.937 229.459 619.412 241.463 625.783C249.547 638.523 263.021 644.158 278.209 641.953C312.995 673.315 381.342 652.734 392.611 607.162C406.084 600.302 414.168 588.541 413.678 573.84C420.293 561.835 417.598 547.134 407.799 538.069C410.739 525.083 404.615 511.118 392.121 504.993C391.141 503.522 389.916 502.297 388.691 501.072C388.446 496.172 387.711 491.272 387.222 485.882C386.242 475.591 386.242 465.546 386.977 455.255C387.711 436.88 391.141 418.504 395.306 400.373ZM261.306 560.855C261.306 561.59 261.306 562.325 261.306 563.305C261.061 562.325 261.061 561.59 261.306 560.855ZM376.688 569.43C376.443 569.43 376.198 569.43 375.953 569.675C376.198 569.43 376.443 569.185 376.688 569.43C376.688 569.185 376.688 569.185 376.688 569.43ZM269.145 602.017C269.145 601.772 269.39 601.772 269.39 601.772C269.39 601.772 269.39 602.017 269.145 602.017ZM379.627 313.884C368.604 340.591 360.03 368.277 353.905 396.453C349.986 414.584 347.046 433.204 345.821 451.825C345.086 460.646 345.086 469.466 345.331 478.286C345.576 486.862 349.251 497.887 346.311 505.973C342.637 516.018 349.986 525.818 358.56 529.984C359.54 532.434 360.765 534.639 362.724 536.599C362.234 539.539 362.479 542.479 363.214 545.419C364.439 549.339 365.664 553.26 366.644 556.935C367.624 559.875 369.094 562.57 371.053 564.775C370.808 566.735 370.808 568.695 371.053 570.655C368.359 571.39 365.174 573.105 363.214 573.595C349.986 577.761 336.512 581.681 323.284 585.846C310.3 589.766 297.317 593.686 284.333 597.606C281.638 598.341 277.964 598.831 275.024 600.057C274.289 598.341 273.064 596.626 271.84 595.401C272.33 592.461 272.085 589.521 271.35 586.581C270.125 582.661 268.9 578.741 267.92 574.82C266.94 571.88 265.47 569.185 263.511 567.225C264 564.53 263.755 561.835 263.021 558.895C263.266 558.65 263.51 558.405 263.755 558.16C270.86 548.359 264 535.864 255.671 529.984C253.712 528.513 251.997 521.898 250.772 519.448C248.567 515.283 245.872 511.608 243.423 507.443C238.768 499.847 233.869 492.497 228.479 485.637C216.966 470.936 204.227 456.97 190.754 443.985C170.421 424.629 148.129 406.498 124.856 390.818C121.182 387.388 117.017 384.447 113.588 381.262C104.524 372.932 96.1945 363.867 89.3352 353.576C76.5967 334.955 67.7777 314.129 63.1232 292.079C54.7942 253.122 62.3883 211.47 82.231 176.924C123.631 105.381 216.476 74.7544 291.927 109.791C333.818 129.147 365.909 163.938 380.852 207.795C387.466 228.866 390.406 250.427 388.936 272.478C388.201 282.033 386.487 291.589 384.037 300.899C382.322 304.819 380.607 309.229 379.627 313.884Z" fill="#CECECE"/>
<path d="M381.119 376.323C384.598 361.478 388.773 347.097 393.644 332.716C396.195 325.294 402.226 314.624 404.082 304.882C417.303 264.986 417.071 222.771 404.546 182.644C373.464 91.255 280.22 35.1229 184.888 51.1275C91.4119 66.6682 21.8266 152.722 23.9142 247.126C25.0739 305.346 53.14 360.782 98.8343 396.734C105.561 403.925 116.695 409.492 123.189 414.363C135.483 423.873 147.08 433.847 158.446 444.284C171.435 456.578 183.96 469.567 194.63 484.18C202.98 495.546 208.547 508.767 216.665 519.9C216.433 521.988 216.201 524.076 216.201 525.931C210.171 537.297 212.722 550.982 221.768 559.1C218.985 570.93 224.088 583.687 235.453 589.718C243.108 601.779 255.865 607.114 270.246 605.027C303.183 634.716 367.897 615.232 378.567 572.089C391.324 565.595 398.979 554.461 398.515 540.544C404.778 529.178 402.226 515.261 392.948 506.679C395.732 494.386 389.933 481.165 378.103 475.366C377.175 473.974 376.016 472.814 374.856 471.655C374.624 467.016 373.928 462.377 373.464 457.274C372.536 447.532 372.536 438.022 373.232 428.28C373.928 410.883 377.175 393.487 381.119 376.323ZM254.241 528.251C254.241 528.947 254.241 529.642 254.241 530.57C254.009 529.642 254.009 528.947 254.241 528.251ZM363.49 536.369C363.258 536.369 363.026 536.369 362.794 536.601C363.026 536.369 363.258 536.137 363.49 536.369C363.49 536.137 363.49 536.137 363.49 536.369ZM261.664 567.218C261.664 566.986 261.896 566.987 261.896 566.987C261.896 566.987 261.896 567.218 261.664 567.218ZM366.274 294.444C355.836 319.727 347.718 345.937 341.919 372.612C338.208 389.776 335.424 407.404 334.265 425.033C333.569 433.383 333.569 441.733 333.801 450.083C334.033 458.201 337.512 468.639 334.728 476.294C331.249 485.804 338.208 495.082 346.326 499.025C347.254 501.344 348.414 503.432 350.269 505.288C349.805 508.071 350.037 510.854 350.733 513.638C351.893 517.349 353.053 521.06 353.98 524.539C354.908 527.323 356.3 529.874 358.155 531.962C357.924 533.818 357.924 535.673 358.155 537.529C355.604 538.225 352.589 539.848 350.733 540.312C338.208 544.255 325.45 547.967 312.925 551.91C300.632 555.621 288.338 559.332 276.045 563.043C273.493 563.739 270.014 564.203 267.231 565.363C266.535 563.739 265.375 562.116 264.215 560.956C264.679 558.172 264.447 555.389 263.751 552.606C262.592 548.894 261.432 545.183 260.504 541.472C259.576 538.689 258.185 536.137 256.329 534.281C256.793 531.73 256.561 529.179 255.865 526.395C256.097 526.163 256.329 525.931 256.561 525.699C263.288 516.421 256.793 504.592 248.907 499.025C247.051 497.633 245.427 491.371 244.268 489.051C242.18 485.108 239.629 481.629 237.309 477.685C232.902 470.495 228.263 463.536 223.16 457.042C212.258 443.125 200.197 429.903 187.44 417.61C168.188 399.286 147.08 382.122 125.045 367.277C121.566 364.029 117.622 361.246 114.375 358.231C105.793 350.344 97.9065 341.762 91.4119 332.02C79.3504 314.392 71.0002 294.676 66.5931 273.8C58.7068 236.92 65.8973 197.489 84.6853 164.784C123.885 97.0538 211.794 68.0599 283.235 101.229C322.899 119.553 353.285 152.49 367.434 194.009C373.696 213.957 376.48 234.369 375.088 255.244C374.392 264.29 372.768 273.337 370.449 282.151C368.825 285.862 367.202 290.037 366.274 294.444Z" fill="white"/>
<path d="M384.83 302.794C396.891 268.002 398.051 229.034 385.526 190.994C355.604 99.8372 256.561 49.5038 165.404 78.7297C74.2477 107.955 23.2185 204.679 50.8206 296.764C61.9543 333.412 83.9896 363.797 112.288 385.369C112.288 385.369 112.52 385.369 112.752 385.601C116.463 388.384 120.174 391.168 124.117 393.487C149.168 411.579 207.388 457.738 231.047 509.926C234.99 518.741 244.732 523.148 254.01 520.364L298.08 507.143L342.151 493.922C351.429 491.138 356.996 481.86 355.372 472.582C346.094 415.986 369.057 345.473 379.727 316.247C381.583 312.072 383.206 307.665 384.83 303.258C384.83 303.026 384.83 302.794 384.83 302.794Z" fill="#E6AA45"/>
<path d="M369.289 557.94L266.999 589.022C259.809 591.109 252.154 587.166 250.067 579.976L235.454 532.194C233.366 525.003 237.309 517.349 244.5 515.261L346.79 484.18C353.981 482.092 361.635 486.035 363.723 493.226L378.336 541.008C380.655 548.198 376.48 555.621 369.289 557.94Z" fill="#748DA9"/>
<path d="M368.593 511.086L242.18 549.59C237.773 550.982 233.134 548.43 231.742 544.023C230.351 539.616 232.902 534.977 237.309 533.585L363.954 495.082C368.361 493.69 373 496.241 374.392 500.648C375.552 505.056 373 509.926 368.593 511.086Z" fill="#94ADC5"/>
<path d="M376.712 537.761L250.066 576.264C245.659 577.656 241.02 575.105 239.629 570.698C238.237 566.291 240.788 561.651 245.195 560.26L371.841 521.756C376.248 520.364 380.887 522.916 382.278 527.323C383.67 531.962 381.119 536.601 376.712 537.761Z" fill="#94ADC5"/>
<path d="M276.973 586.006L360.011 560.956C360.011 560.956 361.635 589.718 326.61 600.387C291.586 610.825 276.973 586.006 276.973 586.006Z" fill="#809CB3"/>
<path d="M290.194 584.615C285.323 585.542 284.395 592.037 288.802 594.357C295.297 597.836 305.271 600.851 318.492 599.228C333.105 597.372 341.455 589.95 345.862 583.687C348.646 579.976 345.166 574.873 340.759 575.569C339.368 575.801 337.976 576.728 337.28 578.12C335.193 581.599 329.858 588.558 316.636 589.95C304.111 591.341 297.616 587.862 294.833 585.774C293.673 584.847 292.282 584.615 290.658 584.847L290.194 584.615Z" fill="#7F94A2"/>
<path d="M353.748 567.914C354.444 570.002 353.284 572.321 350.965 573.017C348.877 573.713 346.558 572.553 345.862 570.234C345.166 568.146 346.326 565.827 348.645 565.131C350.733 564.435 353.052 565.595 353.748 567.914Z" fill="#7F94A2"/>
<path d="M350.501 486.963L243.34 519.436C242.876 519.668 242.18 519.204 241.948 518.741C241.716 518.277 242.18 517.581 242.644 517.349L349.806 484.876C350.27 484.644 350.965 485.108 351.197 485.572C351.429 486.268 351.197 486.731 350.501 486.963Z" fill="#657481"/>
<path d="M360.243 518.509L253.082 550.982C252.618 551.214 251.922 550.75 251.69 550.286C251.458 549.822 251.922 549.126 252.386 548.894L359.547 516.421C360.011 516.189 360.707 516.653 360.939 517.117C361.171 517.813 360.707 518.277 360.243 518.509Z" fill="#657481"/>
<path d="M368.362 545.415L261.2 577.888C260.736 578.12 260.04 577.656 259.809 577.192C259.577 576.728 260.04 576.032 260.504 575.801L367.666 543.327C368.13 543.095 368.825 543.559 369.057 544.023C369.289 544.719 368.825 545.183 368.362 545.415Z" fill="#657481"/>
<path d="M110.2 122.8C110.2 122.8 23.2187 198.88 70.3047 313.696C106.953 402.997 171.435 380.73 201.125 442.893C230.815 505.056 238.701 508.071 258.185 503.2C277.669 498.097 337.744 487.427 344.935 468.639C351.893 449.851 327.074 403.925 360.011 321.582C392.948 239.472 360.011 156.897 310.606 116.77C261.2 76.6421 173.987 70.6114 110.2 122.8Z" fill="#F1D047"/>
<path d="M176.538 82.2089C176.538 82.2089 129.22 95.894 129.452 123.264C129.684 150.634 187.208 209.782 295.993 191.922C359.547 181.484 350.501 150.402 332.177 126.28C312.229 100.301 282.771 83.1367 250.53 78.4977C230.582 75.2504 205.764 75.0184 176.538 82.2089Z" fill="#F5DD80"/>
<path d="M202.052 81.745C202.052 81.745 173.059 90.0953 173.059 107.028C173.059 123.96 208.547 160.144 275.581 149.243C314.549 142.748 309.214 123.728 297.848 108.883C285.555 92.8787 267.463 82.4409 247.515 79.4255C235.453 77.5699 220.145 77.338 202.052 81.745Z" fill="#FCF7E5"/>
<path d="M65.6657 213.725C58.9391 213.725 53.1403 218.596 52.2125 225.323C49.6611 242.951 48.2693 277.976 65.8976 314.16C90.9483 365.653 117.855 390.936 145.921 395.807C145.921 395.807 161.693 395.111 160.766 384.905C159.838 374.699 102.314 345.473 87.0052 302.794C77.0313 274.96 77.4952 245.27 79.1188 228.338C79.8147 220.452 73.552 213.725 65.6657 213.725Z" fill="#FCF7E5"/>
<path d="M81.902 193.313C83.5257 198.88 80.5103 204.911 74.9435 206.535C69.3767 208.158 63.346 205.143 61.7223 199.576C60.0986 194.009 63.114 187.979 68.6808 186.355C74.4796 184.499 80.2784 187.747 81.902 193.313Z" fill="#FCF7E5"/>
<path opacity="0.29" d="M202.749 416.218C190.687 415.754 183.265 429.671 190.455 439.413C193.702 444.052 197.414 449.155 201.125 454.722C218.289 480.933 218.057 512.478 261.896 504.592C305.503 496.705 344.471 477.453 344.471 477.453C344.471 477.453 354.213 473.046 350.037 446.604C348.182 434.542 348.414 420.857 349.574 409.26C350.269 399.982 340.759 393.255 332.177 397.198C310.606 407.172 270.478 418.538 202.749 416.218Z" fill="#D0943A"/>
<path d="M271.174 487.427C271.174 487.427 237.309 360.782 162.853 351.504C162.853 351.504 220.609 360.318 264.447 489.515C264.447 489.283 267.927 491.139 271.174 487.427Z" fill="#FFFDE8"/>
<path d="M314.317 474.206C314.317 474.206 272.102 350.112 328.698 300.939C328.698 300.939 285.555 340.602 320.811 472.118C321.043 472.118 319.188 475.598 314.317 474.206Z" fill="#FFFDE8"/>
<path d="M181.177 359.158C190.687 370.292 214.81 370.988 225.711 361.71C239.86 349.648 222 327.381 206.923 328.077C192.774 328.541 190.223 340.37 198.341 350.808C210.635 366.813 232.67 365.653 249.138 357.071C258.88 352.2 271.638 343.386 273.493 331.556C274.885 322.742 268.854 315.552 260.968 312.304C250.53 307.897 230.814 310.681 232.206 325.525C234.062 343.85 255.865 354.055 271.87 348.257C286.019 343.154 311.069 311.145 288.802 300.939C283.931 298.619 275.117 299.547 271.638 304.186C267.231 309.985 271.406 320.191 274.653 325.525C286.715 344.777 306.662 334.108 316.636 319.263C317.332 318.335 310.374 318.567 309.214 320.423C304.575 327.149 298.08 335.499 289.266 330.86C285.323 328.773 282.307 324.134 280.452 320.191C278.132 315.552 274.421 297.227 284.627 305.578C296.688 315.32 283.003 338.979 273.029 344.082C259.576 350.808 244.268 340.37 240.324 327.149C236.149 313.464 250.298 311.145 259.344 318.567C270.942 328.077 264.215 341.298 254.473 349.184C241.252 359.854 223.624 364.493 209.707 352.664C205.764 349.184 197.645 339.674 201.125 333.412C207.387 322.742 222.696 345.241 222.696 352.432C222.696 365.421 204.14 365.885 194.862 361.246C192.31 360.086 189.759 358.231 187.903 356.143C187.208 354.983 180.017 357.767 181.177 359.158Z" fill="white"/>
<path d="M223.16 84.0645C223.16 84.0645 249.37 80.1214 274.653 96.126C300.168 112.131 198.341 93.1106 223.16 84.0645Z" fill="white"/>
<path d="M295.297 110.739C295.993 112.826 294.833 114.914 292.746 115.378C290.658 116.074 288.571 114.914 288.107 112.826C287.411 110.739 288.57 108.651 290.658 108.187C292.514 107.492 294.601 108.651 295.297 110.739Z" fill="white"/>
<path d="M68.6809 231.585C69.6087 234.833 67.7531 238.312 64.5058 239.24C61.2585 240.168 57.7792 238.312 56.8514 235.065C55.9236 231.817 57.7792 228.338 61.0265 227.41C64.2738 226.482 67.7531 228.338 68.6809 231.585Z" fill="white"/>
<path d="M72.624 191.69C73.3199 194.009 71.9281 196.329 69.8406 197.025C67.5211 197.72 65.2016 196.329 64.5057 194.241C63.8099 192.154 65.2016 189.602 67.2891 188.906C69.6086 188.21 72.1601 189.37 72.624 191.69Z" fill="white"/>
<path d="M150.095 21.6698C228.959 -2.45313 323.131 15.871 377.175 80.3533C382.046 86.1521 390.164 77.8019 385.293 72.2351C328.929 4.73734 229.422 -14.5146 147.08 10.5361C139.889 12.6237 142.905 23.7573 150.095 21.6698Z" fill="white"/>
<path d="M123.885 32.3395C123.885 37.4424 119.71 41.3856 114.839 41.3856C109.736 41.3856 105.792 37.2105 105.792 32.3395C105.792 27.4685 109.968 23.2934 114.839 23.2934C119.71 23.2934 123.885 27.2366 123.885 32.3395Z" fill="white"/>
<path d="M0.254906 325.526C13.2442 374.931 53.8356 417.378 97.4424 441.501C103.937 445.212 109.736 435.006 103.241 431.527C62.1858 408.796 23.682 369.132 11.3886 322.51C9.53294 315.088 -1.83265 318.335 0.254906 325.526Z" fill="white"/>
<path d="M121.334 457.506C125.561 457.506 128.988 454.079 128.988 449.851C128.988 445.624 125.561 442.197 121.334 442.197C117.106 442.197 113.679 445.624 113.679 449.851C113.679 454.079 117.106 457.506 121.334 457.506Z" fill="white"/>
</svg>
