<svg width="146" height="168" viewBox="0 0 146 168" fill="none" xmlns="http://www.w3.org/2000/svg">
<path d="M140.505 147.845C139.127 142.203 136.418 136.973 132.604 132.593C128.791 128.213 123.983 124.81 118.585 122.669L105.232 117.375C105.306 118.836 105.123 120.299 104.692 121.697L90.692 167.249H145.245L140.505 147.845Z" fill="#454F6B"/>
<path d="M87 112.369C85.4274 114.623 83.3336 116.465 80.8967 117.736C78.4597 119.007 75.7517 119.671 73.003 119.671C70.2544 119.671 67.5464 119.007 65.1094 117.736C62.6724 116.465 60.5786 114.623 59.006 112.369L57.79 110.626L64.253 167.249H81.753L88.216 110.626L87 112.369Z" fill="#B0B369"/>
<path d="M40.767 117.375L27.415 122.669C22.0165 124.81 17.2094 128.213 13.3958 132.593C9.58216 136.973 6.87301 142.203 5.49501 147.845L0.757019 167.245H55.31L41.31 121.693C40.879 120.296 40.6952 118.835 40.767 117.375V117.375Z" fill="#454F6B"/>
<path d="M60.741 109.454V99.832L47.446 106.876C44.8584 108.246 42.8297 110.476 41.7093 113.182C40.5889 115.887 40.447 118.898 41.308 121.697L55.308 167.249H64.248L57.785 110.626L60.741 109.454Z" fill="#55617C"/>
<path d="M105.232 117.375C105.124 115.196 104.452 113.083 103.281 111.242C102.111 109.401 100.482 107.896 98.554 106.875L85.259 99.831V109.453L88.213 110.625L81.75 167.248H90.69L104.69 121.696C105.122 120.298 105.305 118.836 105.232 117.375V117.375Z" fill="#55617C"/>
<g opacity="0.5">
<path opacity="0.5" d="M27.97 165.409C29.8471 153.856 27.2082 142.024 20.6 132.364C22.075 136.916 23.938 142.722 25.247 148.672C26.59 154.615 27.371 160.663 27.97 165.409Z" fill="#3C3247"/>
</g>
<g opacity="0.5">
<path opacity="0.5" d="M118.03 165.409C116.152 153.856 118.791 142.024 125.4 132.364C123.925 136.916 122.062 142.722 120.753 148.672C119.41 154.615 118.629 160.663 118.03 165.409Z" fill="#3C3247"/>
</g>
<path d="M84.469 99.749C81.494 103.837 77.606 106.104 73.569 106.104H72.428C68.393 106.104 64.505 103.837 61.528 99.749L60.738 98.662V109.454L57.784 110.626L59 112.369C60.5726 114.623 62.6664 116.465 65.1034 117.736C67.5403 119.007 70.2483 119.671 72.997 119.671C75.7457 119.671 78.4537 119.007 80.8906 117.736C83.3276 116.465 85.4214 114.623 86.994 112.369L88.21 110.626L85.256 109.454V98.662L84.469 99.749Z" fill="#BD6C67"/>
<path d="M72.429 106.1H73.57C77.606 106.1 81.494 103.833 84.47 99.745L85.26 98.658V84.348H60.741V98.658L61.531 99.745C64.506 103.837 68.394 106.1 72.429 106.1Z" fill="#3C3247"/>
<path d="M73 100.351C100.476 100.351 122.75 78.0772 122.75 50.601C122.75 23.1248 100.476 0.851013 73 0.851013C45.5238 0.851013 23.25 23.1248 23.25 50.601C23.25 78.0772 45.5238 100.351 73 100.351Z" fill="#D1D1D1"/>
<path d="M44.9415 78.0078C49.527 76.119 51.7132 70.8706 49.8245 66.2851C47.9357 61.6996 42.6873 59.5134 38.1018 61.4022C33.5163 63.2909 31.3301 68.5393 33.2189 73.1248C35.1076 77.7103 40.356 79.8965 44.9415 78.0078Z" fill="#A64F5A"/>
<path d="M46.588 69.706C46.5878 70.7093 46.2901 71.69 45.7326 72.5242C45.175 73.3583 44.3827 74.0083 43.4557 74.3921C42.5287 74.7759 41.5087 74.8763 40.5247 74.6804C39.5407 74.4846 38.6369 74.0013 37.9275 73.2918C37.2181 72.5823 36.7351 71.6784 36.5394 70.6943C36.3438 69.7103 36.4443 68.6903 36.8283 67.7634C37.2123 66.8365 37.8625 66.0443 38.6967 65.4869C39.531 64.9295 40.5117 64.632 41.515 64.632C42.1813 64.632 42.8411 64.7633 43.4566 65.0183C44.0722 65.2733 44.6314 65.647 45.1025 66.1182C45.5736 66.5894 45.9473 67.1488 46.2022 67.7644C46.457 68.38 46.5881 69.0397 46.588 69.706Z" fill="#8C404C"/>
<path d="M112.794 73.1269C114.683 68.5414 112.497 63.293 107.912 61.4043C103.326 59.5155 98.0776 61.7017 96.1889 66.2872C94.3001 70.8727 96.4863 76.1211 101.072 78.0099C105.657 79.8986 110.906 77.7124 112.794 73.1269Z" fill="#A64F5A"/>
<path d="M99.411 69.706C99.411 70.7096 99.7086 71.6906 100.266 72.525C100.824 73.3594 101.616 74.0097 102.543 74.3938C103.47 74.7778 104.491 74.8783 105.475 74.6825C106.459 74.4867 107.363 74.0035 108.073 73.2939C108.782 72.5843 109.266 71.6802 109.462 70.6959C109.657 69.7116 109.557 68.6914 109.173 67.7643C108.789 66.8371 108.138 66.0447 107.304 65.4871C106.47 64.9296 105.489 64.632 104.485 64.632C103.819 64.632 103.159 64.7633 102.543 65.0182C101.928 65.2732 101.368 65.647 100.897 66.1181C100.426 66.5893 100.052 67.1487 99.7973 67.7643C99.5423 68.3799 99.411 69.0397 99.411 69.706Z" fill="#8C404C"/>
<path d="M42.833 66H45.653L47.5 49.833H41.515L42.833 66Z" fill="#D1D1D1"/>
<path d="M98.5 49.832L100.347 66H103.167L104.485 49.833L98.5 49.832Z" fill="#D1D1D1"/>
<path d="M73 34.582C62.041 34.582 52.566 36.819 48.024 40.07C46.4583 43.573 45.6504 47.3671 45.653 51.204V67.187C45.6531 72.2048 46.6965 77.1678 48.717 81.7608C50.7376 86.3538 53.6911 90.4765 57.39 93.867L58.529 94.911C62.2823 98.3513 67.1886 100.26 72.28 100.26H73.72C78.8114 100.26 83.7178 98.3513 87.471 94.911L88.61 93.867C92.3086 90.4762 95.2619 86.3534 97.2824 81.7605C99.3029 77.1676 100.347 72.2047 100.347 67.187V51.2C100.35 47.3631 99.5417 43.569 97.976 40.066C93.434 36.819 83.959 34.582 73 34.582Z" fill="#BD6C67"/>
<path d="M60.78 63.211C62.1502 63.211 63.261 62.1002 63.261 60.73C63.261 59.3598 62.1502 58.249 60.78 58.249C59.4098 58.249 58.299 59.3598 58.299 60.73C58.299 62.1002 59.4098 63.211 60.78 63.211Z" fill="#D1D1D1"/>
<path d="M85.22 63.211C86.5902 63.211 87.701 62.1002 87.701 60.73C87.701 59.3598 86.5902 58.249 85.22 58.249C83.8498 58.249 82.739 59.3598 82.739 60.73C82.739 62.1002 83.8498 63.211 85.22 63.211Z" fill="#D1D1D1"/>
<path d="M79.379 73.516C75.1721 72.636 70.8288 72.634 66.621 73.51C67.3976 74.536 68.3792 75.3891 69.5034 76.0151C70.6276 76.6411 71.8699 77.0262 73.151 77.146C74.4271 77.1974 75.6914 76.8831 76.7948 76.24C77.8982 75.5968 78.7948 74.6517 79.379 73.516V73.516Z" fill="#A64F5A"/>
<path d="M60.2 50.621C58.6027 50.5302 57.0048 50.7866 55.5162 51.3727C54.0275 51.9588 52.6836 52.8606 51.577 54.016C57.1482 54.6448 62.7486 54.9812 68.355 55.024C67.3944 53.7446 66.168 52.6886 64.7602 51.9285C63.3524 51.1684 61.7967 50.7223 60.2 50.621V50.621Z" fill="#D1D1D1"/>
<path d="M85.8 50.621C87.3973 50.5302 88.9952 50.7866 90.4839 51.3727C91.9725 51.9588 93.3164 52.8606 94.423 54.016C88.8518 54.6448 83.2515 54.9812 77.645 55.024C78.6055 53.7445 79.8319 52.6884 81.2397 51.9283C82.6475 51.1682 84.2033 50.7222 85.8 50.621V50.621Z" fill="#D1D1D1"/>
<path d="M82.584 81.75C76.3072 83.4092 69.7515 83.7288 63.343 82.688C64.3839 84.3939 65.8399 85.8082 67.5753 86.799C69.3108 87.7898 71.2689 88.3248 73.267 88.354C77.211 88.269 80.665 85.2 82.584 81.75Z" fill="white"/>
<path opacity="0.3" d="M60.78 71.461C65.3364 71.461 69.03 67.7673 69.03 63.211C69.03 58.6546 65.3364 54.961 60.78 54.961C56.2237 54.961 52.53 58.6546 52.53 63.211C52.53 67.7673 56.2237 71.461 60.78 71.461Z" fill="white"/>
<path opacity="0.3" d="M85.22 71.461C89.7764 71.461 93.47 67.7673 93.47 63.211C93.47 58.6546 89.7764 54.961 85.22 54.961C80.6637 54.961 76.97 58.6546 76.97 63.211C76.97 67.7673 80.6637 71.461 85.22 71.461Z" fill="white"/>
<path d="M85.22 52.961C83.0722 52.9646 80.9797 53.642 79.2374 54.8978C77.495 56.1537 76.1906 57.9246 75.508 59.961C74.7633 59.471 73.8914 59.2099 73 59.2099C72.1086 59.2099 71.2367 59.471 70.492 59.961C69.6696 57.5264 67.9609 55.4906 65.7059 54.2584C63.4508 53.0262 60.8146 52.6879 58.3215 53.3108C55.8284 53.9337 53.6611 55.4722 52.2506 57.6202C50.8401 59.7683 50.2898 62.3685 50.7091 64.9038C51.1284 67.4391 52.4866 69.7237 54.5136 71.3032C56.5406 72.8828 59.0878 73.6415 61.6487 73.4286C64.2096 73.2156 66.5965 72.0466 68.3348 70.1539C70.073 68.2613 71.0352 65.7837 71.03 63.214C71.03 62.958 71.01 62.707 70.991 62.456H71.03C71.03 61.867 71.839 61.21 73 61.21C74.161 61.21 74.97 61.867 74.97 62.456H75.008C74.99 62.707 74.97 62.956 74.97 63.214C74.97 65.2413 75.5712 67.223 76.6975 68.9086C77.8237 70.5942 79.4246 71.908 81.2975 72.6838C83.1704 73.4596 85.2314 73.6625 87.2197 73.267C89.208 72.8715 91.0344 71.8953 92.4679 70.4618C93.9013 69.0283 94.8776 67.202 95.2731 65.2137C95.6686 63.2254 95.4656 61.1644 94.6898 59.2915C93.914 57.4186 92.6002 55.8177 90.9146 54.6914C89.229 53.5652 87.2473 52.964 85.22 52.964V52.961ZM52.53 63.211C52.53 61.5793 53.0139 59.9843 53.9204 58.6275C54.8269 57.2708 56.1154 56.2134 57.6229 55.589C59.1304 54.9646 60.7892 54.8012 62.3895 55.1195C63.9899 55.4379 65.4599 56.2236 66.6137 57.3774C67.7674 58.5312 68.5532 60.0012 68.8715 61.6015C69.1898 63.2018 69.0265 64.8606 68.402 66.3681C67.7776 67.8756 66.7202 69.1641 65.3635 70.0706C64.0068 70.9771 62.4117 71.461 60.78 71.461C58.5927 71.4586 56.4957 70.5887 54.949 69.042C53.4024 67.4953 52.5324 65.3983 52.53 63.211V63.211ZM76.97 63.211C76.97 61.5793 77.4539 59.9843 78.3604 58.6275C79.2669 57.2708 80.5554 56.2134 82.0629 55.589C83.5704 54.9646 85.2292 54.8012 86.8295 55.1195C88.4299 55.4379 89.8999 56.2236 91.0536 57.3774C92.2074 58.5312 92.9932 60.0012 93.3115 61.6015C93.6298 63.2018 93.4665 64.8606 92.842 66.3681C92.2176 67.8756 91.1602 69.1641 89.8035 70.0706C88.4468 70.9771 86.8517 71.461 85.22 71.461C83.0327 71.4586 80.9357 70.5887 79.389 69.042C77.8424 67.4953 76.9724 65.3983 76.97 63.211V63.211Z" fill="#454F6B"/>
<path opacity="0.5" d="M57.194 59.489C57.1942 59.7346 57.1216 59.9746 56.9853 60.1789C56.849 60.3831 56.6552 60.5423 56.4284 60.6364C56.2016 60.7304 55.952 60.7551 55.7111 60.7072C55.4703 60.6594 55.2491 60.5412 55.0755 60.3675C54.9019 60.1939 54.7837 59.9727 54.7358 59.7319C54.688 59.4911 54.7126 59.2415 54.8067 59.0146C54.9007 58.7878 55.0599 58.594 55.2642 58.4578C55.4684 58.3215 55.7085 58.2488 55.954 58.249C56.2829 58.249 56.5983 58.3797 56.8308 58.6122C57.0634 58.8448 57.194 59.1602 57.194 59.489V59.489Z" fill="white"/>
<path opacity="0.5" d="M55.31 61.875C55.31 61.9937 55.2748 62.1097 55.2089 62.2084C55.143 62.307 55.0493 62.3839 54.9396 62.4294C54.83 62.4748 54.7093 62.4866 54.593 62.4635C54.4766 62.4403 54.3697 62.3832 54.2857 62.2993C54.2018 62.2154 54.1447 62.1085 54.1215 61.9921C54.0984 61.8757 54.1103 61.7551 54.1557 61.6454C54.2011 61.5358 54.278 61.4421 54.3767 61.3761C54.4753 61.3102 54.5913 61.275 54.71 61.275C54.8691 61.275 55.0218 61.3382 55.1343 61.4508C55.2468 61.5633 55.31 61.7159 55.31 61.875V61.875Z" fill="white"/>
<path opacity="0.5" d="M81.694 59.489C81.694 59.7343 81.6213 59.974 81.485 60.1779C81.3488 60.3818 81.1551 60.5408 80.9285 60.6346C80.702 60.7285 80.4526 60.753 80.2121 60.7052C79.9716 60.6574 79.7506 60.5393 79.5772 60.3658C79.4038 60.1924 79.2857 59.9715 79.2378 59.7309C79.19 59.4904 79.2145 59.2411 79.3084 59.0145C79.4022 58.7879 79.5612 58.5943 79.7651 58.458C79.969 58.3217 80.2088 58.249 80.454 58.249C80.7829 58.249 81.0983 58.3797 81.3308 58.6122C81.5634 58.8448 81.694 59.1602 81.694 59.489V59.489Z" fill="white"/>
<path opacity="0.5" d="M79.81 61.875C79.81 61.9937 79.7748 62.1097 79.7089 62.2084C79.643 62.307 79.5493 62.3839 79.4396 62.4294C79.33 62.4748 79.2094 62.4866 79.093 62.4635C78.9766 62.4403 78.8697 62.3832 78.7857 62.2993C78.7018 62.2154 78.6447 62.1085 78.6215 61.9921C78.5984 61.8757 78.6103 61.7551 78.6557 61.6454C78.7011 61.5358 78.778 61.4421 78.8767 61.3761C78.9753 61.3102 79.0913 61.275 79.21 61.275C79.3691 61.275 79.5218 61.3382 79.6343 61.4508C79.7468 61.5633 79.81 61.7159 79.81 61.875V61.875Z" fill="white"/>
<path d="M100.472 66L96.5 77.157C96.3925 77.4586 96.2216 77.7336 95.9987 77.9635C95.7759 78.1933 95.5063 78.3727 95.2082 78.4895C94.9101 78.6063 94.5904 78.6577 94.2707 78.6404C93.951 78.6231 93.6388 78.5373 93.355 78.389L90.529 76.911C88.7686 75.9903 86.7735 75.6157 84.799 75.835L73 77.146L61.328 75.835C59.3535 75.6157 57.3585 75.9903 55.598 76.911L52.772 78.389C52.4883 78.5373 52.176 78.6231 51.8563 78.6404C51.5366 78.6577 51.2169 78.6063 50.9188 78.4895C50.6207 78.3727 50.3512 78.1933 50.1283 77.9635C49.9054 77.7336 49.7345 77.4586 49.627 77.157L45.653 66H42.833V72.957C42.8343 79.476 44.5964 85.8736 47.933 91.474L48.752 92.85C50.7524 96.2103 53.5915 98.9932 56.9912 100.926C60.3909 102.859 64.2344 103.875 68.145 103.875H77.99C81.9006 103.875 85.7441 102.858 89.1438 100.926C92.5434 98.9931 95.3826 96.2102 97.383 92.85L98.202 91.474C101.539 85.8736 103.301 79.476 103.302 72.957V66H100.472ZM85.859 83.042L83.783 89.253C83.4973 90.1081 82.9333 90.8427 82.181 91.3396C81.4287 91.8364 80.5316 92.0669 79.633 91.994L78.741 91.922C77.3804 91.8109 76.1115 91.1914 75.187 90.187H70.937C70.0131 91.1916 68.7444 91.8111 67.384 91.922L66.492 91.994C65.5934 92.0669 64.6963 91.8364 63.944 91.3396C63.1918 90.8427 62.6277 90.1081 62.342 89.253L60.266 83.042C60.1775 82.7766 60.1574 82.4932 60.2075 82.218C60.2577 81.9428 60.3764 81.6846 60.5528 81.4675C60.7291 81.2504 60.9574 81.0812 61.2165 80.9757C61.4756 80.8702 61.7571 80.8318 62.035 80.864L66.368 81.364C68.5516 81.6173 70.7641 81.3627 72.833 80.62L73 80.56L73.292 80.62C75.3609 81.3627 77.5735 81.6173 79.757 81.364L84.09 80.864C84.3678 80.8319 84.6492 80.8703 84.9082 80.9758C85.1671 81.0812 85.3954 81.2502 85.5717 81.4673C85.748 81.6843 85.8668 81.9422 85.917 82.2173C85.9672 82.4924 85.9473 82.7757 85.859 83.041V83.042Z" fill="#D1D1D1"/>
</svg>
