<svg width="794" height="727" viewBox="0 0 794 727" fill="none" xmlns="http://www.w3.org/2000/svg">
<path d="M267.419 246.616H747.948C760.017 246.616 769.862 256.462 769.862 268.531V639.964C769.862 652.033 760.017 661.878 747.948 661.878H267.419C255.35 661.878 245.505 652.033 245.505 639.964V268.69C245.346 256.462 255.192 246.616 267.419 246.616Z" fill="#F2F5F4"/>
<path d="M243.123 220.256H723.652C735.72 220.256 745.566 230.101 745.566 242.17V613.444C745.566 625.513 735.72 635.359 723.652 635.359H243.123C231.054 635.359 221.208 625.513 221.208 613.444V242.17C221.208 230.101 231.054 220.256 243.123 220.256Z" fill="white" stroke="#F2F5F4" stroke-miterlimit="10"/>
<path d="M243.123 229.466H723.652C735.72 229.466 745.566 239.312 745.566 251.38V268.372H221.05V251.38C221.208 239.312 231.054 229.466 243.123 229.466Z" fill="#F2F5F4"/>
<path d="M243.123 220.256H723.652C735.72 220.256 745.566 230.101 745.566 242.17V259.162H221.05V242.17C221.208 230.101 231.054 220.256 243.123 220.256Z" fill="white"/>
<path d="M718.729 246.458C715.045 246.458 712.059 243.472 712.059 239.788C712.059 236.104 715.045 233.118 718.729 233.118C722.412 233.118 725.398 236.104 725.398 239.788C725.398 243.472 722.412 246.458 718.729 246.458Z" fill="#D57548"/>
<path d="M685.698 239.788C685.698 243.44 688.715 246.458 692.368 246.458C696.02 246.458 699.037 243.44 699.037 239.788C699.037 236.136 696.02 233.118 692.368 233.118C688.557 233.118 685.698 236.136 685.698 239.788Z" fill="#FFB72F"/>
<path d="M659.179 239.788C659.179 243.44 662.196 246.458 665.848 246.458C669.501 246.458 672.518 243.44 672.518 239.788C672.518 236.136 669.501 233.118 665.848 233.118C662.196 233.118 659.179 236.136 659.179 239.788Z" fill="#AABC95"/>
<path d="M380.961 292.827H279.805" stroke="#F2F5F4" stroke-width="5" stroke-miterlimit="10" stroke-linecap="round" stroke-linejoin="round"/>
<path d="M380.961 312.36H279.805" stroke="#F2F5F4" stroke-width="5" stroke-miterlimit="10" stroke-linecap="round" stroke-linejoin="round"/>
<path d="M380.961 332.051H279.805" stroke="#F2F5F4" stroke-width="5" stroke-miterlimit="10" stroke-linecap="round" stroke-linejoin="round"/>
<path d="M380.961 351.583H279.805" stroke="#F2F5F4" stroke-width="5" stroke-miterlimit="10" stroke-linecap="round" stroke-linejoin="round"/>
<path d="M380.961 371.274H279.805" stroke="#F2F5F4" stroke-width="5" stroke-miterlimit="10" stroke-linecap="round" stroke-linejoin="round"/>
<path d="M706.501 410.498H279.805" stroke="#F2F5F4" stroke-width="5" stroke-miterlimit="10" stroke-linecap="round" stroke-linejoin="round"/>
<path d="M706.501 430.03H279.805" stroke="#F2F5F4" stroke-width="5" stroke-miterlimit="10" stroke-linecap="round" stroke-linejoin="round"/>
<path d="M706.501 449.722H279.805" stroke="#F2F5F4" stroke-width="5" stroke-miterlimit="10" stroke-linecap="round" stroke-linejoin="round"/>
<path d="M706.501 469.254H279.805" stroke="#F2F5F4" stroke-width="5" stroke-miterlimit="10" stroke-linecap="round" stroke-linejoin="round"/>
<path d="M706.501 488.945H279.805" stroke="#F2F5F4" stroke-width="5" stroke-miterlimit="10" stroke-linecap="round" stroke-linejoin="round"/>
<path d="M525.787 520.546H373.18" stroke="#F2F5F4" stroke-width="5" stroke-miterlimit="10" stroke-linecap="round" stroke-linejoin="round"/>
<path d="M525.787 540.238H373.18" stroke="#F2F5F4" stroke-width="5" stroke-miterlimit="10" stroke-linecap="round" stroke-linejoin="round"/>
<path d="M525.787 559.77H373.18" stroke="#F2F5F4" stroke-width="5" stroke-miterlimit="10" stroke-linecap="round" stroke-linejoin="round"/>
<path d="M525.787 579.461H419.073" stroke="#F2F5F4" stroke-width="5" stroke-miterlimit="10" stroke-linecap="round" stroke-linejoin="round"/>
<path d="M525.787 598.994H419.073" stroke="#F2F5F4" stroke-width="5" stroke-miterlimit="10" stroke-linecap="round" stroke-linejoin="round"/>
<path d="M398.061 346.948C391.326 317.99 409.343 289.056 438.301 282.322C467.259 275.587 496.193 293.604 502.928 322.562C509.662 351.52 491.646 380.455 462.687 387.189C433.729 393.923 404.795 375.907 398.061 346.948Z" stroke="#F2F5F4" stroke-width="5" stroke-miterlimit="10" stroke-linecap="round" stroke-linejoin="round"/>
<path d="M450.515 280.917V334.75L410.974 371.274" stroke="#F2F5F4" stroke-width="5" stroke-miterlimit="10" stroke-linecap="round" stroke-linejoin="round"/>
<path d="M602.149 573.886C595.415 544.928 613.431 515.994 642.389 509.259C671.348 502.525 700.282 520.542 707.016 549.5C713.75 578.458 695.734 607.392 666.776 614.127C637.818 620.861 608.883 602.844 602.149 573.886Z" stroke="#F2F5F4" stroke-width="5" stroke-miterlimit="10" stroke-linecap="round" stroke-linejoin="round"/>
<path d="M654.573 507.842V561.676L615.032 598.2" stroke="#F2F5F4" stroke-width="5" stroke-miterlimit="10" stroke-linecap="round" stroke-linejoin="round"/>
<path d="M260.75 514.83H357.776V600.899H260.75V514.83Z" stroke="#F2F5F4" stroke-width="5" stroke-miterlimit="10" stroke-linecap="round" stroke-linejoin="round"/>
<path d="M708.407 291.716L619.955 377.785H708.407V291.716Z" stroke="#F2F5F4" stroke-width="5" stroke-miterlimit="10" stroke-linecap="round" stroke-linejoin="round"/>
<path d="M77.3356 210.092H284.57C296.638 210.092 306.484 219.938 306.484 232.007V354.918C306.484 366.987 296.638 376.832 284.57 376.832H77.3356C65.2668 376.832 55.4212 366.987 55.4212 354.918V232.007C55.4212 219.938 65.108 210.092 77.3356 210.092Z" fill="#F2F5F4"/>
<path d="M57.8032 193.26H265.037C277.106 193.26 286.952 203.105 286.952 215.174V338.085C286.952 350.154 277.106 360 265.037 360H57.8032C45.7344 360 35.8888 350.154 35.8888 338.085V215.174C35.8888 203.105 45.7344 193.26 57.8032 193.26Z" fill="white" stroke="#F1F1F3" stroke-miterlimit="10"/>
<path d="M57.8032 202.47H265.037C277.106 202.47 286.952 212.316 286.952 224.384V241.376H35.73V224.384C35.8888 212.316 45.7344 202.47 57.8032 202.47Z" fill="#F2F5F4"/>
<path d="M57.8032 193.26H265.037C277.106 193.26 286.952 203.105 286.952 215.174V232.166H35.73V215.174C35.8888 203.105 45.7344 193.26 57.8032 193.26Z" fill="white" stroke="#F1F1F3" stroke-miterlimit="10"/>
<path d="M177.697 212.633H143.873" stroke="#E3E9E7" stroke-width="5" stroke-miterlimit="10" stroke-linecap="round" stroke-linejoin="round"/>
<path d="M128.152 212.633H59.7089" stroke="#E3E9E7" stroke-width="5" stroke-miterlimit="10" stroke-linecap="round" stroke-linejoin="round"/>
<path d="M253.445 212.633C253.445 216.286 256.462 219.303 260.114 219.303C263.767 219.303 266.784 216.286 266.784 212.633C266.784 208.981 263.767 205.964 260.114 205.964C256.462 205.964 253.445 208.981 253.445 212.633Z" fill="#FFF1EA"/>
<path d="M226.925 212.633C226.925 216.286 229.942 219.303 233.595 219.303C237.247 219.303 240.264 216.286 240.264 212.633C240.264 208.981 237.247 205.964 233.595 205.964C229.942 205.964 226.925 208.981 226.925 212.633Z" fill="#FFF1D8"/>
<path d="M200.564 212.633C200.564 216.286 203.582 219.303 207.234 219.303C210.886 219.303 213.904 216.286 213.904 212.633C213.904 208.981 210.886 205.964 207.234 205.964C203.582 206.122 200.564 208.981 200.564 212.633Z" fill="#EAEAEA"/>
<path d="M250.745 319.347C202.629 266.625 155.148 319.347 155.148 319.347C105.443 264.72 59.5499 319.347 59.5499 319.347" stroke="#FBDD9E" stroke-miterlimit="10"/>
<path d="M250.745 319.347H59.7087" stroke="#AEAEAE" stroke-miterlimit="10"/>
<path d="M59.7087 309.184V325.222" stroke="#AEAEAE" stroke-miterlimit="10"/>
<path d="M250.745 309.184V325.222" stroke="#AEAEAE" stroke-miterlimit="10"/>
<path d="M57.6444 293.304H61.7732C63.2024 293.304 64.314 294.415 64.314 295.844V299.973C64.314 301.402 63.2024 302.514 61.7732 302.514H57.6444C56.2152 302.514 55.1037 301.402 55.1037 299.973V295.844C54.9449 294.574 56.2152 293.304 57.6444 293.304Z" stroke="#AEAEAE" stroke-miterlimit="10"/>
<path d="M248.681 293.304H252.81C254.239 293.304 255.35 294.415 255.35 295.844V299.973C255.35 301.402 254.239 302.514 252.81 302.514H248.681C247.252 302.514 246.14 301.402 246.14 299.973V295.844C246.14 294.574 247.252 293.304 248.681 293.304Z" stroke="#AEAEAE" stroke-miterlimit="10"/>
<path d="M153.083 326.175H157.212C158.641 326.175 159.753 327.287 159.753 328.716V332.845C159.753 334.274 158.641 335.386 157.212 335.386H153.083C151.654 335.386 150.542 334.274 150.542 332.845V328.716C150.542 327.287 151.654 326.175 153.083 326.175Z" stroke="#AEAEAE" stroke-miterlimit="10"/>
<path d="M155.148 344.755C147.43 344.755 141.173 338.498 141.173 330.78C141.173 323.063 147.43 316.806 155.148 316.806C162.865 316.806 169.122 323.063 169.122 330.78C169.122 338.498 162.865 344.755 155.148 344.755Z" stroke="#C43F00" stroke-miterlimit="10"/>
<path d="M247.093 278.694L248.998 275.677L250.904 278.694C251.222 279.17 251.857 279.647 252.492 279.647H253.286C254.874 279.647 255.668 277.9 254.874 276.63L251.857 272.342L254.715 268.213C255.668 266.943 254.715 265.196 253.127 265.196H252.333C251.698 265.196 251.063 265.514 250.745 265.99L248.84 268.848L246.934 266.149C246.616 265.672 245.981 265.355 245.346 265.355H244.87C243.282 265.355 242.488 267.102 243.282 268.372L246.14 272.342L242.964 276.788C242.011 278.059 242.964 279.806 244.552 279.806H245.505C246.14 279.488 246.775 279.17 247.093 278.694Z" fill="#EAEAEA"/>
<path d="M212.316 274.248V277.582C212.316 278.694 213.11 279.488 214.221 279.488H215.333C216.444 279.488 217.238 278.694 217.238 277.582V274.248L221.05 268.054C221.844 266.784 220.891 265.196 219.462 265.196H218.668C218.032 265.196 217.397 265.514 217.08 266.149L214.698 270.278L212.316 266.149C211.998 265.514 211.363 265.196 210.728 265.196H210.41C208.981 265.196 208.028 266.784 208.822 268.054L212.316 274.248Z" fill="#EAEAEA"/>
<path d="M178.809 277.582C178.809 278.694 179.603 279.488 180.714 279.488H189.766C191.036 279.488 191.989 278.535 191.989 277.265C191.989 276.788 191.83 276.312 191.513 275.994L185.32 268.848H189.766C190.878 268.848 191.672 268.054 191.672 266.943C191.672 265.831 190.878 265.037 189.766 265.037H181.191C179.92 265.037 178.968 265.99 178.968 267.26C178.968 267.737 179.126 268.213 179.444 268.531L185.637 275.677H180.556C179.603 275.677 178.809 276.63 178.809 277.582Z" fill="#EAEAEA"/>
<path d="M226.131 271.23H234.23C235.024 271.23 235.659 270.595 235.659 269.801V268.69C235.659 267.896 235.024 267.26 234.23 267.26H226.131C225.337 267.26 224.702 267.896 224.702 268.69V269.801C224.702 270.595 225.337 271.23 226.131 271.23Z" fill="#EAEAEA"/>
<path d="M226.131 277.9H234.23C235.024 277.9 235.659 277.265 235.659 276.471V275.359C235.659 274.565 235.024 273.93 234.23 273.93H226.131C225.337 273.93 224.702 274.565 224.702 275.359V276.471C224.702 277.265 225.337 277.9 226.131 277.9Z" fill="#EAEAEA"/>
<path d="M198.183 276.947L203.9 271.23C204.535 270.595 204.535 269.801 203.9 269.166L203.106 268.372C202.47 267.737 201.676 267.737 201.041 268.372L195.324 274.089C194.689 274.724 194.689 275.518 195.324 276.153L196.118 276.947C196.754 277.424 197.706 277.424 198.183 276.947Z" fill="#EAEAEA"/>
<path d="M204.058 274.089L198.341 268.372C197.706 267.737 196.912 267.737 196.277 268.372L195.483 269.166C194.847 269.801 194.847 270.595 195.483 271.23L201.2 276.947C201.835 277.582 202.629 277.582 203.264 276.947L204.058 276.153C204.534 275.518 204.534 274.565 204.058 274.089Z" fill="#EAEAEA"/>
<path d="M161.5 265.514H59.7087" stroke="#E3E9E7" stroke-width="5" stroke-miterlimit="10" stroke-linecap="round" stroke-linejoin="round"/>
<path d="M161.5 281.076H110.525" stroke="#E3E9E7" stroke-width="5" stroke-miterlimit="10" stroke-linecap="round" stroke-linejoin="round"/>
<path d="M445.593 583.431H625.831C665.848 579.302 658.067 535.315 612.968 514.194C611.856 513.718 610.745 513.242 609.633 512.765L462.902 507.048C460.361 508.478 457.662 510.066 454.962 511.812C454.803 511.971 454.644 511.971 454.486 512.13C427.172 530.233 396.524 565.487 445.593 583.431Z" fill="#C43F00"/>
<path d="M636.312 635.518H426.854C440.352 564.852 466.872 527.057 466.872 527.057L594.706 519.435C625.196 549.448 633.93 602.487 636.312 635.518Z" fill="#623776"/>
<path d="M365.399 479.576C371.116 525.31 455.756 529.757 441.305 465.443L365.399 479.576Z" fill="#B22900"/>
<path d="M372.068 460.361L425.108 509.272C442.417 491.327 506.572 397.159 518.482 353.012C523.564 334.115 513.4 314.424 494.98 307.913C487.357 305.214 479.258 305.055 471.954 307.278C464.014 309.66 456.709 314.583 451.786 321.729L372.068 460.361Z" fill="#B22900"/>
<path d="M300.608 361.27L313.63 370.48C316.33 372.386 320.141 371.751 322.205 369.051L329.986 358.094C331.892 355.394 331.257 351.583 328.557 349.519L315.536 340.308C312.836 338.403 309.025 339.038 306.96 341.738L299.179 352.695C297.115 355.553 297.909 359.364 300.608 361.27Z" fill="#450000"/>
<path d="M272.501 350.472C295.686 365.081 316.012 448.928 363.97 484.658C366.669 486.722 369.528 488.31 372.386 489.422C397.159 499.744 426.854 481.482 426.854 452.58L391.283 420.026L311.248 346.819L272.501 350.472Z" fill="#EFBFA9"/>
<path d="M372.545 489.422C397.318 499.744 427.013 481.482 427.013 452.58L391.442 420.026C414.468 463.537 401.923 495.456 372.545 489.422Z" fill="#ECB298"/>
<path d="M311.248 346.978L320.141 368.575C281.711 387.631 254.239 369.686 237.247 367.146L259.638 321.57L311.248 346.978Z" fill="#EFBFA9"/>
<path d="M245.981 342.214C246.775 342.69 247.569 343.484 248.204 344.278C248.363 344.437 248.522 344.755 248.681 344.914C250.11 347.454 250.11 350.472 248.681 353.012C248.204 353.965 247.41 354.759 246.616 355.553L241.058 359.841L233.118 365.875C232.007 366.669 230.736 367.304 229.466 367.463C227.56 367.781 225.814 367.304 224.226 366.352C223.432 365.875 222.638 365.081 222.002 364.287C219.779 361.111 220.256 356.824 222.955 354.124C223.114 353.965 223.273 353.806 223.432 353.648L236.612 342.849C236.771 342.69 236.93 342.69 237.088 342.532C239.629 340.467 243.282 340.467 245.981 342.214Z" fill="#EFBFA9"/>
<path d="M193.26 321.729C192.624 317.759 195.483 314.265 199.453 313.948L233.436 311.407L266.784 321.094L261.067 349.836L224.226 328.081L199.453 327.287C196.436 327.287 193.736 324.905 193.26 321.729Z" fill="#EFBFA9"/>
<path d="M266.943 321.094L260.114 319.188L234.071 323.634L229.784 331.257L262.814 349.836L266.943 321.094Z" fill="#E89076"/>
<path d="M228.513 378.103C230.101 380.326 232.96 381.755 235.977 381.279L252.81 379.056C257.097 378.42 260.273 374.45 259.797 370.163C259.638 368.892 259.162 367.781 258.685 366.669C258.526 366.51 258.526 366.352 258.368 366.193C258.209 366.034 258.209 365.875 258.05 365.716C256.303 363.493 253.445 362.382 250.428 362.858L233.595 365.716C231.213 366.193 229.148 367.622 228.037 369.528C227.878 369.845 227.719 370.163 227.56 370.48C227.084 371.592 226.766 372.862 226.925 374.133C227.243 375.721 227.719 376.991 228.513 378.103Z" fill="#EFBFA9"/>
<path d="M228.037 369.528C229.148 370.48 230.736 371.116 232.324 371.116L249.316 372.386C253.604 372.704 258.685 370.004 258.685 364.287C256.938 362.064 253.286 362.223 250.428 362.699L233.595 365.558C231.213 366.193 229.148 367.622 228.037 369.528Z" fill="#E89076"/>
<path d="M233.754 361.588C234.865 363.493 236.93 364.922 239.153 365.24L250.745 366.828C255.033 367.463 259.161 364.605 259.955 360.317C260.273 358.412 259.955 356.665 259.161 355.077C259.161 354.918 259.003 354.759 258.844 354.6C257.573 352.536 255.509 351.107 252.968 350.789L241.217 349.678C239.153 349.519 237.247 349.995 235.659 351.107C234.071 352.218 232.959 353.965 232.483 356.03C232.324 357.935 232.642 359.841 233.754 361.588Z" fill="#E89076"/>
<path d="M255.827 356.347C255.986 356.506 255.986 356.665 256.144 356.824C256.303 356.982 256.303 357.141 256.462 357.3C257.256 358.729 257.574 360.317 257.415 361.905C256.938 366.193 253.127 369.528 248.681 369.051L231.689 367.781C230.895 367.781 230.101 367.463 229.307 367.146C227.878 366.669 226.766 365.716 225.972 364.446C224.861 362.858 224.226 360.952 224.543 358.888C224.702 357.776 225.02 356.665 225.655 355.712C226.131 354.918 226.608 354.283 227.402 353.806C228.831 352.536 230.736 351.901 232.801 352.06L248.84 352.695H249.792C252.333 353.171 254.398 354.442 255.827 356.347Z" fill="#EFBFA9"/>
<path d="M248.522 352.854H249.475C252.016 353.012 254.239 354.283 255.668 356.188C255.827 356.347 255.827 356.506 255.986 356.665C256.144 356.824 256.144 356.982 256.303 357.141C254.556 360.317 250.904 361.905 247.41 361.111L240.9 359.523L226.766 356.188C226.449 356.03 225.972 356.03 225.655 355.871C224.543 355.394 223.59 354.759 222.796 353.965C222.955 353.806 223.114 353.648 223.273 353.489L236.453 342.69C236.612 342.532 236.771 342.532 236.93 342.373L248.681 344.914C249.951 347.454 249.951 350.472 248.522 352.854Z" fill="#E89076"/>
<path d="M246.934 330.304C248.046 331.098 249.157 332.051 249.792 333.48C251.857 337.45 250.269 342.214 246.458 344.278L241.694 346.978L231.53 352.536C229.942 353.33 228.354 353.648 226.766 353.489C225.655 353.33 224.543 353.012 223.59 352.377C222.479 351.583 221.367 350.472 220.732 349.201C218.985 345.549 220.256 341.102 223.749 339.038L228.513 336.18L233.595 333.162L238.518 330.304C241.058 328.557 244.393 328.716 246.934 330.304Z" fill="#EFBFA9"/>
<path d="M232.96 348.407C233.754 350.472 235.5 352.06 237.724 352.854L248.998 356.188C253.127 357.618 257.732 355.236 259.162 351.107C259.797 349.201 259.797 347.454 259.162 345.708C259.162 345.549 259.003 345.39 259.003 345.231C258.05 343.008 256.144 341.261 253.762 340.467L242.329 337.609C240.423 337.132 238.359 337.291 236.771 338.085C235.024 338.879 233.595 340.467 232.96 342.373C232.007 344.596 232.166 346.66 232.96 348.407Z" fill="#E89076"/>
<path d="M224.702 350.313C225.655 352.218 227.56 353.806 229.942 354.442L246.616 358.253C250.904 359.206 255.192 356.665 256.303 352.536C256.78 350.63 256.621 348.884 255.827 347.137C255.827 346.978 255.668 346.819 255.668 346.66C254.556 344.596 252.651 342.849 250.11 342.373L233.436 339.038C231.53 338.72 229.466 339.038 227.878 339.991C226.131 340.944 224.861 342.532 224.384 344.596C223.59 346.502 223.749 348.566 224.702 350.313Z" fill="#EFBFA9"/>
<path d="M301.72 351.107L263.926 329.351L237.882 334.592L247.093 347.613L257.891 348.725C257.891 348.566 274.089 380.326 301.72 351.107Z" fill="#E89076"/>
<path d="M238.041 334.433L231.53 348.407C230.101 351.424 231.372 355.077 234.389 356.506C237.088 357.776 240.264 356.982 242.011 354.6L247.093 347.454L238.041 334.433Z" fill="#E89076"/>
<path d="M311.248 346.978L266.784 321.094L235.977 327.128L246.775 342.532L259.479 343.802C259.638 343.802 278.535 381.438 311.248 346.978Z" fill="#EFBFA9"/>
<path d="M233.436 333.004L243.44 342.849L241.535 346.819L238.994 352.06C238.835 352.377 238.676 352.695 238.518 352.854C236.771 355.553 233.595 356.824 230.419 355.871C228.831 355.394 227.402 354.442 226.449 353.171C225.178 351.424 224.702 349.36 225.337 347.137L228.196 335.862L233.436 333.004Z" fill="#E89076"/>
<path d="M236.136 327.128L228.354 343.643C226.608 347.296 228.196 351.424 231.689 353.171C234.865 354.759 238.676 353.806 240.741 350.948L246.775 342.532L236.136 327.128Z" fill="#EFBFA9"/>
<path d="M312.201 346.025L290.128 379.056L297.274 390.172L324.111 355.553L312.201 346.025Z" fill="#450000"/>
<path d="M441.146 565.487L579.62 565.804L629.96 565.963C629.96 565.963 620.749 543.731 612.809 514.353C606.14 489.739 600.264 460.044 601.217 434.318C601.852 418.914 603.916 402.717 603.916 386.202C603.916 375.721 612.65 302.832 603.916 296.162C583.59 280.758 525.469 278.218 528.963 281.552L483.387 307.437C480.846 316.171 456.074 350.472 452.104 370.322C451.786 371.751 451.468 373.339 451.31 374.927C450.516 380.167 450.039 385.408 450.039 390.807C450.039 392.236 450.039 393.983 450.198 395.571C450.357 397.794 450.516 400.176 450.992 402.558C453.215 416.215 459.567 429.872 472.906 441.782L472.748 442.734V442.893L463.855 477.353L454.962 511.971L454.644 512.924L441.146 565.487Z" fill="#C43F00"/>
<path d="M454.644 512.13L454.803 512.765L574.697 548.654L579.779 565.646L583.272 577.397L592.483 583.431H625.831C665.848 579.302 658.067 535.315 612.968 514.194C606.298 489.58 600.423 459.885 601.376 434.159C602.011 418.756 604.075 402.558 604.075 386.043L558.341 338.72L559.452 450.198L480.688 463.696L463.855 477.194L454.962 511.812C454.803 511.971 454.803 512.13 454.644 512.13Z" fill="#B22900"/>
<path d="M527.057 404.146L552.942 444.799L578.985 404.146L552.942 363.652L527.057 404.146Z" stroke="#EAA105" stroke-miterlimit="10"/>
<path d="M475.288 404.146L501.332 444.799L527.216 404.146L501.332 363.652L475.288 404.146Z" stroke="#EAA105" stroke-miterlimit="10"/>
<path d="M423.678 404.146L449.722 444.799L475.606 404.146L449.722 363.652L423.678 404.146Z" stroke="#EAA105" stroke-miterlimit="10"/>
<path d="M448.928 198.659C432.176 198.659 418.597 185.079 418.597 168.328C418.597 151.577 432.176 137.997 448.928 137.997C465.679 137.997 479.258 151.577 479.258 168.328C479.258 185.079 465.679 198.659 448.928 198.659Z" fill="#450000"/>
<path d="M479.894 164.358C463.142 164.358 449.563 150.778 449.563 134.027C449.563 117.276 463.142 103.696 479.894 103.696C496.645 103.696 510.224 117.276 510.224 134.027C510.224 150.778 496.645 164.358 479.894 164.358Z" fill="#450000"/>
<path d="M519.594 175.474C502.842 175.474 489.263 161.894 489.263 145.143C489.263 128.392 502.842 114.812 519.594 114.812C536.345 114.812 549.924 128.392 549.924 145.143C549.924 161.894 536.345 175.474 519.594 175.474Z" fill="#450000"/>
<path d="M557.706 163.564C569.933 195.006 565.646 215.015 545.796 228.037L527.057 207.552L538.332 158.324L557.706 163.564Z" fill="#450000"/>
<path d="M547.066 207.552L539.92 284.093L482.911 322.523L482.117 228.354L547.066 207.552Z" fill="#EFBFA9"/>
<path d="M556.435 228.99L542.937 252.492L534.362 234.548L556.435 228.99Z" fill="#450000"/>
<path d="M482.752 290.445C482.752 290.445 517.847 284.093 518.958 244.393L482.276 256.303L482.752 290.445Z" fill="#E89076"/>
<path d="M459.25 151.972C442.258 172.774 440.035 200.247 440.035 200.247L458.456 203.105L472.43 158.959L459.25 151.972Z" fill="#450000"/>
<path d="M541.349 176.268L535.791 198.024L533.25 207.869L526.581 234.389C522.928 248.681 512.13 260.114 497.997 264.561L476.082 271.548C457.026 277.582 437.494 264.402 435.747 244.552C434.477 229.942 434.477 212.951 440.035 195.006C446.546 174.045 463.22 157.688 483.228 151.178H483.387L486.881 150.066L487.198 149.907C488.945 149.431 490.692 149.113 492.598 148.796C496.885 148.002 501.332 147.684 505.778 147.843L519.911 148.319C534.521 148.637 544.843 162.294 541.349 176.268Z" fill="#EFBFA9"/>
<path d="M441.464 228.196C431.29 228.196 423.043 219.024 423.043 207.71C423.043 196.397 431.29 187.225 441.464 187.225C451.637 187.225 459.885 196.397 459.885 207.71C459.885 219.024 451.637 228.196 441.464 228.196Z" stroke="white" stroke-miterlimit="10"/>
<path d="M448.451 212.157C447.975 217.397 449.404 221.685 451.786 222.002C454.168 222.161 456.55 218.191 457.026 212.951C457.503 207.71 456.074 203.423 453.692 203.105C451.31 202.788 448.928 206.916 448.451 212.157Z" fill="black"/>
<path d="M463.378 204.376C458.614 215.809 450.833 218.191 445.275 218.191C441.782 218.191 438.923 220.891 438.606 224.384C438.288 228.99 440.67 233.436 444.64 235.659L458.932 243.44C467.031 246.14 475.606 241.376 477.512 232.96L484.022 204.852L463.378 204.376Z" fill="#EFBFA9"/>
<path d="M453.85 241.694L454.803 240.106L445.275 234.865C441.464 232.801 439.4 228.831 439.717 224.543C440.035 221.526 442.417 219.144 445.434 219.144C451.31 218.985 459.408 216.444 464.331 204.693L462.584 204.058C458.138 214.856 450.674 217.238 445.275 217.397C441.305 217.397 437.97 220.573 437.653 224.543C437.176 229.466 439.876 234.23 444.164 236.612L453.85 241.694Z" fill="#E89076"/>
<path d="M480.052 216.762C479.576 222.002 481.005 226.29 483.387 226.608C485.769 226.766 488.151 222.796 488.628 217.556C489.104 212.316 487.675 208.028 485.293 207.71C482.752 207.552 480.529 211.522 480.052 216.762Z" fill="black"/>
<path d="M493.392 196.118C505.143 201.041 508.478 195.006 499.902 189.766C490.851 184.367 478.623 190.084 493.392 196.118Z" fill="#450000"/>
<path d="M459.25 190.56C468.46 189.131 465.919 183.255 458.138 183.096C449.88 183.096 447.816 192.466 459.25 190.56Z" fill="#450000"/>
<path d="M459.091 245.505L480.37 243.917C480.37 243.917 477.988 256.144 471.795 257.574C465.125 259.003 459.091 245.505 459.091 245.505Z" fill="white"/>
<path d="M488.151 237.724C477.978 237.724 469.73 228.552 469.73 217.238C469.73 205.925 477.978 196.753 488.151 196.753C498.325 196.753 506.572 205.925 506.572 217.238C506.572 228.552 498.325 237.724 488.151 237.724Z" stroke="white" stroke-miterlimit="10"/>
<path d="M506.731 213.427L527.375 207.552" stroke="white" stroke-miterlimit="10"/>
<path d="M510.542 148.002C499.426 174.362 520.388 210.41 564.375 207.869C583.114 170.234 582.32 136.727 510.542 148.002Z" fill="#450000"/>
<path d="M525.787 210.728C570.092 149.907 592.959 246.14 528.01 241.217L525.787 210.728Z" fill="#EFBFA9"/>
<path d="M526.263 171.822L525.469 222.796L529.757 225.655L545.796 176.586L526.263 171.822Z" fill="#450000"/>
<path d="M523.722 153.56C488.31 167.375 456.074 155.942 456.074 155.942C456.074 155.942 467.984 127.675 523.722 153.56Z" fill="#450000"/>
<path d="M568.504 159.276C568.504 141.332 588.354 149.907 574.697 161.5C598.676 158.324 580.573 187.86 569.457 177.538" fill="#450000"/>
<path d="M480.846 323.634C473.224 281.87 512.448 273.136 541.984 260.908L558.341 281.87L480.846 323.634Z" fill="white"/>
<path d="M620.432 443.052C589.148 437.018 560.246 445.752 575.65 476.718L623.29 479.576L620.432 443.052Z" fill="#C43F00"/>
<path d="M627.419 532.774C712.059 554.688 698.244 464.014 647.904 450.357L627.419 532.774Z" fill="#C43F00"/>
<path d="M623.608 509.748L673.947 517.212C682.999 445.91 661.878 368.098 614.397 305.372C603.281 290.763 582.796 287.11 567.392 296.956C554.053 305.531 548.019 321.888 552.783 336.974L623.608 509.748Z" fill="#C43F00"/>
<path d="M373.498 406.846L377.468 401.923C377.944 401.446 378.579 400.97 379.373 400.811L454.803 390.807C457.026 390.489 459.25 391.442 460.679 393.189L541.826 492.439C543.255 494.186 542.302 496.726 540.238 497.362L488.31 509.43C486.246 509.907 483.864 509.272 482.435 507.842L378.738 406.846H373.498V406.846Z" fill="#E5EBEA"/>
<path d="M537.856 497.362L456.709 398.112C455.28 396.365 453.056 395.571 450.833 395.73L375.403 405.734C372.862 406.052 371.91 409.069 373.656 410.974L478.147 512.765C479.735 514.353 481.958 514.988 484.022 514.353L535.95 502.284C538.332 501.808 539.285 499.108 537.856 497.362Z" fill="white"/>
<path d="M442.353 455.343C435.479 449.084 432.635 441.014 436 437.318C439.366 433.622 447.666 435.699 454.54 441.957C461.414 448.216 464.258 456.285 460.893 459.982C457.527 463.678 449.227 461.601 442.353 455.343Z" fill="#E5EBEA"/>
<path d="M448.292 406.369C449.245 408.116 451.31 409.386 452.739 409.386C454.168 409.386 454.644 407.957 453.533 406.21C452.58 404.464 450.516 403.193 449.086 403.193C447.498 403.193 447.181 404.622 448.292 406.369Z" fill="#E5EBEA"/>
<path d="M481.005 501.173L412.404 454.327L500.538 460.996L508.001 490.533L481.005 501.173Z" fill="#EFBFA9"/>
<path d="M493.55 464.014L505.937 462.267C509.589 461.79 511.812 457.979 510.383 454.486L509.907 453.374C507.207 446.863 499.585 444.164 493.392 447.34C489.263 449.563 486.722 454.009 487.04 458.614C487.357 462.108 490.374 464.49 493.55 464.014Z" fill="#EFBFA9"/>
<path d="M466.396 463.537L412.404 454.327L411.768 452.739C409.228 446.546 404.146 441.623 397.794 439.558C396.841 439.241 396.047 438.288 396.206 437.176C396.206 437.018 396.206 436.859 396.206 436.7C397.159 432.412 400.97 429.554 405.258 429.554C405.893 429.554 406.687 429.713 407.322 429.872L410.498 430.983L410.816 431.142C416.374 433.048 420.502 437.494 422.09 443.211L464.966 462.902L466.396 463.537Z" fill="#EFBFA9"/>
<path d="M446.228 465.76L421.614 457.344C418.12 446.863 412.245 442.734 405.893 440.67C404.94 440.352 404.146 439.4 404.305 438.288C404.305 438.129 404.305 437.97 404.305 437.812C405.099 434.477 407.481 432.095 410.498 431.142L410.816 431.301C416.374 433.206 420.502 437.653 422.09 443.37L426.696 454.803L446.228 465.76Z" fill="#E89076"/>
<path d="M426.696 454.644L426.06 453.056C423.52 446.863 418.438 441.94 412.086 439.876C410.974 439.558 410.18 438.288 410.498 437.018C411.61 431.936 416.691 428.919 421.614 430.189L425.108 431.46C430.666 433.365 434.794 437.812 436.382 443.528L480.688 463.855L426.696 454.644Z" fill="#EFBFA9"/>
<path d="M606.616 465.76L497.838 476.718L481.005 501.173C481.005 501.173 555.324 538.491 625.037 533.886C655.209 531.821 665.69 492.915 640.758 475.924L636.788 473.224C628.054 467.348 617.256 464.649 606.616 465.76Z" fill="#EFBFA9"/>
<path d="M632.183 592.483L507.366 609.792L500.538 565.963L622.655 565.804L632.183 592.483Z" fill="white"/>
<path d="M490.851 565.963L482.911 609.792L437.653 592.483L447.181 565.963H490.851Z" fill="white"/>
<path d="M281.87 423.996H151.336C143.079 423.996 136.568 417.326 136.568 409.228C136.568 400.97 143.238 394.459 151.336 394.459H281.87C290.128 394.459 296.638 401.129 296.638 409.228C296.797 417.326 290.128 423.996 281.87 423.996Z" fill="#F2F5F4"/>
<path d="M280.282 564.852H150.701C141.65 564.852 134.345 557.547 134.345 548.495V452.58C134.345 443.528 141.65 436.224 150.701 436.224H280.282C289.334 436.224 296.638 443.528 296.638 452.58V548.495C296.797 557.547 289.334 564.852 280.282 564.852Z" fill="#F2F5F4"/>
<path d="M256.621 555.8H127.04C117.988 555.8 110.684 548.495 110.684 539.444V443.528C110.684 434.477 117.988 427.172 127.04 427.172H256.621C265.673 427.172 272.977 434.477 272.977 443.528V539.444C272.977 548.495 265.673 555.8 256.621 555.8Z" fill="white" stroke="#F1F1F3" stroke-miterlimit="10"/>
<path d="M258.209 414.944H127.675C119.418 414.944 112.907 408.275 112.907 400.176C112.907 391.918 119.576 385.408 127.675 385.408H258.209C266.467 385.408 272.977 392.077 272.977 400.176C272.977 408.275 266.308 414.944 258.209 414.944Z" fill="white" stroke="#F1F1F3" stroke-miterlimit="10"/>
<path d="M247.887 400.176C247.887 403.828 250.904 406.846 254.556 406.846C258.209 406.846 261.226 403.828 261.226 400.176C261.226 396.524 258.209 393.506 254.556 393.506C250.904 393.506 247.887 396.524 247.887 400.176Z" fill="#FFE4D7"/>
<path d="M221.526 400.176C221.526 403.828 224.543 406.846 228.196 406.846C231.848 406.846 234.865 403.828 234.865 400.176C234.865 396.524 231.848 393.506 228.196 393.506C224.543 393.506 221.526 396.524 221.526 400.176Z" fill="#FFF8EB"/>
<path d="M195.165 400.176C195.165 403.828 198.182 406.846 201.835 406.846C205.487 406.846 208.504 403.828 208.504 400.176C208.504 396.524 205.487 393.506 201.835 393.506C198.182 393.506 195.165 396.524 195.165 400.176Z" fill="#E6E6E6"/>
<path d="M253.445 453.056H132.28" stroke="#E3E9E7" stroke-width="5" stroke-miterlimit="10" stroke-linecap="round" stroke-linejoin="round"/>
<path d="M253.445 467.825H185.478" stroke="#E3E9E7" stroke-width="5" stroke-miterlimit="10" stroke-linecap="round" stroke-linejoin="round"/>
<path d="M230.736 519.594H249.792V538.65H230.736V519.594Z" stroke="#FFB72F" stroke-width="3" stroke-miterlimit="10"/>
<path d="M249.792 538.65V482.911L134.662 538.65H249.792Z" stroke="#F0F0F0" stroke-width="3" stroke-miterlimit="10" stroke-linejoin="round"/>
<path d="M313.154 247.252C314.265 247.252 315.218 247.252 316.33 247.252" stroke="#EAA105" stroke-miterlimit="10"/>
<path d="M319.664 247.41C360 251.698 376.197 302.196 357.618 329.986" stroke="#EAA105" stroke-miterlimit="10" stroke-dasharray="4.15 4.15"/>
<path d="M356.506 331.416C355.871 332.21 355.236 333.162 354.6 333.956" stroke="#EAA105" stroke-miterlimit="10"/>
<path d="M353.012 324.905C348.09 325.858 344.914 330.622 345.866 335.544C346.819 340.467 351.583 343.643 356.506 342.69C361.429 341.738 364.605 336.974 363.652 332.051C362.699 327.128 357.935 323.952 353.012 324.905Z" fill="#EAA105"/>
<path d="M97.8209 461.949C96.7093 462.108 95.7565 462.426 94.6449 462.584" stroke="#F2F2F2" stroke-miterlimit="10"/>
<path d="M91.3101 462.902C50.9749 466.713 25.0906 420.344 37.9533 389.378" stroke="#F2F2F2" stroke-miterlimit="10" stroke-dasharray="4.15 4.15"/>
<path d="M38.5885 387.948C39.0649 386.996 39.5414 386.043 40.0178 385.09" stroke="#F2F2F2" stroke-miterlimit="10"/>
<path d="M43.3525 393.506C47.9577 391.601 50.1809 386.36 48.2753 381.755C46.3697 377.15 41.1293 374.927 36.5241 376.832C31.9189 378.738 29.6956 383.978 31.6012 388.584C33.5068 393.348 38.7473 395.412 43.3525 393.506Z" fill="#F2F2F2"/>
<path d="M186.749 173.886C186.431 172.933 186.114 171.822 185.796 170.869" stroke="#D7E0DD" stroke-miterlimit="10"/>
<path d="M185.161 167.693C177.38 127.993 220.891 97.662 252.969 107.19" stroke="#D7E0DD" stroke-miterlimit="10" stroke-dasharray="4.15 4.15"/>
<path d="M254.557 107.666C255.509 107.984 256.462 108.46 257.574 108.778" stroke="#D7E0DD" stroke-miterlimit="10"/>
<path d="M249.475 112.907C251.857 117.353 257.256 118.941 261.702 116.559C266.149 114.177 267.737 108.778 265.355 104.332C262.973 99.8852 257.574 98.2972 253.127 100.679C248.681 103.061 247.093 108.619 249.475 112.907Z" fill="#D7E0DD"/>
<path d="M667.278 178.809H632.659" stroke="#D7E0DD" stroke-width="5" stroke-miterlimit="10" stroke-linecap="round" stroke-linejoin="round"/>
<path d="M667.278 196.436H648.063" stroke="#D7E0DD" stroke-width="5" stroke-miterlimit="10" stroke-linecap="round" stroke-linejoin="round"/>
<path d="M358.253 168.328H239.153" stroke="#D7E0DD" stroke-width="5" stroke-miterlimit="10" stroke-linecap="round" stroke-linejoin="round"/>
<path d="M358.253 185.478H315.218" stroke="#D7E0DD" stroke-width="5" stroke-miterlimit="10" stroke-linecap="round" stroke-linejoin="round"/>
<path d="M72.4128 503.714H36.3652" stroke="#D7E0DD" stroke-width="5" stroke-miterlimit="10" stroke-linecap="round" stroke-linejoin="round"/>
<path d="M89.2456 503.714H84.4816" stroke="#D7E0DD" stroke-width="5" stroke-miterlimit="10" stroke-linecap="round" stroke-linejoin="round"/>
<path d="M54.9448 518.006H36.3652" stroke="#D7E0DD" stroke-width="5" stroke-miterlimit="10" stroke-linecap="round" stroke-linejoin="round"/>
<path d="M398.112 92.2628V114.654L418.279 138.791H333.48C307.755 138.791 286.952 117.988 286.952 92.2628C286.952 66.5372 307.755 45.7344 333.48 45.7344H351.742C377.309 45.8932 398.112 66.696 398.112 92.2628Z" fill="#D7E0DD"/>
<path d="M362.382 102.744C362.382 107.349 366.034 111.001 370.639 111.001C375.244 111.001 378.897 107.349 378.897 102.744C378.897 98.1384 375.244 94.486 370.639 94.486C366.034 94.486 362.382 98.1384 362.382 102.744Z" fill="#F2F5F4"/>
<path d="M334.274 102.744C334.274 107.349 337.927 111.001 342.532 111.001C347.137 111.001 350.789 107.349 350.789 102.744C350.789 98.1384 347.137 94.486 342.532 94.486C337.927 94.486 334.274 98.1384 334.274 102.744Z" fill="#F2F5F4"/>
<path d="M306.166 102.744C306.166 107.349 309.819 111.001 314.424 111.001C319.029 111.001 322.682 107.349 322.682 102.744C322.682 98.1384 319.029 94.486 314.424 94.486C309.819 94.486 306.166 98.1384 306.166 102.744Z" fill="#F2F5F4"/>
<path d="M427.807 705.707C420.265 705.707 414.15 699.593 414.15 692.05C414.15 684.508 420.265 678.394 427.807 678.394C435.349 678.394 441.464 684.508 441.464 692.05C441.464 699.593 435.349 705.707 427.807 705.707Z" fill="#D7E0DD"/>
<path d="M111.319 160.388C106.407 160.388 102.426 156.407 102.426 151.495C102.426 146.584 106.407 142.602 111.319 142.602C116.23 142.602 120.212 146.584 120.212 151.495C120.212 156.407 116.23 160.388 111.319 160.388Z" fill="#D7E0DD"/>
<path d="M733.18 183.096C726.339 183.096 720.793 177.551 720.793 170.71C720.793 163.869 726.339 158.324 733.18 158.324C740.02 158.324 745.566 163.869 745.566 170.71C745.566 177.551 740.02 183.096 733.18 183.096Z" fill="#D7E0DD"/>
<path d="M651.715 683.793C651.715 679.505 655.209 676.012 659.496 676.012C663.784 676.012 667.277 679.505 667.277 683.793C667.277 688.08 663.784 691.574 659.496 691.574C655.209 691.574 651.715 688.08 651.715 683.793Z" fill="#D7E0DD"/>
<path d="M523.722 663.466C523.722 666.325 526.104 668.707 528.963 668.707C531.821 668.707 534.203 666.325 534.203 663.466C534.203 660.608 531.821 658.226 528.963 658.226C526.104 658.226 523.722 660.608 523.722 663.466Z" fill="#AABC95"/>
<path d="M440.67 75.5888C440.67 72.5716 443.052 70.1896 446.069 70.1896C449.086 70.1896 451.469 72.5716 451.469 75.5888C451.469 78.606 449.086 80.988 446.069 80.988C443.052 80.988 440.67 78.606 440.67 75.5888Z" fill="#AABC95"/>
<path d="M150.701 123.07C150.701 120.053 153.083 117.671 156.1 117.671C159.118 117.671 161.5 120.053 161.5 123.07C161.5 126.087 159.118 128.469 156.1 128.469C153.083 128.31 150.701 125.928 150.701 123.07Z" fill="#AABC95"/>
<path d="M762.081 393.348C762.081 397.953 765.734 401.605 770.339 401.605C774.944 401.605 778.596 397.953 778.596 393.348C778.596 388.742 774.944 385.09 770.339 385.09C765.734 385.09 762.081 388.901 762.081 393.348Z" fill="#AABC95"/>
<path d="M21.7556 540.714C21.7556 543.255 23.82 545.319 26.3608 545.319C28.9017 545.319 30.9661 543.255 30.9661 540.714C30.9661 538.173 28.9017 536.109 26.3608 536.109C23.82 536.109 21.7556 538.173 21.7556 540.714Z" fill="#AABC95"/>
<path d="M624.402 88.2928C614.491 88.2928 606.457 80.2588 606.457 70.3484C606.457 60.438 614.491 52.404 624.402 52.404C634.312 52.404 642.346 60.438 642.346 70.3484C642.346 80.2588 634.312 88.2928 624.402 88.2928Z" fill="#D7E0DD"/>
<path d="M622.333 125.042C620.045 115.399 626.007 105.727 635.649 103.439C645.292 101.15 654.964 107.112 657.253 116.755C659.541 126.398 653.579 136.07 643.936 138.358C634.293 140.647 624.621 134.685 622.333 125.042Z" fill="#D7E0DD"/>
<path d="M560.93 111.514C553.923 104.506 553.923 93.1448 560.93 86.1371C567.938 79.1294 579.3 79.1294 586.307 86.1371C593.315 93.1448 593.315 104.506 586.307 111.514C579.3 118.522 567.938 118.522 560.93 111.514Z" fill="#D7E0DD"/>
<path d="M639.805 120.847L624.402 70.3484" stroke="#D7E0DD" stroke-width="5" stroke-miterlimit="10" stroke-linecap="round" stroke-linejoin="round"/>
<path d="M573.586 98.7736L621.861 70.3484" stroke="#D7E0DD" stroke-width="5" stroke-miterlimit="10" stroke-linecap="round" stroke-linejoin="round"/>
<path d="M639.805 120.847L573.586 98.7736" stroke="#D7E0DD" stroke-width="5" stroke-miterlimit="10" stroke-linecap="round" stroke-linejoin="round"/>
</svg>
