<svg width="145" height="160" viewBox="0 0 145 160" fill="none" xmlns="http://www.w3.org/2000/svg">
<path d="M127.526 74.378C127.665 70.606 126.163 65.864 123.251 63.462C124.652 61.5867 125.583 59.4023 125.964 57.0925C126.345 54.7827 126.166 52.4152 125.442 50.189C124.053 45.733 120.229 41.667 116.25 39.228C116.991 37.02 117.195 34.6672 116.846 32.3645C116.497 30.0619 115.604 27.8755 114.242 25.9864C112.88 24.0974 111.087 22.56 109.012 21.5016C106.938 20.4432 104.641 19.8941 102.312 19.9C102.583 17.3021 102.125 14.6802 100.991 12.3275C99.856 9.97489 98.0892 7.98437 95.8878 6.57866C93.6864 5.17295 91.1372 4.4075 88.5256 4.368C85.914 4.3285 83.3429 5.01651 81.1 6.355C80.75 0.542998 65.125 -3.351 63.912 6.355C61.6691 5.01611 59.0979 4.3278 56.4862 4.36711C53.8744 4.40643 51.3251 5.17183 49.1235 6.57762C46.922 7.98342 45.1551 9.97412 44.0207 12.327C42.8862 14.6798 42.4289 17.302 42.7 19.9C40.3713 19.8939 38.0747 20.4426 36.0002 21.5007C33.9258 22.5588 32.1332 24.0958 30.771 25.9844C29.4087 27.8731 28.5159 30.0591 28.1666 32.3614C27.8172 34.6638 28.0213 37.0162 28.762 39.224C24.783 41.663 20.962 45.729 19.569 50.185C18.8449 52.4112 18.666 54.7787 19.0473 57.0884C19.4286 59.3982 20.3589 61.5826 21.76 63.458C18.849 65.858 17.347 70.602 17.485 74.374C17.5697 76.2649 18.0815 78.1122 18.9821 79.7771C19.8827 81.4419 21.1487 82.8813 22.685 83.987C19.826 86.953 18.677 92.844 19.329 96.912C19.6722 98.9492 20.4762 100.881 21.6797 102.561C22.8831 104.24 24.4541 105.622 26.273 106.602C23.824 110.302 23.05 115.407 24.966 119.411C38.136 114.753 51.652 110.511 64.822 105.848C64.791 99.098 64.588 92.148 64.557 85.396C55.495 79.216 49.428 71.261 49.731 60.562C49.9362 58.2609 50.3038 55.9772 50.831 53.728C53.672 44.228 56.483 41.189 63.331 37.411C66.522 35.7054 69.5886 33.7766 72.508 31.639C75.4273 33.7766 78.4939 35.7054 81.685 37.411C88.53 41.189 91.341 44.232 94.185 53.728C94.7127 55.9771 95.0803 58.2609 95.285 60.562C95.585 71.262 89.521 79.216 80.459 85.396C80.428 92.146 80.226 99.096 80.195 105.848C93.364 110.506 106.881 114.748 120.051 119.411C121.967 115.411 121.192 110.305 118.744 106.602C120.563 105.622 122.134 104.24 123.337 102.561C124.54 100.881 125.344 98.9493 125.687 96.912C126.339 92.844 125.187 86.953 122.332 83.987C123.867 82.8811 125.131 81.4422 126.031 79.778C126.93 78.1139 127.441 76.2678 127.526 74.378V74.378Z" fill="#3C3247"/>
<path d="M71.936 98H73.077C77.112 98 81 95.733 83.977 91.645L84.768 90.558V76.248H60.247V90.558L61.038 91.645C64.012 95.737 67.9 98 71.936 98Z" fill="#3C3247"/>
<path d="M140.011 139.745C138.633 134.103 135.924 128.873 132.111 124.493C128.297 120.113 123.49 116.711 118.091 114.57L105.17 109.446C97.421 116.923 88.217 122.946 77.495 124.762C63.185 127.18 47.766 120.862 39.423 109.612L26.923 114.57C21.5238 116.71 16.716 120.113 12.9018 124.493C9.08757 128.873 6.37805 134.103 4.99999 139.745L0.261993 159.145H144.749L140.011 139.745Z" fill="#5DABFF"/>
<path d="M77.5 124.762C88.222 122.95 97.426 116.923 105.175 109.446L87.724 102.526L84.771 101.355V90.562L83.98 91.649C81 95.737 77.112 98 73.077 98H71.936C67.901 98 64.012 95.733 61.036 91.645L60.245 90.558V101.351L57.291 102.522L39.421 109.608C47.766 120.865 63.185 127.18 77.5 124.762Z" fill="#BD6C67"/>
<path d="M52.59 105.149C52.3912 105.152 52.1938 105.115 52.01 105.039C51.7407 104.921 51.5109 104.728 51.3479 104.484C51.1848 104.239 51.0953 103.953 51.09 103.659C51.09 103.558 51.1001 103.458 51.12 103.359C51.14 103.269 51.17 103.168 51.2 103.078C51.2774 102.895 51.3894 102.729 51.53 102.588C51.5976 102.518 51.6751 102.457 51.76 102.409C51.8376 102.353 51.9215 102.306 52.01 102.269C52.1031 102.229 52.2004 102.198 52.3 102.179C52.5413 102.136 52.7894 102.151 53.0239 102.222C53.2585 102.293 53.473 102.418 53.65 102.588C53.7185 102.661 53.7819 102.738 53.84 102.819C53.893 102.9 53.9366 102.987 53.97 103.078C54.0504 103.261 54.0913 103.459 54.09 103.659C54.0874 104.055 53.9282 104.434 53.6471 104.713C53.3661 104.992 52.9861 105.149 52.59 105.149Z" fill="white"/>
<path d="M71.81 116.218H71.8C71.4557 116.215 71.123 116.093 70.8586 115.872C70.5943 115.652 70.4145 115.346 70.35 115.008V115.008C70.2432 115.342 70.0226 115.628 69.7266 115.817C69.4306 116.005 69.078 116.084 68.73 116.039V116.039C68.3826 115.995 68.0614 115.831 67.8221 115.576C67.5829 115.32 67.4406 114.989 67.42 114.639V114.639C67.2687 114.954 67.012 115.207 66.6943 115.353C66.3766 115.499 66.0178 115.529 65.68 115.439V115.439C65.3423 115.347 65.0474 115.139 64.8465 114.853C64.6456 114.566 64.5513 114.218 64.58 113.869V113.869C64.3876 114.161 64.1002 114.377 63.7667 114.48C63.4332 114.584 63.074 114.57 62.75 114.439V114.439C62.4271 114.305 62.1607 114.064 61.9965 113.755C61.8323 113.447 61.7805 113.091 61.85 112.748V112.748C61.6217 113.01 61.3099 113.185 60.9673 113.244C60.6246 113.302 60.2723 113.241 59.97 113.069V113.069C59.6693 112.893 59.4384 112.619 59.3163 112.293C59.1942 111.967 59.1885 111.609 59.3 111.279V111.279C59.0395 111.511 58.7062 111.645 58.3576 111.658C58.009 111.67 57.6668 111.561 57.39 111.349V111.349C57.1124 111.138 56.9174 110.836 56.8389 110.497C56.7603 110.157 56.8032 109.8 56.96 109.489V109.489C56.6719 109.688 56.3232 109.78 55.9743 109.749C55.6254 109.718 55.2985 109.566 55.05 109.319C54.8028 109.073 54.6494 108.749 54.6165 108.402C54.5836 108.055 54.6733 107.707 54.87 107.419V107.419C54.5573 107.577 54.199 107.621 53.8575 107.543C53.5159 107.464 53.2125 107.269 53 106.99V106.99C52.7592 106.674 52.6534 106.276 52.7059 105.882C52.7584 105.488 52.9648 105.132 53.28 104.89V104.89C53.4358 104.769 53.614 104.681 53.8042 104.63C53.9944 104.578 54.1929 104.565 54.3882 104.591C54.5835 104.617 54.7717 104.682 54.942 104.781C55.1122 104.88 55.2611 105.012 55.38 105.169V105.169C55.5705 105.419 55.6778 105.722 55.6868 106.036C55.6958 106.35 55.606 106.659 55.43 106.919V106.919C55.7096 106.774 56.0283 106.722 56.3395 106.771C56.6507 106.82 56.9382 106.966 57.16 107.19V107.19C57.3857 107.41 57.5355 107.696 57.5876 108.007C57.6398 108.318 57.5916 108.637 57.45 108.919C57.7124 108.744 58.0227 108.655 58.338 108.664C58.6532 108.673 58.9579 108.779 59.21 108.969V108.969C59.4609 109.16 59.6453 109.425 59.7368 109.727C59.8284 110.029 59.8225 110.352 59.72 110.65V110.65C59.9559 110.44 60.2518 110.31 60.5658 110.277C60.8799 110.245 61.1962 110.312 61.47 110.469V110.469V110.459C61.7428 110.619 61.9588 110.86 62.0879 111.149C62.217 111.438 62.2527 111.76 62.19 112.07C62.3956 111.83 62.6716 111.662 62.9786 111.588C63.2857 111.515 63.6081 111.54 63.9 111.66V111.66V111.669C64.1915 111.788 64.4376 111.997 64.6029 112.265C64.7682 112.533 64.8443 112.846 64.82 113.16V113.16C64.9925 112.896 65.2443 112.694 65.539 112.583C65.8337 112.471 66.1562 112.456 66.46 112.54V112.54C66.7644 112.621 67.0355 112.797 67.2347 113.041C67.434 113.285 67.5513 113.585 67.57 113.9V113.9C67.7061 113.616 67.928 113.382 68.2044 113.231C68.4808 113.081 68.7976 113.021 69.11 113.06C69.4218 113.102 69.7127 113.24 69.9422 113.455C70.1717 113.67 70.3282 113.952 70.39 114.26V114.26C70.488 113.956 70.6805 113.691 70.9395 113.504C71.1985 113.317 71.5105 113.217 71.83 113.22V113.22C72.1366 113.222 72.4351 113.318 72.6854 113.495C72.9357 113.672 73.1258 113.922 73.23 114.21V114.21C73.2851 113.902 73.4352 113.619 73.6594 113.4C73.8835 113.181 74.1705 113.038 74.48 112.991V112.991C74.7902 112.94 75.1087 112.989 75.3892 113.131C75.6696 113.273 75.8976 113.501 76.04 113.781V113.781C76.0501 113.465 76.1587 113.161 76.3505 112.909C76.5424 112.658 76.8079 112.474 77.11 112.381C77.4126 112.292 77.7355 112.3 78.0333 112.404C78.3311 112.508 78.5887 112.703 78.77 112.961V112.961C78.7354 112.648 78.801 112.333 78.9574 112.06C79.1138 111.787 79.3528 111.57 79.64 111.442V111.442C79.9271 111.312 80.2478 111.276 80.5566 111.339C80.8653 111.402 81.1464 111.56 81.36 111.792V111.792C81.2893 111.485 81.317 111.163 81.439 110.872C81.561 110.581 81.7712 110.336 82.04 110.171V110.171C82.3079 110.005 82.6217 109.928 82.9362 109.951C83.2506 109.974 83.5496 110.097 83.79 110.301V110.301C83.6777 110.005 83.6616 109.682 83.7443 109.376C83.8269 109.071 84.0039 108.8 84.25 108.601V108.601C84.4966 108.403 84.7993 108.287 85.1153 108.271C85.4313 108.255 85.7443 108.338 86.01 108.51V108.51C85.861 108.233 85.803 107.916 85.8443 107.603C85.8856 107.291 86.024 107 86.24 106.771V106.771C86.4587 106.544 86.7426 106.39 87.0525 106.331C87.3624 106.271 87.683 106.31 87.97 106.441V106.441C87.7848 106.187 87.6851 105.881 87.6851 105.566C87.6851 105.252 87.7848 104.945 87.97 104.691V104.691C88.2025 104.369 88.553 104.153 88.9448 104.089C89.3365 104.026 89.7375 104.12 90.06 104.351V104.351C90.2207 104.466 90.357 104.612 90.4611 104.78C90.5652 104.948 90.6351 105.135 90.6667 105.33C90.6983 105.525 90.691 105.725 90.6452 105.917C90.5995 106.11 90.5161 106.291 90.4 106.451V106.451C90.1956 106.734 89.899 106.936 89.5614 107.024C89.2237 107.111 88.8661 107.079 88.55 106.931C88.752 107.215 88.8494 107.561 88.8257 107.909C88.802 108.257 88.6587 108.586 88.42 108.84V108.84C88.1793 109.093 87.8573 109.254 87.5101 109.295C87.1629 109.335 86.8125 109.252 86.52 109.061V109.061C86.6837 109.37 86.7353 109.726 86.666 110.069C86.5967 110.412 86.4108 110.72 86.14 110.941V110.941C85.8684 111.159 85.5296 111.276 85.1813 111.272C84.833 111.269 84.4968 111.144 84.23 110.92V110.92C84.3509 111.245 84.3552 111.603 84.2422 111.931C84.1291 112.259 83.9057 112.538 83.61 112.72V112.72C83.3146 112.905 82.9633 112.981 82.6178 112.933C82.2722 112.886 81.9544 112.718 81.72 112.46V112.46C81.7997 112.798 81.7596 113.154 81.6063 113.466C81.4531 113.777 81.1964 114.026 80.88 114.17V114.17C80.5615 114.314 80.2028 114.343 79.8652 114.252C79.5277 114.161 79.2324 113.955 79.03 113.67V113.67C79.0657 114.017 78.9794 114.365 78.786 114.656C78.5925 114.946 78.304 115.16 77.97 115.26V115.26C77.6352 115.359 77.2762 115.339 76.9549 115.202C76.6336 115.065 76.3702 114.82 76.21 114.51V114.51C76.2003 114.861 76.068 115.197 75.8359 115.46C75.6039 115.724 75.2868 115.897 74.94 115.951V115.951C74.5951 116.005 74.2421 115.937 73.9425 115.757C73.6429 115.578 73.4155 115.3 73.3 114.97V114.97C73.238 115.32 73.0547 115.637 72.7823 115.866C72.5098 116.094 72.1656 116.22 71.81 116.22V116.218Z" fill="white"/>
<path d="M90.73 104.569C90.5342 104.573 90.3399 104.535 90.16 104.458C89.8858 104.343 89.6515 104.15 89.4861 103.903C89.3207 103.656 89.2317 103.366 89.23 103.069C89.2323 102.671 89.3902 102.29 89.67 102.008C89.7379 101.938 89.8153 101.877 89.9 101.828C89.9801 101.77 90.0676 101.724 90.16 101.689C90.2497 101.649 90.3436 101.618 90.44 101.599C90.6313 101.559 90.8287 101.559 91.02 101.599C91.1164 101.618 91.2104 101.649 91.3 101.689C91.3915 101.726 91.4787 101.772 91.56 101.828C91.6447 101.877 91.7221 101.938 91.79 102.008C91.8587 102.08 91.9222 102.158 91.98 102.239C92.033 102.32 92.0766 102.407 92.11 102.498C92.1504 102.588 92.1806 102.682 92.2 102.779C92.2493 103.02 92.2377 103.27 92.1661 103.505C92.0945 103.741 91.9652 103.955 91.79 104.128C91.6523 104.269 91.4874 104.381 91.3052 104.457C91.123 104.533 90.9273 104.571 90.73 104.569V104.569Z" fill="white"/>
<g opacity="0.2">
<g opacity="0.2">
<path opacity="0.2" d="M103.429 117.579C99.0596 121.241 94.1091 124.148 88.782 126.179C82.8179 128.503 76.4388 129.572 70.043 129.32C63.6472 129.068 57.3719 127.5 51.609 124.715C46.4581 122.271 41.7517 118.985 37.684 114.99C41.1994 119.652 45.6666 123.513 50.789 126.315C56.6608 129.6 63.2259 131.45 69.9488 131.715C76.6717 131.98 83.362 130.652 89.474 127.839C94.8005 125.447 99.5573 121.95 103.429 117.579V117.579Z" fill="#3C3247"/>
</g>
<g opacity="0.2">
<path opacity="0.2" d="M28.7 155.486C29.2855 150.35 29.0618 145.153 28.037 140.086C27.0904 135.006 25.3533 130.105 22.889 125.563C23.741 129.763 25.004 135.092 26.039 140.474C27.092 145.857 27.918 151.275 28.7 155.486Z" fill="#3C3247"/>
</g>
<g opacity="0.2">
<path opacity="0.2" d="M87.358 157.006C83.2107 155.906 79.1589 154.473 75.242 152.721C70.8597 150.737 66.6208 148.45 62.556 145.877C54.231 140.651 46.338 134.469 39.721 130.399C45.7078 137.612 52.7464 143.883 60.6 149C64.8599 151.707 69.4636 153.831 74.288 155.314C78.5147 156.626 82.9364 157.199 87.358 157.006V157.006Z" fill="#3C3247"/>
</g>
<g opacity="0.2">
<path opacity="0.2" d="M103.308 142.932C97.7724 144.778 92.0462 145.994 86.238 146.557C80.4198 147.003 74.5699 146.792 68.799 145.928C71.3439 147.136 74.0408 147.994 76.816 148.477C83.1955 149.611 89.7612 149.041 95.85 146.825C98.5006 145.87 101.009 144.561 103.308 142.932V142.932Z" fill="#3C3247"/>
</g>
<g opacity="0.2">
<path opacity="0.2" d="M116.387 155.146C116.843 150.817 117.355 145.282 118.259 139.8C119.136 134.315 120.403 128.9 121.341 124.652C116.209 133.936 114.458 144.714 116.387 155.146V155.146Z" fill="#3C3247"/>
</g>
</g>
<path d="M103.992 70.582C108.949 70.582 112.968 66.5633 112.968 61.606C112.968 56.6487 108.949 52.63 103.992 52.63C99.0347 52.63 95.016 56.6487 95.016 61.606C95.016 66.5633 99.0347 70.582 103.992 70.582Z" fill="#A64F5A"/>
<path d="M103.991 66.678C106.793 66.678 109.064 64.4067 109.064 61.605C109.064 58.8032 106.793 56.532 103.991 56.532C101.189 56.532 98.918 58.8032 98.918 61.605C98.918 64.4067 101.189 66.678 103.991 66.678Z" fill="#8C404C"/>
<path d="M102.324 70.581C102.324 70.9108 102.421 71.2332 102.604 71.5074C102.787 71.7817 103.048 71.9955 103.352 72.1219C103.657 72.2482 103.992 72.2813 104.316 72.2171C104.639 72.1529 104.936 71.9942 105.169 71.7611C105.403 71.528 105.561 71.231 105.626 70.9076C105.69 70.5842 105.657 70.249 105.531 69.9443C105.405 69.6397 105.191 69.3793 104.917 69.196C104.643 69.0128 104.321 68.915 103.991 68.915C103.549 68.915 103.125 69.0905 102.813 69.4029C102.5 69.7153 102.324 70.1391 102.324 70.581V70.581Z" fill="white"/>
<path d="M47.369 67.953C50.8743 64.4477 50.8743 58.7644 47.369 55.259C43.8636 51.7537 38.1803 51.7537 34.675 55.259C31.1696 58.7644 31.1696 64.4477 34.675 67.953C38.1803 71.4584 43.8636 71.4584 47.369 67.953Z" fill="#A64F5A"/>
<path d="M46.1 61.606C46.0998 62.6093 45.8021 63.59 45.2446 64.4241C44.6871 65.2582 43.8948 65.9082 42.9679 66.2921C42.041 66.6759 41.021 66.7763 40.0371 66.5805C39.0531 66.3847 38.1493 65.9016 37.4399 65.1922C36.7304 64.4828 36.2473 63.5789 36.0515 62.595C35.8558 61.611 35.9561 60.5911 36.34 59.6642C36.7238 58.7372 37.3739 57.9449 38.208 57.3874C39.0421 56.8299 40.0228 56.5322 41.026 56.532C42.3717 56.532 43.6623 57.0666 44.6139 58.0182C45.5654 58.9697 46.1 60.2603 46.1 61.606V61.606Z" fill="#8C404C"/>
<path d="M42.688 70.581C42.6882 70.9108 42.5906 71.2332 42.4076 71.5074C42.2245 71.7817 41.9642 71.9955 41.6596 72.1219C41.355 72.2482 41.0198 72.2813 40.6964 72.2171C40.373 72.1529 40.0758 71.9942 39.8426 71.7611C39.6094 71.528 39.4505 71.231 39.3861 70.9076C39.3217 70.5842 39.3547 70.249 39.4808 69.9443C39.6069 69.6397 39.8206 69.3793 40.0948 69.196C40.3689 69.0128 40.6913 68.915 41.021 68.915C41.463 68.915 41.8868 69.0905 42.1994 69.4029C42.512 69.7153 42.6877 70.1391 42.688 70.581Z" fill="white"/>
<path d="M72.506 21.149C57.4 21.149 45.16 28.0001 45.16 43.1001V59.0831C45.1603 64.1017 46.2041 69.0654 48.2252 73.6591C50.2462 78.2528 53.2003 82.376 56.9 85.7671L58.039 86.8111C61.7922 90.2513 66.6986 92.1598 71.79 92.1601H73.23C78.3214 92.1599 83.2278 90.2514 86.981 86.8111L88.12 85.7671C91.819 82.3765 94.7725 78.2539 96.7931 73.6609C98.8136 69.0679 99.857 64.1049 99.857 59.0871V43.1001C99.853 28.0001 87.609 21.149 72.506 21.149Z" fill="#BD6C67"/>
<path d="M62.767 52.6301C62.767 53.1208 62.6215 53.6004 62.3489 54.0084C62.0763 54.4164 61.6888 54.7344 61.2354 54.9222C60.7821 55.11 60.2832 55.1591 59.802 55.0634C59.3207 54.9677 58.8786 54.7314 58.5317 54.3844C58.1847 54.0374 57.9484 53.5953 57.8527 53.1141C57.7569 52.6328 57.8061 52.134 57.9939 51.6806C58.1816 51.2273 58.4996 50.8398 58.9076 50.5672C59.3156 50.2946 59.7953 50.149 60.286 50.149C60.944 50.149 61.575 50.4105 62.0403 50.8757C62.5056 51.341 62.767 51.9721 62.767 52.6301V52.6301Z" fill="#3C3247"/>
<path d="M82.245 52.6301C82.245 53.1208 82.3905 53.6004 82.6631 54.0084C82.9357 54.4164 83.3232 54.7344 83.7766 54.9222C84.2299 55.11 84.7287 55.1591 85.21 55.0634C85.6913 54.9677 86.1333 54.7314 86.4803 54.3844C86.8273 54.0374 87.0636 53.5953 87.1593 53.1141C87.255 52.6328 87.2059 52.134 87.0181 51.6806C86.8304 51.2273 86.5124 50.8398 86.1044 50.5672C85.6964 50.2946 85.2167 50.149 84.726 50.149C84.068 50.149 83.4369 50.4105 82.9717 50.8757C82.5064 51.341 82.245 51.9721 82.245 52.6301V52.6301Z" fill="#3C3247"/>
<path d="M79.56 66.9131C75.3216 66.2375 71.0114 66.1366 66.746 66.6131C67.3958 67.7493 68.3054 68.7156 69.4004 69.4327C70.4955 70.1499 71.7447 70.5975 73.046 70.7391C75.618 70.9591 77.93 68.9151 79.56 66.9131Z" fill="#A64F5A"/>
<path d="M60.874 42.5361C59.5462 42.5884 58.2499 42.9551 57.0915 43.6062C55.9332 44.2572 54.9459 45.174 54.211 46.2811L67.863 45.628C67.0259 44.5963 65.9559 43.778 64.7409 43.2404C63.5258 42.7029 62.2005 42.4615 60.874 42.5361V42.5361Z" fill="#3C3247"/>
<path d="M84.139 42.5361C85.4666 42.5884 86.7628 42.9551 87.921 43.6062C89.0792 44.2573 90.0663 45.1741 90.801 46.2811L77.15 45.6281C77.987 44.5962 79.0571 43.7779 80.2721 43.2403C81.4871 42.7028 82.8125 42.4614 84.139 42.5361V42.5361Z" fill="#3C3247"/>
<path d="M64.7 57.4821C63.3132 56.7349 61.7712 56.3213 60.1966 56.2741C58.622 56.2269 57.0581 56.5473 55.629 57.2101C57.1196 57.5069 58.6343 57.6659 60.154 57.6851C61.6724 57.7563 63.194 57.6884 64.7 57.4821V57.4821Z" fill="#A64F5A"/>
<path d="M80.317 57.4821C81.7039 56.7349 83.2458 56.3213 84.8204 56.2741C86.395 56.2269 87.9589 56.5473 89.388 57.2101C86.3948 57.7522 83.3373 57.8439 80.317 57.4821V57.4821Z" fill="#A64F5A"/>
<path d="M72.816 77.0211L60.881 75.9821C64.094 77.1491 65.541 80.5241 72.816 80.5241C80.091 80.5241 81.537 77.1491 84.75 75.9821L72.816 77.0211Z" fill="#99253E"/>
<path d="M74.052 74.6761C73.64 74.8761 73.228 75.0761 72.816 75.2661C72.403 75.0721 71.991 74.8741 71.579 74.6761C70.5473 74.2003 69.3732 74.1348 68.295 74.4931C65.8952 75.2962 63.4047 75.7967 60.881 75.9831C60.881 75.9831 69.087 77.0211 72.816 77.0211C76.545 77.0211 84.75 75.9831 84.75 75.9831C82.2263 75.7965 79.7358 75.296 77.336 74.4931C76.2578 74.1348 75.0837 74.2003 74.052 74.6761V74.6761Z" fill="#AA3045"/>
<path d="M61.366 12.581C54.2924 15.2388 48.5418 20.5622 45.347 27.41C43.2721 32.3829 42.3616 37.7643 42.685 43.143C42.857 47.912 44.256 53.376 45.16 58.066C45.195 56.832 44.797 54.857 45.16 53.645C48 44.145 56.485 41.193 63.329 37.415C70.173 33.637 77.6 28.986 81.039 21.965C82.51 18.96 82.039 14.895 81.146 11.483C74.5912 9.86308 67.7012 10.2455 61.366 12.581V12.581Z" fill="#3C3247"/>
</svg>
