<svg width="558" height="556" viewBox="0 0 558 556" fill="none" xmlns="http://www.w3.org/2000/svg">
<rect width="558" height="556" fill="white"/>
<path d="M422.031 240.327L507 155.307C513.371 148.932 513.371 138.596 507 132.221L432.5 57C426.129 50.6252 416.171 50.6251 409.8 56.9999L242 229.5L154.869 142.978C148.499 136.603 138.169 136.603 131.798 142.978L49.7562 219.851C43.3853 226.225 43.3853 236.562 49.7562 242.937L134.725 327.957L143.053 336.291C151.8 344.932 148.499 342.059 154.869 348.434L222.894 416.5C229.265 422.875 239.595 422.875 245.966 416.5L318.578 343.69L330.7 332C309.792 352.5 344.4 316.676 357 305.254L381 281.207C396.062 266.458 396 266.177 409.8 252.35L422.031 240.327Z" fill="#A5EB78" stroke="#387921" stroke-width="15"/>
</svg>
