<svg width="558" height="556" viewBox="0 0 558 556" fill="none" xmlns="http://www.w3.org/2000/svg">
<rect width="558" height="556" fill="white"/>
<path d="M382.001 253.501L478.538 156.964C485.776 149.725 485.776 137.989 478.538 130.751L401.252 53.4636C394.014 46.2253 382.277 46.2253 375.039 53.4636L278.501 150.001L181.963 53.4636C174.724 46.2253 162.988 46.2253 155.75 53.4636L78.4636 130.75C71.2253 137.988 71.2253 149.724 78.4636 156.963L175.001 253.5L78.4636 350.038C71.2253 357.276 71.2253 369.013 78.4636 376.251L155.751 453.537C162.989 460.776 174.725 460.776 181.964 453.537L278.501 357L375.038 453.536C382.276 460.775 394.013 460.775 401.251 453.536L478.538 376.25C485.776 369.012 485.776 357.276 478.538 350.037L382.001 253.501Z" fill="#FF6465"/>
<path d="M388.138 465.988C381.592 465.988 375.042 463.496 370.058 458.511L333.662 422.115C330.915 419.369 330.915 414.914 333.662 412.169C336.409 409.423 340.862 409.421 343.61 412.169L380.005 448.564C384.489 453.048 391.787 453.05 396.272 448.564L473.557 371.278C475.73 369.106 476.927 366.217 476.927 363.145C476.927 360.073 475.731 357.185 473.558 355.012L377.021 258.474C374.274 255.727 374.274 251.273 377.021 248.527L473.558 151.99C475.731 149.817 476.928 146.929 476.928 143.857C476.928 140.785 475.732 137.897 473.56 135.724L396.273 58.4366C394.1 56.2635 391.212 55.0682 388.139 55.0682C385.068 55.0682 382.179 56.2643 380.007 58.4366L283.469 154.974C282.149 156.294 280.361 157.034 278.494 157.034C276.627 157.034 274.84 156.293 273.519 154.974L219.119 100.573C216.373 97.8263 216.373 93.3721 219.119 90.6262C221.867 87.8787 226.32 87.8795 229.067 90.6262L278.493 140.053L370.058 48.4898C374.888 43.6596 381.309 41 388.138 41C394.967 41 401.39 43.6596 406.218 48.489L483.505 125.776C488.335 130.605 490.994 137.027 490.994 143.856C490.994 150.685 488.335 157.107 483.504 161.936L391.942 253.499L483.505 345.063C488.335 349.892 490.994 356.313 490.994 363.143C490.994 369.972 488.335 376.394 483.504 381.223L406.22 458.509C401.234 463.496 394.687 465.988 388.138 465.988Z" fill="#832E2E"/>
<path d="M168.852 466C162.022 466 155.601 463.34 150.772 458.511L73.4844 381.224C63.5151 371.255 63.5151 355.033 73.4844 345.063L165.049 253.499L73.4844 161.936C63.516 151.967 63.516 135.745 73.4844 125.774L150.771 48.4881C155.601 43.6596 162.022 41 168.852 41C175.682 41 182.103 43.6596 186.932 48.489L209.173 70.7301C211.92 73.4768 211.92 77.931 209.173 80.6769C206.426 83.4236 201.972 83.4236 199.225 80.6769L176.984 58.4358C174.813 56.2635 171.923 55.0673 168.852 55.0673C165.78 55.0673 162.892 56.2635 160.718 58.4358L83.4329 135.722C78.9488 140.207 78.9488 147.503 83.4329 151.988L179.971 248.525C181.29 249.844 182.03 251.633 182.03 253.499C182.03 255.365 181.289 257.154 179.971 258.473L83.4329 355.011C78.948 359.496 78.948 366.792 83.4329 371.277L160.72 448.564C162.891 450.737 165.781 451.933 168.852 451.933C171.924 451.933 174.812 450.737 176.986 448.564L273.522 352.027C274.842 350.707 276.63 349.967 278.497 349.967C280.363 349.967 282.151 350.708 283.472 352.027L323.718 392.273C326.465 395.02 326.465 399.474 323.718 402.22C320.971 404.967 316.517 404.967 313.77 402.22L278.498 366.947L186.935 458.511C182.103 463.34 175.681 466 168.852 466Z" fill="#832E2E"/>
</svg>
