<svg xmlns="http://www.w3.org/2000/svg" width="38" height="41" viewBox="0 0 38 41">
  <g fill="none" fill-rule="evenodd" transform="translate(-7 -4)">
    <rect width="50" height="50"/>
    <path fill="#FBA3A3" fill-rule="nonzero" d="M30.933,32.528 C30.907,32.241 30.888,31.78 30.873,31.302 C35.218,30.857 38.266,29.815 38.266,28.601 C38.254,28.599 38.255,28.551 38.255,28.531 C35.007,25.604 41.071,4.803 29.782,5.225 C29.073,4.625 27.832,4.092 26.052,4.092 C10.761,5.249 17.522,24.892 14.038,28.6 C14.036,28.601 14.033,28.601 14.031,28.601 C14.031,28.603 14.032,28.605 14.032,28.607 C14.032,28.608 14.031,28.609 14.031,28.609 C14.031,28.609 14.032,28.609 14.033,28.61 C14.047,29.799 16.992,30.822 21.211,31.278 C21.199,31.568 21.174,31.927 21.119,32.528 C19.367,37.238 7.546,35.916 7,45 L45,45 C44.455,35.916 32.685,37.238 30.933,32.528 Z"/>
  </g>
</svg>
