<svg width="512" height="512" viewBox="0 0 512 512" fill="none" xmlns="http://www.w3.org/2000/svg">
<g clip-path="url(#clip0)">
<path d="M259.454 504.472C396.681 504.472 507.926 393.227 507.926 256C507.926 118.773 396.681 7.52844 259.454 7.52844C122.227 7.52844 10.9824 118.773 10.9824 256C10.9824 393.227 122.227 504.472 259.454 504.472Z" fill="#FAFCB2"/>
<path d="M88.1848 256C88.1848 131.904 179.183 29.0577 298.077 10.5117C285.496 8.54929 272.585 7.52844 259.454 7.52844C122.226 7.52844 10.9814 118.773 10.9814 256C10.9814 393.227 122.226 504.472 259.453 504.472C272.584 504.472 285.495 503.45 298.076 501.487C179.183 482.942 88.1848 380.096 88.1848 256Z" fill="#E8DE8C"/>
<path d="M356.158 297.216H335.52L334.27 305.895H177.706L176.461 297.216H155.823C150.131 297.216 145.514 301.833 145.514 307.524V324.639C145.514 356.409 158.925 385.047 180.386 405.183C183.017 401.686 185.863 398.38 188.897 395.278H323.105C326.135 398.377 328.978 401.68 331.607 405.173C353.068 385.027 366.469 356.399 366.469 324.639V307.524C366.467 301.833 361.849 297.216 356.158 297.216V297.216Z" fill="#D73638"/>
<path d="M335.52 297.216L332.75 316.458C331.645 324.187 325.01 329.929 317.201 329.929H194.779C186.959 329.929 180.334 324.187 179.22 316.458L176.46 297.216H335.52Z" fill="#F9F7F8"/>
<path d="M256 366.537C286.605 366.537 313.888 381.624 331.605 405.173C311.851 423.743 285.24 435.116 255.99 435.116C226.74 435.116 200.149 423.753 180.385 405.183C198.101 381.634 225.384 366.537 256 366.537Z" fill="#ED6465"/>
<path d="M471.396 380.145C467.859 377.957 463.22 379.05 461.033 382.587C439.811 416.884 410.085 445.557 375.07 465.507C338.973 486.072 297.8 496.943 256 496.943C167.426 496.943 86.1802 448.506 43.97 370.534C41.9905 366.878 37.4233 365.518 33.7655 367.498C30.1087 369.477 28.7495 374.045 30.729 377.702C75.5732 460.541 161.892 512.001 256 512.001C300.409 512.001 344.16 500.447 382.524 478.59C419.72 457.398 451.295 426.94 473.837 390.51C476.025 386.973 474.932 382.334 471.396 380.145Z" fill="#489F40"/>
<path d="M30.9679 342.244C20.41 314.715 15.0568 285.698 15.0568 256C15.0568 201.164 33.9862 147.493 68.3569 104.873C70.9678 101.637 70.4599 96.8967 67.2227 94.2868C63.9865 91.676 59.2466 92.1849 56.6367 95.4211C38.6739 117.694 24.6781 142.577 15.0377 169.376C5.06009 197.116 0 226.261 0 256C0 287.548 5.68947 318.379 16.9098 347.636C18.0581 350.631 20.9129 352.47 23.9403 352.47C24.8367 352.47 25.7482 352.308 26.6345 351.968C30.5172 350.481 32.4565 346.126 30.9679 342.244V342.244Z" fill="#489F40"/>
<path d="M437.019 74.9809C388.668 26.6285 324.38 0 256 0C189.728 0 126.87 25.2332 79.0062 71.0501C76.0028 73.925 75.8984 78.6909 78.7733 81.6943C81.6481 84.6976 86.4141 84.802 89.4175 81.9271C134.465 38.8054 193.627 15.0568 256 15.0568C320.358 15.0568 380.865 40.1194 426.372 85.6271C471.881 131.135 496.943 191.642 496.943 256C496.943 290.548 489.788 323.898 475.678 355.12C473.966 358.909 475.649 363.368 479.437 365.081C480.444 365.535 481.497 365.75 482.533 365.75C485.4 365.75 488.141 364.103 489.398 361.32C504.395 328.135 512 292.7 512 255.999C512 187.62 485.372 123.332 437.019 74.9809V74.9809Z" fill="#489F40"/>
<path d="M503 257C503 392.829 392.448 503 256 503C119.552 503 9 392.829 9 257C9 121.171 119.552 11 256 11C392.448 11 503 121.171 503 257Z" stroke="#368E2E" stroke-width="18"/>
<path d="M137.984 307.525V324.643C137.984 389.711 190.919 442.646 255.988 442.646C321.056 442.646 373.991 389.711 373.991 324.643V307.525C373.991 297.692 365.99 289.691 356.156 289.691H155.818C145.984 289.692 137.984 297.692 137.984 307.525V307.525ZM255.987 427.59C231.281 427.59 208.581 418.839 190.819 404.277C207.675 384.996 231.07 374.064 256 374.064C280.925 374.064 304.315 384.99 321.17 404.264C303.407 418.833 280.701 427.59 255.987 427.59ZM358.934 307.525V324.643C358.934 351.283 348.763 375.589 332.101 393.888C312.418 371.62 285.129 359.008 256.001 359.008C226.866 359.008 199.572 371.625 179.888 393.903C163.218 375.603 153.041 351.291 153.041 324.644V307.526C153.041 305.996 154.287 304.749 155.819 304.749H169.933L171.77 317.526C173.404 328.891 183.295 337.462 194.778 337.462H317.198C328.68 337.462 338.572 328.891 340.205 317.527L342.043 304.75H356.157C357.689 304.749 358.934 305.995 358.934 307.525V307.525ZM185.145 304.749H326.83L325.3 315.384C324.725 319.387 321.242 322.406 317.198 322.406H194.777C190.733 322.406 187.249 319.387 186.673 315.383L185.145 304.749Z" fill="#489F40"/>
<path d="M175.9 214.055C184.302 203.781 182.785 188.641 172.511 180.238C162.237 171.836 147.096 173.353 138.694 183.627C130.292 193.901 131.809 209.042 142.083 217.444C152.357 225.846 167.497 224.329 175.9 214.055Z" fill="#489F40"/>
<path d="M376.171 210.036C382.25 198.236 377.613 183.741 365.812 177.662C354.011 171.582 339.517 176.22 333.437 188.021C327.358 199.821 331.996 214.316 343.796 220.395C355.597 226.475 370.091 221.837 376.171 210.036Z" fill="#489F40"/>
<path d="M382.285 130.879C382.285 115.654 369.899 103.268 354.674 103.268C339.45 103.268 327.063 115.653 327.063 130.879C327.063 135.037 330.433 138.407 334.592 138.407C338.75 138.407 342.12 135.037 342.12 130.879C342.12 123.957 347.751 118.325 354.674 118.325C361.597 118.325 367.228 123.956 367.228 130.879C367.228 135.037 370.598 138.407 374.756 138.407C378.915 138.407 382.285 135.037 382.285 130.879Z" fill="#489F40"/>
<path d="M157.327 103.268C142.102 103.268 129.715 115.653 129.715 130.879C129.715 135.037 133.086 138.407 137.244 138.407C141.402 138.407 144.772 135.037 144.772 130.879C144.772 123.957 150.404 118.325 157.327 118.325C164.249 118.325 169.88 123.956 169.88 130.879C169.88 135.037 173.251 138.407 177.408 138.407C181.566 138.407 184.937 135.037 184.937 130.879C184.937 115.654 172.551 103.268 157.327 103.268V103.268Z" fill="#489F40"/>
</g>
<defs>
<clipPath id="clip0">
<rect width="512" height="512" fill="white"/>
</clipPath>
</defs>
</svg>
