<svg xmlns="http://www.w3.org/2000/svg" width="76" height="72" viewBox="0 0 76 72">
  <g fill="#75DE8B">
    <path d="M61.5,2.5 C53.8,1.1 45.9,0.3 38.1,0.3 C30.3,0.2 22.5,0.8 14.7,2.1 C9,3.1 3.3,8.6 2.1,14.4 C0.7,21.6 0,28.8 0,36 C0,43.2 0.7,50.4 2.1,57.7 C3.3,63.4 8.9,68.9 14.7,70 C22,71.2 29.5,71.8 36.8,71.8 C37.2,71.8 37.6,71.8 38,71.8 C45.8,71.7 53.6,71 61.4,69.6 C61.4,69.6 61.4,69.6 61.4,69.6 C67.1,68.5 72.7,63 73.9,57.3 C75.3,50.3 76,43.1 76,36.1 C76,29.1 75.3,21.9 73.9,14.9 C72.9,9.1 67.3,3.6 61.5,2.5 Z M67.2,55.8 C66.6,58.6 63.2,62 60.3,62.6 C53,63.9 45.5,64.7 38.2,64.7 C30.9,64.8 23.4,64.2 16.1,63 C13.2,62.5 9.8,59.1 9.2,56.3 C7.9,49.6 7.2,42.7 7.2,36 C7.2,29.3 7.9,22.4 9.2,15.8 C9.8,12.9 13.2,9.5 16.1,9 C23.1,7.9 30.1,7.3 37.1,7.3 C37.5,7.3 37.9,7.3 38.3,7.3 C45.7,7.4 53.1,8.1 60.4,9.4 C63.3,10 66.8,13.3 67.3,16.1 C68.6,22.7 69.2,29.4 69.2,36 C69.1,42.6 68.4,49.3 67.2,55.8 Z"/>
    <path d="M52 39.3C42.8 41.2 33.4 41.2 24.2 39.3 23.1 39.1 22 39.4 21.2 40.1 20.4 40.8 19.9 41.9 20 43 20.5 48.9 25 60.2 38.1 60.2 51.2 60.2 55.7 48.9 56.2 43 56.3 41.9 55.9 40.8 55 40.1 54.2 39.4 53.1 39.1 52 39.3zM56.4 18.5C55 18.3 53.6 18.7 52.6 19.5 51.9 18.4 50.8 17.6 49.4 17.3 46.8 16.9 44.4 18.6 44 21.2 43.1 26.8 50.5 32.6 50.5 32.6 50.5 32.6 59.4 29 60.3 23.9 60.7 21.3 59 18.9 56.4 18.5zM31.7 21.3C31.3 18.7 28.9 17 26.3 17.4 24.9 17.6 23.7 18.5 23.1 19.6 22.1 18.8 20.7 18.3 19.3 18.6 16.7 19 15 21.4 15.4 24 16.2 29.1 25.2 32.7 25.2 32.7 25.2 32.7 32.6 26.9 31.7 21.3z"/>
  </g>
</svg>
