<svg xmlns="http://www.w3.org/2000/svg" xmlns:xlink="http://www.w3.org/1999/xlink" version="1.1" x="0px" y="0px" viewBox="-909 491 100 100" style="enable-background:new -909 491 100 100;" xml:space="preserve"><path d="M-835.5,507.5c-7.7-1.4-15.6-2.2-23.4-2.2c-7.8-0.1-15.6,0.5-23.4,1.8c-5.7,1-11.4,6.5-12.6,12.3  c-1.4,7.2-2.1,14.4-2.1,21.6s0.7,14.4,2.1,21.7c1.2,5.7,6.8,11.2,12.6,12.3c7.3,1.2,14.8,1.8,22.1,1.8c0.4,0,0.8,0,1.2,0  c7.8-0.1,15.6-0.8,23.4-2.2c0,0,0,0,0,0c5.7-1.1,11.3-6.6,12.5-12.3c1.4-7,2.1-14.2,2.1-21.2s-0.7-14.2-2.1-21.2  C-824.1,514.1-829.7,508.6-835.5,507.5z M-829.8,560.8c-0.6,2.8-4,6.2-6.9,6.8c-7.3,1.3-14.8,2.1-22.1,2.1  c-7.3,0.1-14.8-0.5-22.1-1.7c-2.9-0.5-6.3-3.9-6.9-6.7c-1.3-6.7-2-13.6-2-20.3c0-6.7,0.7-13.6,2-20.2c0.6-2.9,4-6.3,6.9-6.8  c7-1.1,14-1.7,21-1.7c0.4,0,0.8,0,1.2,0c7.4,0.1,14.8,0.8,22.1,2.1c2.9,0.6,6.4,3.9,6.9,6.7c1.3,6.6,1.9,13.3,1.9,19.9  C-827.9,547.6-828.6,554.3-829.8,560.8z"></path><path d="M-845,544.3c-9.2,1.9-18.6,1.9-27.8,0c-1.1-0.2-2.2,0.1-3,0.8c-0.8,0.7-1.3,1.8-1.2,2.9c0.5,5.9,5,17.2,18.1,17.2  s17.6-11.3,18.1-17.2c0.1-1.1-0.3-2.2-1.2-2.9C-842.8,544.4-843.9,544.1-845,544.3z"></path><path d="M-840.6,523.5c-1.4-0.2-2.8,0.2-3.8,1c-0.7-1.1-1.8-1.9-3.2-2.2c-2.6-0.4-5,1.3-5.4,3.9c-0.9,5.6,6.5,11.4,6.5,11.4  s8.9-3.6,9.8-8.7C-836.3,526.3-838,523.9-840.6,523.5z"></path><path d="M-865.3,526.3c-0.4-2.6-2.8-4.3-5.4-3.9c-1.4,0.2-2.6,1.1-3.2,2.2c-1-0.8-2.4-1.3-3.8-1c-2.6,0.4-4.3,2.8-3.9,5.4  c0.8,5.1,9.8,8.7,9.8,8.7S-864.4,531.9-865.3,526.3z"></path></svg>