<svg xmlns="http://www.w3.org/2000/svg" width="38" height="41" viewBox="0 0 38 41">
  <g fill="none" fill-rule="evenodd" transform="translate(-7 -4)">
    <rect width="50" height="50"/>
    <path fill="#A3D2FB" fill-rule="nonzero" d="M30.933,32.528 C30.787,30.916 30.843,29.791 30.843,28.318 C31.573,27.935 32.881,25.493 33.102,23.43 C33.676,23.383 34.581,22.823 34.846,20.612 C34.989,19.425 34.421,18.757 34.075,18.547 C35.009,15.738 36.949,7.048 30.487,6.15 C29.822,4.982 28.119,4.391 25.906,4.391 C17.052,4.554 15.984,11.077 17.925,18.547 C17.58,18.757 17.012,19.425 17.154,20.612 C17.42,22.823 18.324,23.383 18.898,23.43 C19.118,25.492 20.478,27.935 21.21,28.318 C21.21,29.791 21.265,30.916 21.119,32.528 C19.367,37.238 7.546,35.916 7,45 L45,45 C44.455,35.916 32.685,37.238 30.933,32.528 Z"/>
  </g>
</svg>
