<svg xmlns="http://www.w3.org/2000/svg" width="77" height="72" viewBox="0 0 77 72">
  <g fill="#DA8E30">
    <path d="M14.8,69.9 C22.1,71.1 29.6,71.7 36.9,71.7 C37.3,71.7 37.7,71.7 38.1,71.7 C45.9,71.6 53.7,70.9 61.5,69.5 C61.5,69.5 61.5,69.5 61.5,69.5 C67.2,68.4 72.8,62.9 74,57.2 C75.4,50.2 76.1,43 76.1,36 C76.1,29 75.4,21.8 74,14.8 C72.8,9.2 67.2,3.7 61.5,2.6 C53.8,1.2 45.9,0.4 38.1,0.4 C30.3,0.3 22.5,0.9 14.7,2.2 C9,3.2 3.3,8.7 2.1,14.5 C0.7,21.7 0,28.9 0,36.1 C0,43.3 0.7,50.5 2.1,57.8 C3.4,63.4 9,68.9 14.8,69.9 Z M9,15.8 C9.6,12.9 13,9.5 15.9,9 C22.9,7.9 29.9,7.3 36.9,7.3 C37.3,7.3 37.7,7.3 38.1,7.3 C45.5,7.4 52.9,8.1 60.2,9.4 C63.1,10 66.6,13.3 67.1,16.1 C68.4,22.7 69,29.4 69,36 C69,42.6 68.4,49.3 67.1,55.8 C66.5,58.6 63.1,62 60.2,62.6 C52.9,63.9 45.4,64.7 38.1,64.7 C30.7,64.8 23.3,64.2 16,63 C13.1,62.5 9.7,59.1 9.1,56.3 C7.8,49.6 7.1,42.7 7.1,36 C7.1,29.3 7.7,22.5 9,15.8 Z"/>
    <path d="M20,48.6 C20,50.5 21.6,52.1 23.5,52.1 L52.7,52.1 C54.6,52.1 56.2,50.5 56.2,48.6 C56.2,46.7 54.6,45.1 52.7,45.1 L23.5,45.1 C21.6,45.1 20,46.7 20,48.6 Z"/>
    <circle cx="23.5" cy="28.8" r="4.7"/>
    <circle cx="52.7" cy="28.8" r="4.7"/>
  </g>
</svg>
