<svg width="572" height="744" viewBox="0 0 572 744" fill="none" xmlns="http://www.w3.org/2000/svg">
<g clip-path="url(#clip0)">
<path d="M77.2263 150.893C54.0512 212.761 46.9221 281.324 73.6945 329.633C100.467 377.942 161.219 406.402 214.838 433.232C268.458 460.063 314.944 485.028 367.914 490.864C420.884 496.701 480.025 483.035 514.377 444.951C548.729 406.867 558.382 344.486 554.551 285.59C550.72 226.694 533.693 171.047 498.243 142.819C462.792 114.592 408.872 113.659 352.54 90.9184C296.209 68.1775 237.216 23.3606 188.271 28.663C139.327 33.9653 100.295 89.09 77.2263 150.893Z" fill="#DBE8F3"/>
<path d="M163 81H204.323L183.662 116.792L163 81Z" stroke="#B6BDFC" stroke-width="2" stroke-linecap="round" stroke-linejoin="round"/>
<path d="M538 218.532L552.791 209L571.581 238.177L556.79 247.708L538 218.532Z" stroke="#FCCFB6" stroke-width="2" stroke-linecap="round" stroke-linejoin="round"/>
<path d="M314 155.816L439.464 87L489.884 178.971L364.421 247.788L314 155.816Z" fill="#D0C6E6"/>
<path d="M346.325 72.6617C336.757 72.6617 329 64.9024 329 55.3309C329 45.7593 336.757 38 346.325 38C355.894 38 363.65 45.7593 363.65 55.3309C363.65 64.9024 355.894 72.6617 346.325 72.6617Z" stroke="#A8B6E8" stroke-width="2" stroke-linecap="round" stroke-linejoin="round"/>
<path d="M169.467 159L172.616 223.729L115 194.088L169.467 159Z" fill="#9FC1F3"/>
</g>
<defs>
<clipPath id="clip0">
<rect width="572" height="744" fill="white" transform="matrix(-1 0 0 1 572 0)"/>
</clipPath>
</defs>
</svg>
