<svg xmlns="http://www.w3.org/2000/svg" width="77" height="72" viewBox="0 0 77 72">
  <g fill="#E65757">
    <path d="M21.4 30.2C24.1 29.9 26.6 28.8 28.7 27.2L29.3 26.7C30.8 25.5 31.1 23.3 29.9 21.8 28.7 20.3 26.5 20 25 21.2L24.4 21.7C23.3 22.6 21.9 23.1 20.5 23.3 18.6 23.5 17.2 25.3 17.5 27.2 17.7 29 19.2 30.3 21 30.3 21.1 30.3 21.3 30.3 21.4 30.2zM56.6 23.3C55.2 23.1 53.8 22.6 52.7 21.7L52.1 21.2C50.6 20 48.4 20.3 47.2 21.8 46 23.3 46.3 25.5 47.8 26.7L48.4 27.2C50.5 28.8 53.1 29.9 55.7 30.2 55.8 30.2 56 30.2 56.1 30.2 57.8 30.2 59.4 28.9 59.6 27.1 59.9 25.3 58.5 23.5 56.6 23.3z"/>
    <path d="M62,2.5 C54.3,1.1 46.4,0.3 38.6,0.3 C30.8,0.2 23,0.8 15.2,2.1 C9.5,3.1 3.8,8.6 2.6,14.4 C1.2,21.6 0.5,28.8 0.5,36 C0.5,43.2 1.2,50.4 2.6,57.7 C3.8,63.4 9.4,68.9 15.2,70 C22.5,71.2 30,71.8 37.3,71.8 C37.7,71.8 38.1,71.8 38.5,71.8 C46.3,71.7 54.1,71 61.9,69.6 C61.9,69.6 61.9,69.6 61.9,69.6 C67.6,68.5 73.2,63 74.4,57.3 C75.8,50.3 76.5,43.1 76.5,36.1 C76.5,29.1 75.8,21.9 74.4,14.9 C73.3,9.1 67.7,3.6 62,2.5 Z M67.6,55.8 C67,58.6 63.6,62 60.7,62.6 C53.4,63.9 45.9,64.7 38.6,64.7 C31.2,64.8 23.8,64.2 16.5,63 C13.6,62.5 10.2,59.1 9.6,56.3 C8.3,49.6 7.6,42.7 7.6,36 C7.6,29.3 8.3,22.4 9.6,15.8 C10.2,12.9 13.6,9.5 16.5,9 C23.5,7.9 30.5,7.3 37.5,7.3 C37.9,7.3 38.3,7.3 38.7,7.3 C46.1,7.4 53.5,8.1 60.8,9.4 C63.7,10 67.2,13.3 67.7,16.1 C69,22.7 69.6,29.4 69.6,36 C69.6,42.6 68.9,49.3 67.6,55.8 Z"/>
    <path d="M38,38.1 C24,38.9 20.7,48.8 20.9,53.9 C20.9,54.8 21.3,55.7 22,56.3 C22.6,56.9 23.5,57.2 24.4,57.2 C24.5,57.2 24.5,57.2 24.6,57.2 L53.7,55.7 C55.4,55.6 56.7,54.4 57,52.8 C57.1,52.2 57.8,47.1 54,42.9 C50.7,39.3 45.3,37.7 38,38.1 Z"/>
  </g>
</svg>
