<svg width="512" height="512" viewBox="0 0 512 512" fill="none" xmlns="http://www.w3.org/2000/svg">
<g clip-path="url(#clip0)">
<path d="M256.083 504.445C393.299 504.445 504.535 393.209 504.535 255.993C504.535 118.777 393.299 7.54102 256.083 7.54102C118.867 7.54102 7.6311 118.777 7.6311 255.993C7.6311 393.209 118.867 504.445 256.083 504.445Z" fill="#FFF1BE"/>
<path d="M174.929 446.227C18.4999 355.912 9.00188 134.753 153.679 30.3719C107.877 50.9789 67.8819 85.6359 40.8519 132.454C-27.6311 251.071 13.0099 402.745 131.626 471.229C218.917 521.626 324.109 512.921 400.876 457.535C330.634 489.138 246.728 487.68 174.929 446.227Z" fill="#FFB681"/>
<path d="M325.339 347.914C281.946 337.572 230.154 337.588 186.821 347.914C177.65 358.956 170.629 372.196 166.496 386.837C165.382 390.786 168.716 394.644 172.439 393.5C222.953 377.976 289.112 377.947 339.72 393.5C342.89 394.474 345.851 391.802 345.878 388.451C345.882 387.98 339.449 364.9 325.339 347.914Z" fill="#ED694A"/>
<path d="M325.339 347.914C281.946 337.572 230.154 337.588 186.821 347.914C177.65 358.956 170.629 372.196 166.496 386.837C165.382 390.786 168.716 394.644 172.439 393.5C222.953 377.976 289.112 377.947 339.72 393.5C342.89 394.474 345.851 391.802 345.878 388.451C345.882 387.98 339.449 364.9 325.339 347.914Z" fill="#ED694A"/>
<path d="M191.498 386.838C195.631 372.196 202.651 358.956 211.823 347.915C211.836 347.912 211.849 347.909 211.861 347.906C213.388 346.067 214.981 344.295 216.623 342.581C206.397 343.855 196.402 345.632 186.822 347.915C177.651 358.957 170.63 372.197 166.497 386.838C165.383 390.786 168.717 394.645 172.44 393.501C178.514 391.634 184.821 389.997 191.293 388.579C191.275 388.01 191.332 387.426 191.498 386.838Z" fill="#D8553A"/>
<path d="M327.302 350.381C321.352 342.748 314.418 336.068 306.697 330.612L306.708 330.611C306.606 330.539 305.997 330.115 305.895 330.045C305.889 330.046 305.882 330.046 305.876 330.047C275.485 309.055 236.685 309.048 206.284 330.047C206.284 330.047 206.271 330.046 206.265 330.045C206.161 330.117 205.554 330.54 205.452 330.612L205.463 330.613C197.743 336.069 190.808 342.749 184.858 350.383C229.233 339.423 282.865 339.406 327.302 350.381Z" fill="#66380E"/>
<path d="M230.466 330.611L230.455 330.61C230.556 330.539 231.163 330.116 231.268 330.043C231.274 330.044 231.287 330.045 231.287 330.045C242.816 322.082 255.553 317.146 268.581 315.224C247.259 312.078 225.155 317.011 206.286 330.045C206.286 330.045 206.273 330.044 206.267 330.043C206.163 330.115 205.556 330.538 205.454 330.61L205.465 330.611C197.745 336.067 190.81 342.747 184.86 350.381C194.374 348.032 204.316 346.189 214.499 344.846C219.322 339.488 224.672 334.705 230.466 330.611Z" fill="#824A2A"/>
<path d="M373.387 209.735C373.887 205.624 370.96 201.884 366.848 201.383C349.241 199.239 333.91 190.893 323.684 177.882C321.124 174.624 316.409 174.062 313.152 176.62C309.895 179.18 309.331 183.894 311.89 187.152C324.587 203.305 343.461 213.647 365.036 216.274C369.184 216.776 372.889 213.816 373.387 209.735Z" fill="#9B4A1B"/>
<path d="M200.272 187.152C202.832 183.895 202.267 179.18 199.01 176.62C195.753 174.061 191.038 174.624 188.478 177.882C178.251 190.894 162.922 199.239 145.313 201.383C141.201 201.884 138.273 205.623 138.774 209.735C139.272 213.826 142.987 216.773 147.125 216.274C168.703 213.647 187.577 203.306 200.272 187.152Z" fill="#9B4A1B"/>
<path d="M352.713 283.897C326.246 266.025 321.513 264.358 321.513 262.066C321.513 259.896 326.207 258.026 339.287 248.894C342.728 246.588 343.647 241.929 341.341 238.488C339.035 235.046 334.373 234.128 330.935 236.434L315.342 246.886C303.571 254.778 303.547 269.337 315.394 277.28C345.139 296.363 344.601 297.662 348.581 297.662C356.005 297.663 358.914 287.981 352.713 283.897Z" fill="#9B4A1B"/>
<path d="M167.859 296.317L195.527 277.058C207.235 269.161 207.231 254.623 195.468 246.738L179.876 236.286C176.436 233.98 171.777 234.899 169.469 238.34C167.163 241.78 168.082 246.44 171.523 248.746L187.115 259.198C189.972 261.115 189.984 262.714 187.115 264.638C184.445 266.418 196.843 257.865 159.289 284.006C155.889 286.372 155.052 291.046 157.418 294.447C159.797 297.864 164.475 298.674 167.859 296.317Z" fill="#9B4A1B"/>
<path d="M306.646 385.762C305.867 389.83 308.534 393.76 312.601 394.539C333.426 398.527 336.727 401.202 341.045 401.202C343.435 401.202 345.791 400.481 347.826 399.085C351.773 396.375 353.846 391.574 353.288 386.894C353.213 386.198 353.069 385.464 352.882 384.799C348.832 370.451 342.069 357.121 333.216 345.77C330.396 342.15 327.318 338.669 323.835 335.24C321.82 333.254 319.763 331.389 317.904 329.821C315.607 327.882 313.298 326.103 311.056 324.498C310.485 324.097 310.063 323.799 309.785 323.631C271.528 297.45 222.489 302.699 189.601 333.992C171.29 351.439 159.174 378.797 158.794 387.823C158.397 396.482 166.412 403.197 174.641 400.671C205.118 391.306 241.999 387.566 278.48 390.141C282.596 390.426 286.198 387.32 286.49 383.188C286.782 379.056 283.669 375.47 279.537 375.178C243.088 372.609 206.152 376.074 174.907 384.951C178.222 374.791 183.08 365.371 189.201 357.058C231.297 347.139 280.868 347.14 322.959 357.058C329.079 365.372 333.939 374.793 337.254 384.952C330.308 382.981 322.985 381.255 315.424 379.806C311.346 379.032 307.425 381.694 306.646 385.762ZM207.806 338.207C236.779 316.466 275.325 316.423 304.355 338.206C272.983 333.439 239.178 333.44 207.806 338.207Z" fill="#9B4A1B"/>
<path d="M417.53 57.321C414.315 54.708 409.591 55.199 406.979 58.414C404.368 61.629 404.857 66.352 408.072 68.965C538.162 174.639 523.615 379.767 376.557 464.67C293.099 512.856 189.23 506.764 111.94 449.148C108.62 446.671 103.92 447.357 101.443 450.678C98.967 453.999 99.653 458.698 102.974 461.174C185.15 522.435 295.484 528.797 384.056 477.661C540.56 387.302 555.511 169.398 417.53 57.321Z" fill="#9B4A1B"/>
<path d="M390.504 46.87C392.635 43.317 391.482 38.7111 387.93 36.5801C242.633 -50.554 53.0251 24.877 8.84705 189.75C-15.8899 282.071 13.0191 375.303 75.6521 437.601C77.1151 439.057 79.0281 439.784 80.9411 439.784C87.5581 439.784 91.0041 431.713 86.2301 426.966C27.3271 368.376 0.0170517 280.662 23.3361 193.633C64.9511 38.323 243.493 -32.5469 380.214 49.444C383.766 51.575 388.374 50.425 390.504 46.87Z" fill="#9B4A1B"/>
<path d="M503 256C503 392.398 392.207 503 255.5 503C118.793 503 8 392.398 8 256C8 119.602 118.793 9 255.5 9C392.207 9 503 119.602 503 256Z" stroke="#9E4512" stroke-width="18"/>
</g>
<defs>
<clipPath id="clip0">
<rect width="512.001" height="512.001" fill="white"/>
</clipPath>
</defs>
</svg>
