<svg width="512" height="512" viewBox="0 0 512 512" fill="none" xmlns="http://www.w3.org/2000/svg">
<g clip-path="url(#clip0)">
<path d="M256.022 504.425C393.217 504.425 504.435 393.207 504.435 256.012C504.435 118.817 393.217 7.599 256.022 7.599C118.827 7.599 7.60901 118.817 7.60901 256.012C7.60901 393.207 118.827 504.425 256.022 504.425Z" fill="#FFEA92"/>
<path d="M174.881 446.211C18.478 355.912 8.979 134.786 153.633 30.421C107.838 51.025 67.849 85.677 40.823 132.487C-27.65 251.085 12.985 402.735 131.583 471.207C218.86 521.597 324.036 512.892 400.791 457.516C330.561 489.115 246.668 487.657 174.881 446.211Z" fill="#E8C842"/>
<path d="M177.37 249.818C189.885 249.818 200.031 236.883 200.031 220.926C200.031 204.969 189.885 192.034 177.37 192.034C164.855 192.034 154.709 204.969 154.709 220.926C154.709 236.883 164.855 249.818 177.37 249.818Z" fill="#88704D"/>
<path d="M194.703 237.873C182.188 237.873 172.042 224.937 172.042 208.981C172.042 202.665 173.637 196.826 176.334 192.072C164.301 192.764 154.711 205.418 154.711 220.931C154.711 236.887 164.856 249.823 177.372 249.823C184.933 249.823 191.624 245.097 195.741 237.84C195.395 237.859 195.051 237.873 194.703 237.873Z" fill="#7A5E43"/>
<path d="M334.663 249.818C347.178 249.818 357.324 236.883 357.324 220.926C357.324 204.969 347.178 192.034 334.663 192.034C322.148 192.034 312.002 204.969 312.002 220.926C312.002 236.883 322.148 249.818 334.663 249.818Z" fill="#88704D"/>
<path d="M351.999 237.873C339.484 237.873 329.338 224.937 329.338 208.981C329.338 202.665 330.933 196.826 333.63 192.072C321.597 192.764 312.007 205.418 312.007 220.931C312.007 236.887 322.152 249.823 334.668 249.823C342.229 249.823 348.92 245.097 353.037 237.84C352.693 237.859 352.347 237.873 351.999 237.873Z" fill="#7A5E43"/>
<path d="M177.226 184.486C160.574 184.486 147.025 200.835 147.025 220.93C147.025 241.025 160.574 257.374 177.226 257.374C193.879 257.374 207.428 241.025 207.428 220.93C207.428 200.835 193.88 184.486 177.226 184.486ZM177.226 242.376C168.986 242.376 162.024 232.555 162.024 220.93C162.024 209.305 168.986 199.484 177.226 199.484C185.467 199.484 192.429 209.305 192.429 220.93C192.429 232.555 185.468 242.376 177.226 242.376Z" fill="#85701A"/>
<path d="M365.013 220.93C365.013 200.834 351.465 184.486 334.812 184.486C318.159 184.486 304.61 200.835 304.61 220.93C304.61 241.025 318.158 257.374 334.812 257.374C351.465 257.375 365.013 241.025 365.013 220.93ZM319.609 220.93C319.609 209.305 326.571 199.484 334.812 199.484C343.052 199.484 350.014 209.305 350.014 220.93C350.014 232.555 343.052 242.376 334.812 242.376C326.571 242.376 319.609 232.554 319.609 220.93Z" fill="#85701A"/>
<path d="M153.218 342.506C153.218 346.649 156.575 350.005 160.717 350.005H351.321C355.464 350.005 358.82 346.648 358.82 342.506C358.82 338.363 355.463 335.007 351.321 335.007H160.717C156.575 335.007 153.218 338.365 153.218 342.506Z" fill="#85701A"/>
<path d="M140.77 27.522C137.074 29.39 135.592 33.901 137.46 37.597C139.328 41.294 143.839 42.777 147.536 40.908C261.471 -16.681 400.766 24.891 464.659 135.554C529.496 247.854 493.485 389.62 386.647 458.44C383.165 460.682 382.162 465.323 384.403 468.805C386.645 472.283 391.282 473.293 394.769 471.049C508.318 397.905 546.491 247.298 477.648 128.056C409.78 10.501 261.805 -33.659 140.77 27.522Z" fill="#85701A"/>
<path d="M256.196 511.967C292.848 511.966 329.315 504.064 363.161 488.415C366.921 486.677 368.558 482.221 366.821 478.461C365.083 474.702 360.628 473.066 356.867 474.801C302.548 499.915 241.063 503.829 183.737 485.821C64.307 448.305 -6.663 325.291 21.034 202.913C34.37 143.984 68.937 92.624 118.37 58.293C121.772 55.931 122.614 51.258 120.252 47.856C117.89 44.456 113.22 43.61 109.815 45.974C57.296 82.449 20.571 137.009 6.405 199.602C-29.812 359.634 92.158 511.967 256.196 511.967Z" fill="#85701A"/>
<path d="M503 256C503 392.398 392.207 503 255.5 503C118.793 503 8 392.398 8 256C8 119.602 118.793 9 255.5 9C392.207 9 503 119.602 503 256Z" stroke="#9E8312" stroke-width="18"/>
</g>
<defs>
<clipPath id="clip0">
<rect width="512" height="512" fill="white"/>
</clipPath>
</defs>
</svg>
